{"glyphs":{"0":{"ha":906,"x_min":63,"x_max":843,"o":"m 453 1007 q 155 872 247 1007 q 63 506 63 736 q 155 140 63 275 q 453 4 247 4 q 751 140 658 4 q 843 506 843 275 q 751 872 843 736 q 453 1007 658 1007 m 453 785 q 579 712 549 785 q 610 506 610 639 q 579 299 610 372 q 453 226 549 226 q 326 299 357 226 q 296 506 296 372 q 326 712 296 639 q 453 785 357 785 z "},"1":{"ha":522,"x_min":38,"x_max":422,"o":"m 38 764 l 38 985 l 422 985 l 422 0 l 175 0 l 175 764 l 38 764 z "},"2":{"ha":793,"x_min":51,"x_max":751,"o":"m 54 190 q 99 226 96 225 q 310 408 232 338 q 440 553 388 478 q 493 696 493 628 q 467 783 493 753 q 390 814 442 814 q 281 663 285 814 l 51 663 q 102 860 54 781 q 228 976 150 939 q 403 1014 307 1014 q 588 974 514 1014 q 698 867 663 935 q 733 715 733 799 q 633 451 733 574 q 376 207 533 328 l 751 207 l 751 14 l 54 14 l 54 190 z "},"3":{"ha":840,"x_min":58,"x_max":764,"o":"m 71 728 q 168 957 76 876 q 417 1038 260 1038 q 595 1001 521 1038 q 708 903 669 965 q 746 763 746 840 q 700 613 746 671 q 593 535 654 556 l 593 529 q 718 442 672 503 q 764 285 764 381 q 724 133 764 199 q 609 29 685 67 q 429 -8 533 -8 q 163 74 263 -8 q 58 321 64 156 l 289 321 q 324 224 290 260 q 421 189 357 189 q 505 220 475 189 q 535 303 535 251 q 492 399 535 369 q 357 429 450 429 l 313 429 l 313 622 l 357 622 q 472 647 428 622 q 515 733 515 671 q 488 811 515 783 q 411 839 460 839 q 333 807 358 839 q 303 728 307 775 l 71 728 z "},"4":{"ha":940,"x_min":68,"x_max":886,"o":"m 68 181 l 68 372 l 507 1000 l 772 1000 l 772 386 l 886 386 l 886 181 l 772 181 l 772 0 l 535 0 l 535 181 l 68 181 m 551 739 l 318 386 l 551 386 l 551 739 z "},"5":{"ha":903,"x_min":117,"x_max":835,"o":"m 776 807 l 343 807 l 343 615 q 421 665 371 646 q 529 685 471 685 q 702 638 633 685 q 803 515 771 590 q 835 353 835 440 q 743 95 835 190 q 485 0 651 0 q 292 38 374 0 q 165 144 210 76 q 117 301 121 213 l 349 301 q 389 230 357 258 q 476 201 421 201 q 574 243 542 201 q 606 354 606 285 q 572 458 606 422 q 475 494 539 494 q 397 472 428 494 q 357 411 367 449 l 128 411 l 128 1015 l 776 1015 l 776 807 z "},"6":{"ha":885,"x_min":86,"x_max":813,"o":"m 564 740 q 525 817 553 792 q 446 843 497 843 q 332 774 367 843 q 296 557 297 706 q 384 633 326 606 q 511 661 442 661 q 730 575 647 661 q 813 335 813 489 q 772 157 813 233 q 652 38 731 81 q 467 -6 574 -6 q 169 128 253 -6 q 86 514 86 263 q 174 906 86 778 q 457 1035 263 1035 q 633 994 561 1035 q 741 886 704 953 q 785 740 778 819 l 564 740 m 454 474 q 355 438 394 474 q 315 338 315 403 q 352 233 315 271 q 457 196 389 196 q 553 233 518 196 q 589 333 589 269 q 554 436 589 399 q 454 474 519 474 z "},"7":{"ha":743,"x_min":40,"x_max":710,"o":"m 710 826 l 349 0 l 100 0 l 471 800 l 40 800 l 40 1001 l 710 1001 l 710 826 z "},"8":{"ha":900,"x_min":75,"x_max":825,"o":"m 229 551 q 99 769 99 621 q 138 906 99 842 q 257 1008 178 969 q 450 1047 336 1047 q 643 1008 564 1047 q 761 906 722 969 q 800 769 800 842 q 765 639 800 694 q 669 551 729 583 q 785 452 744 515 q 825 300 825 389 q 775 128 825 200 q 640 18 725 56 q 450 -19 556 -19 q 260 18 344 -19 q 125 128 175 56 q 75 300 75 200 q 115 451 75 388 q 229 551 156 515 m 450 853 q 363 821 396 853 q 331 732 331 789 q 364 646 331 678 q 450 614 397 614 q 536 646 503 614 q 569 732 569 678 q 537 821 569 789 q 450 853 504 853 m 450 449 q 344 413 385 449 q 304 313 304 376 q 343 213 304 251 q 450 175 382 175 q 555 213 517 175 q 593 313 593 251 q 554 413 593 376 q 450 449 515 449 z "},"9":{"ha":854,"x_min":72,"x_max":789,"o":"m 318 297 q 446 188 339 188 q 550 253 519 188 q 581 465 581 318 q 497 399 550 422 q 379 375 444 375 q 158 458 243 375 q 72 696 72 542 q 165 943 72 851 q 421 1035 258 1035 q 708 908 626 1035 q 789 532 789 781 q 757 235 789 351 q 649 57 725 118 q 442 -4 572 -4 q 259 38 335 -4 q 144 147 183 79 q 99 297 104 215 l 318 297 m 433 563 q 526 598 492 563 q 561 694 561 633 q 525 797 561 761 q 428 833 489 833 q 331 797 367 833 q 296 696 296 760 q 331 599 296 636 q 433 563 367 563 z "},"\u0000":{"ha":0,"x_min":0,"x_max":0,"o":""},"\r":{"ha":321,"x_min":0,"x_max":0,"o":""}," ":{"ha":321,"x_min":0,"x_max":0,"o":""},"अ":{"ha":1165,"x_min":83,"x_max":1189,"o":"m 1189 1028 l 1189 846 l 1051 846 l 1051 0 l 835 0 l 835 365 l 699 365 l 699 353 q 619 156 699 229 q 410 82 540 82 q 239 119 313 82 q 124 222 165 156 q 83 375 83 289 l 288 375 q 317 300 288 331 q 396 269 347 269 q 473 299 444 269 q 501 375 501 328 q 469 453 501 421 q 372 485 436 485 l 310 485 l 310 661 l 372 661 q 458 688 426 661 q 490 758 490 715 q 463 829 490 803 q 394 856 436 856 q 322 829 350 856 q 293 761 293 803 l 92 761 q 129 907 92 843 q 235 1006 167 971 q 394 1040 304 1040 q 606 972 526 1040 q 685 788 685 903 q 647 658 685 713 q 538 581 608 604 l 538 575 q 607 544 579 564 l 835 544 l 835 1028 l 1189 1028 z "},"आ":{"ha":1604,"x_min":83,"x_max":1632,"o":"m 1189 1028 l 1189 846 l 1051 846 l 1051 0 l 835 0 l 835 365 l 699 365 l 699 353 q 619 156 699 229 q 410 82 540 82 q 239 119 313 82 q 124 222 165 156 q 83 375 83 289 l 288 375 q 317 300 288 331 q 396 269 347 269 q 473 299 444 269 q 501 375 501 328 q 469 453 501 421 q 372 485 436 485 l 310 485 l 310 661 l 372 661 q 458 688 426 661 q 490 758 490 715 q 463 829 490 803 q 394 856 436 856 q 322 829 350 856 q 293 761 293 803 l 92 761 q 129 907 92 843 q 235 1006 167 971 q 394 1040 304 1040 q 606 972 526 1040 q 685 788 685 903 q 647 658 685 713 q 538 581 608 604 l 538 575 q 607 544 579 564 l 835 544 l 835 1028 l 1189 1028 m 1278 846 l 1142 846 l 1142 1028 l 1632 1028 l 1632 846 l 1496 846 l 1496 0 l 1278 0 l 1278 846 z "},"इ":{"ha":803,"x_min":-29,"x_max":833,"o":"m 394 590 q 329 575 356 590 q 303 525 303 560 q 326 478 303 493 q 388 463 349 463 l 449 463 q 653 404 571 463 q 735 214 735 346 q 670 42 735 108 q 493 -25 606 -25 q 387 -3 431 -25 q 319 47 343 19 l 319 -117 l 113 -117 l 113 240 l 308 240 q 344 164 311 192 q 429 136 376 136 q 502 159 476 136 q 528 219 528 182 q 495 287 528 265 q 407 308 463 308 q 319 311 351 308 q 153 369 222 315 q 83 528 83 422 q 155 690 83 636 q 339 744 226 744 l 440 744 l 440 846 l -29 846 l -29 1028 l 833 1028 l 833 846 l 651 846 l 651 590 l 394 590 z "},"ई":{"ha":803,"x_min":-29,"x_max":994,"o":"m 394 590 q 329 575 356 590 q 303 525 303 560 q 326 478 303 493 q 388 463 349 463 l 449 463 q 653 404 571 463 q 735 214 735 346 q 670 42 735 108 q 493 -25 606 -25 q 387 -3 431 -25 q 319 47 343 19 l 319 -117 l 113 -117 l 113 240 l 308 240 q 344 164 311 192 q 429 136 376 136 q 502 159 476 136 q 528 219 528 182 q 495 287 528 265 q 407 308 463 308 q 319 311 351 308 q 153 369 222 315 q 83 528 83 422 q 155 690 83 636 q 339 744 226 744 l 440 744 l 440 846 l -29 846 l -29 1028 l 833 1028 l 833 846 l 651 846 l 651 590 l 394 590 m 443 1117 q 507 1331 443 1244 q 719 1418 571 1418 q 924 1342 853 1418 q 988 1133 994 1265 l 797 1133 q 779 1210 799 1183 q 724 1238 760 1238 q 665 1208 683 1238 q 646 1119 646 1179 l 646 993 l 443 993 l 443 1117 z "},"उ":{"ha":785,"x_min":-24,"x_max":808,"o":"m 688 763 q 652 625 688 679 q 560 557 617 571 l 560 553 q 677 465 632 532 q 722 307 722 397 q 685 150 722 218 q 576 44 647 82 q 406 6 504 6 q 224 44 303 6 q 100 157 144 83 q 56 331 56 231 l 264 331 q 301 237 264 274 q 394 200 338 200 q 483 235 450 200 q 517 325 517 269 q 483 416 517 378 q 383 454 450 454 l 300 454 l 300 644 l 353 644 q 443 677 410 644 q 476 772 476 710 l 476 846 l -24 846 l -24 1028 l 808 1028 l 808 846 l 688 846 l 688 763 z "},"ऊ":{"ha":1185,"x_min":-24,"x_max":1206,"o":"m 688 763 q 652 625 688 679 q 560 557 617 571 l 560 553 l 807 553 q 1044 485 957 553 q 1132 281 1132 417 q 1061 96 1132 165 q 867 26 990 26 q 785 35 828 26 l 785 199 q 828 197 799 197 q 897 220 871 197 q 922 289 922 243 q 892 358 922 335 q 810 381 861 381 l 708 381 q 719 294 719 339 q 682 147 719 213 q 573 43 644 81 q 406 6 501 6 q 224 44 303 6 q 100 157 144 83 q 56 331 56 231 l 264 331 q 301 237 264 274 q 394 200 338 200 q 483 235 450 200 q 517 325 517 269 q 483 416 517 378 q 383 454 450 454 l 300 454 l 300 644 l 353 644 q 443 677 410 644 q 476 772 476 710 l 476 846 l -24 846 l -24 1028 l 1206 1028 l 1206 846 l 688 846 l 688 763 z "},"ऋ":{"ha":1461,"x_min":-24,"x_max":1485,"o":"m 863 846 l 863 626 l 1064 626 q 1130 646 1107 626 q 1153 701 1153 665 l 1153 753 l 1340 753 l 1340 267 l 1303 267 q 1216 240 1246 267 q 1186 168 1186 213 q 1221 97 1186 119 q 1313 74 1256 74 q 1392 83 1353 74 l 1392 -90 q 1283 -100 1340 -100 q 1063 -35 1147 -100 q 978 149 978 31 q 1024 296 978 236 q 1153 382 1071 356 l 1153 474 q 1032 454 1094 454 l 863 454 l 863 0 l 663 0 l 663 238 l 403 0 l 125 0 l 125 10 l 658 447 q 598 525 640 496 q 496 554 556 554 q 356 501 407 554 q 306 358 306 447 l 88 358 q 128 557 88 471 q 247 691 169 643 q 431 739 324 739 q 663 642 581 739 l 663 846 l -24 846 l -24 1028 l 1485 1028 l 1485 846 l 863 846 z "},"ॠ":{"ha":1439,"x_min":-24,"x_max":1488,"o":"m 863 846 l 863 626 l 1064 626 q 1130 646 1107 626 q 1153 701 1153 665 l 1153 753 l 1340 753 l 1340 261 l 1290 261 q 1192 193 1192 261 q 1293 128 1192 128 l 1372 128 l 1372 -35 l 1303 -35 q 1190 -106 1190 -35 q 1306 -176 1190 -176 q 1447 -154 1376 -176 l 1447 -315 q 1367 -337 1415 -329 q 1272 -344 1318 -344 q 1065 -292 1150 -344 q 981 -129 981 -239 q 1019 -19 981 -65 q 1119 40 1058 26 l 1119 46 q 1019 99 1057 60 q 982 206 982 138 q 1031 324 982 282 q 1153 376 1081 365 l 1153 474 q 1032 454 1094 454 l 863 454 l 863 0 l 663 0 l 663 238 l 403 0 l 125 0 l 125 10 l 658 447 q 598 525 640 496 q 496 554 556 554 q 356 501 407 554 q 306 358 306 447 l 88 358 q 128 557 88 471 q 247 691 169 643 q 431 739 324 739 q 663 642 581 739 l 663 846 l -24 846 l -24 1028 l 1488 1028 l 1488 846 l 863 846 z "},"ऌ":{"ha":1258,"x_min":-24,"x_max":1281,"o":"m 996 846 l 996 715 q 1133 603 1082 683 q 1185 400 1185 522 q 1163 261 1185 322 l 1154 261 q 1010 161 1010 261 q 1046 92 1010 115 q 1140 69 1082 69 q 1221 79 1186 69 l 1221 -94 q 1113 -104 1171 -104 q 887 -37 972 -104 q 801 151 801 29 q 848 288 801 229 q 967 371 894 347 q 968 401 968 381 q 937 504 968 465 q 850 543 906 543 q 756 497 786 543 q 725 379 725 451 l 725 339 l 544 339 l 544 379 q 514 497 544 450 q 422 543 483 543 q 328 503 361 543 q 294 397 294 464 q 334 278 294 318 q 443 238 374 238 q 481 239 467 238 l 481 50 q 433 49 461 49 q 167 144 261 49 q 74 400 74 239 q 117 585 74 510 q 231 697 160 660 q 390 735 303 735 q 541 691 482 735 q 629 576 600 647 l 635 576 q 692 664 654 626 q 785 719 731 701 l 785 846 l -24 846 l -24 1028 l 1281 1028 l 1281 846 l 996 846 z "},"ॡ":{"ha":1272,"x_min":-24,"x_max":1294,"o":"m 996 846 l 996 715 q 1133 603 1082 683 q 1185 400 1185 522 q 1163 261 1185 322 l 1122 261 q 1022 193 1022 261 q 1051 143 1022 158 q 1125 128 1079 128 l 1204 128 l 1204 -35 l 1135 -35 q 1021 -106 1021 -35 q 1138 -176 1021 -176 q 1279 -154 1208 -176 l 1279 -315 q 1199 -337 1247 -329 q 1104 -344 1150 -344 q 897 -291 982 -344 q 813 -128 813 -237 q 851 -19 813 -64 q 951 40 890 26 l 951 46 q 851 99 889 60 q 814 206 814 138 q 858 317 814 276 q 967 372 901 358 q 968 401 968 382 q 937 504 968 465 q 850 543 906 543 q 756 497 786 543 q 725 379 725 451 l 725 339 l 544 339 l 544 379 q 514 497 544 450 q 422 543 483 543 q 328 503 361 543 q 294 397 294 464 q 334 278 294 318 q 443 238 374 238 q 481 239 467 238 l 481 50 q 433 49 461 49 q 167 144 261 49 q 74 400 74 239 q 117 585 74 510 q 231 697 160 660 q 390 735 303 735 q 541 691 482 735 q 629 576 600 647 l 635 576 q 692 664 654 626 q 785 719 731 701 l 785 846 l -24 846 l -24 1028 l 1294 1028 l 1294 846 l 996 846 z "},"ए":{"ha":907,"x_min":-24,"x_max":931,"o":"m 931 846 l 810 846 l 810 736 q 750 514 810 590 q 556 438 690 438 q 481 443 515 438 l 481 639 q 508 638 490 638 q 576 663 554 638 q 597 742 597 689 l 597 846 l 332 846 l 332 365 q 367 252 332 292 q 464 213 403 213 q 556 247 522 213 q 589 340 589 281 l 803 340 q 712 109 803 192 q 468 26 621 26 q 206 120 296 26 q 115 374 115 214 l 114 846 l -24 846 l -24 1028 l 931 1028 l 931 846 z "},"ऐ":{"ha":907,"x_min":-24,"x_max":931,"o":"m 931 846 l 810 846 l 810 736 q 750 514 810 590 q 556 438 690 438 q 481 443 515 438 l 481 639 q 508 638 490 638 q 576 663 554 638 q 597 742 597 689 l 597 846 l 332 846 l 332 365 q 367 252 332 292 q 464 213 403 213 q 556 247 522 213 q 589 340 589 281 l 803 340 q 712 109 803 192 q 468 26 621 26 q 206 120 296 26 q 115 374 115 214 l 114 846 l -24 846 l -24 1028 l 931 1028 l 931 846 m 596 1021 q 504 1149 539 1110 q 433 1201 469 1188 q 331 1214 396 1214 l 258 1214 l 258 1389 l 326 1389 q 511 1363 443 1388 q 644 1263 579 1339 q 800 1021 708 1188 l 596 1021 z "},"ओ":{"ha":1608,"x_min":83,"x_max":1632,"o":"m 1283 1021 q 1192 1149 1226 1110 q 1120 1201 1157 1188 q 1018 1214 1083 1214 l 946 1214 l 946 1389 l 1014 1389 q 1199 1363 1131 1388 q 1331 1263 1267 1339 q 1488 1021 1396 1188 l 1283 1021 m 1189 1028 l 1189 846 l 1051 846 l 1051 0 l 835 0 l 835 365 l 699 365 l 699 353 q 619 156 699 229 q 410 82 540 82 q 239 119 313 82 q 124 222 165 156 q 83 375 83 289 l 288 375 q 317 300 288 331 q 396 269 347 269 q 473 299 444 269 q 501 375 501 328 q 469 453 501 421 q 372 485 436 485 l 310 485 l 310 661 l 372 661 q 458 688 426 661 q 490 758 490 715 q 463 829 490 803 q 394 856 436 856 q 322 829 350 856 q 293 761 293 803 l 92 761 q 129 907 92 843 q 235 1006 167 971 q 394 1040 304 1040 q 606 972 526 1040 q 685 788 685 903 q 647 658 685 713 q 538 581 608 604 l 538 575 q 607 544 579 564 l 835 544 l 835 1028 l 1189 1028 m 1278 846 l 1142 846 l 1142 1028 l 1632 1028 l 1632 846 l 1496 846 l 1496 0 l 1278 0 l 1278 846 z "},"औ":{"ha":1608,"x_min":83,"x_max":1632,"o":"m 1000 1489 q 1176 1464 1117 1489 q 1301 1347 1236 1439 q 1485 1024 1365 1254 l 1297 1024 l 1271 1040 q 1170 1099 1200 1085 q 1108 1118 1140 1114 q 1000 1122 1076 1122 l 925 1122 l 925 1258 l 996 1258 q 1107 1254 1071 1258 q 1177 1234 1143 1250 q 1263 1179 1211 1218 q 1174 1297 1214 1260 q 1099 1342 1135 1333 q 1004 1351 1064 1351 l 925 1351 l 925 1489 l 1000 1489 m 1189 1028 l 1189 846 l 1051 846 l 1051 0 l 835 0 l 835 365 l 699 365 l 699 353 q 619 156 699 229 q 410 82 540 82 q 239 119 313 82 q 124 222 165 156 q 83 375 83 289 l 288 375 q 317 300 288 331 q 396 269 347 269 q 473 299 444 269 q 501 375 501 328 q 469 453 501 421 q 372 485 436 485 l 310 485 l 310 661 l 372 661 q 458 688 426 661 q 490 758 490 715 q 463 829 490 803 q 394 856 436 856 q 322 829 350 856 q 293 761 293 803 l 92 761 q 129 907 92 843 q 235 1006 167 971 q 394 1040 304 1040 q 606 972 526 1040 q 685 788 685 903 q 647 658 685 713 q 538 581 608 604 l 538 575 q 607 544 579 564 l 835 544 l 835 1028 l 1189 1028 m 1278 846 l 1142 846 l 1142 1028 l 1632 1028 l 1632 846 l 1496 846 l 1496 0 l 1278 0 l 1278 846 z "},"ऍ":{"ha":907,"x_min":-24,"x_max":931,"o":"m 931 846 l 810 846 l 810 736 q 750 514 810 590 q 556 438 690 438 q 481 443 515 438 l 481 639 q 508 638 490 638 q 576 663 554 638 q 597 742 597 689 l 597 846 l 332 846 l 332 365 q 367 252 332 292 q 464 213 403 213 q 556 247 522 213 q 589 340 589 281 l 803 340 q 712 109 803 192 q 468 26 621 26 q 206 120 296 26 q 115 374 115 214 l 114 846 l -24 846 l -24 1028 l 931 1028 l 931 846 m 454 1138 q 205 1217 288 1138 q 122 1431 122 1297 l 310 1431 q 345 1335 310 1372 q 454 1299 381 1299 q 564 1335 528 1299 q 600 1431 600 1372 l 788 1431 q 704 1217 788 1297 q 454 1138 621 1138 z "},"ॲ":{"ha":1171,"x_min":83,"x_max":1288,"o":"m 1189 1028 l 1189 846 l 1051 846 l 1051 0 l 835 0 l 835 365 l 699 365 l 699 353 q 619 156 699 229 q 410 82 540 82 q 239 119 313 82 q 124 222 165 156 q 83 375 83 289 l 288 375 q 317 300 288 331 q 396 269 347 269 q 473 299 444 269 q 501 375 501 328 q 469 453 501 421 q 372 485 436 485 l 310 485 l 310 661 l 372 661 q 458 688 426 661 q 490 758 490 715 q 463 829 490 803 q 394 856 436 856 q 322 829 350 856 q 293 761 293 803 l 92 761 q 129 907 92 843 q 235 1006 167 971 q 394 1040 304 1040 q 606 972 526 1040 q 685 788 685 903 q 647 658 685 713 q 538 581 608 604 l 538 575 q 607 544 579 564 l 835 544 l 835 1028 l 1189 1028 m 954 1144 q 705 1224 788 1144 q 622 1438 622 1304 l 810 1438 q 845 1342 810 1379 q 954 1306 881 1306 q 1064 1342 1028 1306 q 1100 1438 1100 1379 l 1288 1438 q 1204 1224 1288 1304 q 954 1144 1121 1144 z "},"ऑ":{"ha":1608,"x_min":83,"x_max":1632,"o":"m 1189 1028 l 1189 846 l 1051 846 l 1051 0 l 835 0 l 835 365 l 699 365 l 699 353 q 619 156 699 229 q 410 82 540 82 q 239 119 313 82 q 124 222 165 156 q 83 375 83 289 l 288 375 q 317 300 288 331 q 396 269 347 269 q 473 299 444 269 q 501 375 501 328 q 469 453 501 421 q 372 485 436 485 l 310 485 l 310 661 l 372 661 q 458 688 426 661 q 490 758 490 715 q 463 829 490 803 q 394 856 436 856 q 322 829 350 856 q 293 761 293 803 l 92 761 q 129 907 92 843 q 235 1006 167 971 q 394 1040 304 1040 q 606 972 526 1040 q 685 788 685 903 q 647 658 685 713 q 538 581 608 604 l 538 575 q 607 544 579 564 l 835 544 l 835 1028 l 1189 1028 m 1278 846 l 1142 846 l 1142 1028 l 1632 1028 l 1632 846 l 1496 846 l 1496 0 l 1278 0 l 1278 846 m 1169 1138 q 920 1217 1003 1138 q 838 1431 838 1297 l 1025 1431 q 1060 1335 1025 1372 q 1169 1299 1096 1299 q 1279 1335 1243 1299 q 1315 1431 1315 1372 l 1503 1431 q 1419 1217 1503 1297 q 1169 1138 1336 1138 z "},"ा":{"ha":443,"x_min":-24,"x_max":467,"o":"m 113 846 l -24 846 l -24 1028 l 467 1028 l 467 846 l 331 846 l 331 0 l 113 0 l 113 846 z "},"ि":{"ha":443,"x_min":-24,"x_max":1272,"o":"m 692 1432 q 997 1378 865 1432 q 1201 1226 1129 1324 q 1272 1004 1272 1129 l 1272 979 l 1054 979 l 1054 1000 q 1004 1140 1054 1083 q 872 1226 954 1197 q 692 1254 789 1254 q 442 1197 544 1254 q 331 1028 339 1140 l 467 1028 l 467 846 l 331 846 l 331 0 l 113 0 l 113 846 l -24 846 l -24 1028 l 113 1028 q 191 1241 118 1150 q 392 1382 264 1332 q 692 1432 521 1432 z "},"ी":{"ha":443,"x_min":-331,"x_max":467,"o":"m 467 1028 l 467 846 l 331 846 l 331 0 l 113 0 l 113 846 l -24 846 l -24 1028 l 119 1028 l 119 1081 q 3 1249 119 1249 q -119 1081 -119 1249 l -119 979 l -331 979 l -331 1069 q -251 1335 -331 1238 q 3 1432 -172 1432 q 331 1069 331 1432 l 331 1028 l 467 1028 z "},"ु":{"ha":0,"x_min":-654,"x_max":13,"o":"m -293 -472 q -472 -440 -390 -472 q -604 -335 -554 -407 q -653 -149 -654 -262 l -460 -149 q -417 -264 -461 -226 q -299 -301 -374 -301 q -206 -276 -239 -301 q -172 -203 -172 -250 q -201 -136 -172 -162 q -282 -110 -229 -110 l -331 -110 l -331 60 l -282 60 q -62 -10 -137 60 q 13 -206 13 -81 q -70 -401 13 -329 q -293 -472 -153 -472 z "},"ू":{"ha":0,"x_min":-531,"x_max":142,"o":"m -265 -451 q -455 -387 -379 -451 q -531 -204 -531 -324 q -447 -16 -531 -85 q -229 53 -364 53 q 56 -66 -29 53 q 142 -365 142 -185 q 139 -443 142 -393 l -37 -443 l -37 -356 q -86 -173 -37 -236 q -232 -110 -135 -110 q -320 -134 -285 -110 q -356 -206 -356 -158 q -325 -272 -356 -249 q -250 -296 -294 -296 l -212 -294 l -212 -450 q -265 -451 -231 -451 z "},"ृ":{"ha":0,"x_min":-496,"x_max":-39,"o":"m -189 -467 q -406 -402 -315 -467 q -496 -203 -496 -337 q -415 -15 -496 -86 q -193 56 -335 56 q -112 53 -140 56 l -112 -93 l -175 -93 q -256 -122 -228 -93 q -285 -194 -285 -150 q -249 -269 -285 -246 q -154 -293 -212 -293 q -39 -275 -100 -293 l -39 -444 q -189 -467 -110 -467 z "},"ॄ":{"ha":0,"x_min":-450,"x_max":17,"o":"m -158 -668 q -365 -616 -281 -668 q -450 -454 -450 -564 q -412 -344 -450 -389 q -311 -285 -374 -299 l -311 -279 q -411 -226 -374 -265 q -449 -119 -449 -187 q -381 13 -449 -29 q -226 56 -312 56 l -112 56 l -112 -62 l -140 -62 q -240 -131 -240 -62 q -212 -182 -240 -165 q -139 -199 -183 -199 l -58 -199 l -58 -358 l -126 -358 q -210 -374 -179 -358 q -240 -431 -240 -389 q -125 -500 -240 -500 q -47 -493 -86 -500 q 17 -479 -7 -486 l 17 -642 q -64 -661 -15 -654 q -158 -668 -112 -668 z "},"ॢ":{"ha":0,"x_min":-640,"x_max":224,"o":"m 163 -528 q 224 -521 201 -528 l 224 -656 q 142 -662 179 -662 q -31 -612 35 -662 q -96 -468 -96 -561 q -60 -365 -96 -408 q 29 -303 -25 -321 l 29 -283 q 7 -208 29 -236 q -57 -179 -15 -179 q -125 -212 -103 -179 q -147 -299 -147 -246 l -147 -329 l -287 -329 l -287 -299 q -310 -212 -287 -246 q -376 -179 -332 -179 q -445 -208 -421 -179 q -469 -286 -469 -237 q -440 -372 -469 -343 q -361 -401 -411 -401 q -333 -399 -343 -401 l -333 -547 l -369 -547 q -569 -476 -499 -547 q -640 -283 -640 -404 q -572 -96 -640 -161 q -403 -31 -504 -31 q -289 -63 -333 -31 q -222 -149 -244 -96 l -219 -149 q -149 -63 -197 -96 q -31 -31 -101 -31 q 85 -59 32 -31 q 169 -144 138 -87 q 201 -283 201 -201 q 185 -387 201 -333 l 176 -387 q 67 -460 67 -387 q 94 -510 67 -493 q 163 -528 121 -528 z "},"ॣ":{"ha":0,"x_min":-640,"x_max":267,"o":"m 161 -712 q 221 -708 190 -712 q 267 -697 251 -703 l 267 -822 q 207 -837 243 -832 q 135 -842 171 -842 q -21 -803 42 -842 q -83 -681 -83 -764 q -55 -597 -83 -631 q 19 -553 -26 -562 l 19 -550 q -55 -508 -26 -539 q -83 -426 -83 -478 q -51 -342 -83 -374 q 29 -300 -19 -311 l 29 -283 q 7 -208 29 -236 q -57 -179 -15 -179 q -125 -212 -103 -179 q -147 -299 -147 -246 l -147 -329 l -287 -329 l -287 -299 q -310 -212 -287 -246 q -376 -179 -332 -179 q -445 -208 -421 -179 q -469 -286 -469 -237 q -440 -372 -469 -343 q -361 -401 -411 -401 q -333 -399 -343 -401 l -333 -547 l -369 -547 q -569 -476 -499 -547 q -640 -283 -640 -404 q -572 -96 -640 -161 q -403 -31 -504 -31 q -289 -63 -333 -31 q -222 -149 -244 -96 l -219 -149 q -149 -63 -197 -96 q -31 -31 -101 -31 q 85 -59 32 -31 q 169 -144 138 -87 q 201 -283 201 -201 q 185 -387 201 -333 l 150 -387 q 76 -436 76 -387 q 97 -473 76 -461 q 153 -485 118 -485 l 211 -485 l 211 -610 l 161 -610 q 98 -620 121 -610 q 75 -662 75 -631 q 161 -712 75 -712 z "},"े":{"ha":0,"x_min":-657,"x_max":-115,"o":"m -319 1021 q -411 1149 -376 1110 q -483 1201 -446 1188 q -585 1214 -519 1214 l -657 1214 l -657 1389 l -589 1389 q -404 1363 -472 1388 q -272 1263 -336 1339 q -115 1021 -207 1188 l -319 1021 z "},"ै":{"ha":0,"x_min":-675,"x_max":-115,"o":"m -600 1489 q -424 1464 -483 1489 q -299 1347 -364 1439 q -115 1024 -235 1254 l -303 1024 l -329 1040 q -430 1099 -400 1085 q -492 1118 -460 1114 q -600 1122 -524 1122 l -675 1122 l -675 1258 l -604 1258 q -493 1254 -529 1258 q -423 1234 -457 1250 q -337 1179 -389 1218 q -426 1297 -386 1260 q -501 1342 -465 1333 q -596 1351 -536 1351 l -675 1351 l -675 1489 l -600 1489 z "},"ो":{"ha":444,"x_min":-212,"x_max":467,"o":"m 113 846 l -24 846 l -24 1028 l 467 1028 l 467 846 l 331 846 l 331 0 l 113 0 l 113 846 m 125 1021 q 33 1149 68 1110 q -38 1201 -1 1188 q -140 1214 -75 1214 l -212 1214 l -212 1389 l -144 1389 q 40 1363 -28 1388 q 173 1263 108 1339 q 329 1021 238 1188 l 125 1021 z "},"ौ":{"ha":443,"x_min":-239,"x_max":467,"o":"m 113 846 l -24 846 l -24 1028 l 467 1028 l 467 846 l 331 846 l 331 0 l 113 0 l 113 846 m -164 1489 q 13 1464 -47 1489 q 137 1347 72 1439 q 321 1024 201 1254 l 133 1024 l 107 1040 q 6 1099 36 1085 q -56 1118 -24 1114 q -164 1122 -87 1122 l -239 1122 l -239 1258 l -168 1258 q -57 1254 -93 1258 q 13 1234 -21 1250 q 99 1179 47 1218 q 10 1297 50 1260 q -65 1342 -29 1333 q -160 1351 -100 1351 l -239 1351 l -239 1489 l -164 1489 z "},"ॅ":{"ha":0,"x_min":-565,"x_max":100,"o":"m -233 1126 q -483 1206 -400 1126 q -565 1419 -565 1286 l -378 1419 q -342 1324 -378 1361 q -233 1288 -307 1288 q -124 1324 -160 1288 q -87 1419 -87 1361 l 100 1419 q 17 1206 100 1286 q -233 1126 -67 1126 z "},"ॉ":{"ha":444,"x_min":-110,"x_max":556,"o":"m 114 846 l -22 846 l -22 1028 l 468 1028 l 468 846 l 332 846 l 332 0 l 114 0 l 114 846 m 222 1126 q -27 1206 56 1126 q -110 1419 -110 1286 l 78 1419 q 113 1324 78 1361 q 222 1288 149 1288 q 332 1324 296 1288 q 368 1419 368 1361 l 556 1419 q 472 1206 556 1286 q 222 1126 389 1126 z "},"क":{"ha":1340,"x_min":-24,"x_max":1364,"o":"m 786 846 l 786 640 q 867 712 817 686 q 986 738 918 738 q 1136 695 1072 738 q 1233 581 1200 653 q 1267 419 1267 508 q 1230 249 1267 321 q 1128 140 1193 178 q 981 103 1064 103 q 886 114 931 103 l 886 285 q 921 281 901 281 q 1011 316 976 281 q 1046 414 1046 351 q 1010 513 1046 474 q 917 551 975 551 q 819 508 853 551 q 786 400 786 465 l 786 0 l 576 0 l 576 193 q 489 117 544 144 q 360 89 433 89 q 208 130 274 89 q 108 245 143 171 q 74 414 74 319 q 153 649 74 560 q 368 738 232 738 q 493 712 440 738 q 576 640 546 686 l 576 846 l -24 846 l -24 1028 l 1364 1028 l 1364 846 l 786 846 m 435 272 q 538 315 500 272 q 576 414 576 357 q 539 512 576 471 q 436 553 501 553 q 335 514 375 553 q 294 413 294 475 q 333 310 294 349 q 435 272 372 272 z "},"ख":{"ha":1333,"x_min":-24,"x_max":1357,"o":"m 1357 1028 l 1357 846 l 1221 846 l 1221 0 l 1004 0 l 1004 219 q 840 154 946 154 q 797 157 825 154 q 667 35 747 81 q 482 -10 588 -10 q 195 94 300 -10 q 90 383 90 197 l 90 560 l 126 560 q 268 603 222 560 q 314 740 314 646 l 314 846 l -24 846 l -24 1028 l 1357 1028 m 488 179 q 638 247 590 179 q 574 443 574 329 q 608 588 574 524 q 703 690 642 653 q 840 726 764 726 q 1004 660 947 726 l 1004 846 l 532 846 l 532 710 q 472 498 532 575 q 307 408 411 421 l 307 357 q 354 228 307 278 q 488 179 401 179 m 889 321 q 974 356 943 321 q 1004 442 1004 390 q 975 526 1004 490 q 889 561 946 561 q 803 529 838 561 q 768 443 768 497 q 802 353 768 385 q 889 321 836 321 z "},"ग":{"ha":1132,"x_min":-24,"x_max":1156,"o":"m 1156 1028 l 1156 846 l 1019 846 l 1019 0 l 801 0 l 801 846 l 626 846 l 626 532 q 556 317 626 399 q 342 235 485 235 q 126 309 203 235 q 50 521 50 383 q 51 565 50 551 l 263 565 l 263 522 q 336 421 263 421 q 407 524 407 421 l 407 846 l -24 846 l -24 1028 l 1156 1028 z "},"घ":{"ha":971,"x_min":-24,"x_max":994,"o":"m 994 846 l 860 846 l 860 0 l 640 0 l 640 238 q 533 158 597 186 q 392 131 469 131 q 176 197 261 131 q 92 385 92 264 q 135 514 92 461 q 240 585 178 567 l 240 589 q 144 651 179 604 q 108 781 108 697 l 108 846 l -24 846 l -24 1028 l 994 1028 l 994 846 m 640 846 l 326 846 l 326 790 q 356 706 326 735 q 451 676 385 676 l 506 676 l 506 501 l 433 501 q 343 476 374 501 q 313 407 313 450 q 349 333 313 358 q 444 308 386 308 q 585 360 529 308 q 640 494 640 411 l 640 846 z "},"ङ":{"ha":975,"x_min":-24,"x_max":999,"o":"m 999 1028 l 999 846 l 657 846 l 657 590 l 400 590 q 335 575 361 590 q 310 526 310 560 q 333 478 310 493 q 392 463 356 463 l 454 463 q 658 404 575 463 q 740 219 740 346 q 658 39 740 106 q 428 -28 576 -28 q 174 43 272 -28 q 71 240 76 114 l 288 240 q 326 163 289 190 q 421 136 364 136 q 505 159 475 136 q 535 221 535 182 q 502 287 535 265 q 414 308 469 308 l 364 308 q 174 358 257 308 q 90 533 90 407 q 162 690 90 638 q 344 743 233 743 l 447 743 l 447 846 l -24 846 l -24 1028 l 999 1028 m 846 626 q 927 594 894 626 q 960 513 960 561 q 926 432 960 465 q 846 399 893 399 q 765 432 799 399 q 732 513 732 465 q 765 594 732 561 q 846 626 799 626 z "},"च":{"ha":1046,"x_min":-24,"x_max":1069,"o":"m 1069 846 l 933 846 l 933 0 l 715 0 l 715 222 q 613 143 676 171 q 472 115 550 115 q 328 147 393 115 q 226 238 264 178 q 189 378 189 297 q 257 540 189 479 l 71 540 l 71 711 l 583 711 l 583 540 l 526 540 q 431 507 468 540 q 393 418 393 474 q 433 328 393 361 q 535 296 474 296 q 667 354 619 296 q 715 511 715 413 l 715 846 l -24 846 l -24 1028 l 1069 1028 l 1069 846 z "},"छ":{"ha":1144,"x_min":-24,"x_max":1168,"o":"m 907 846 l 907 733 q 1038 633 990 706 q 1085 451 1085 560 q 1022 228 1085 324 q 841 80 960 132 q 558 28 722 28 q 214 106 342 28 q 86 336 86 185 q 126 472 86 418 q 238 550 167 526 l 238 556 q 142 617 178 571 q 107 747 107 664 l 107 846 l -24 846 l -24 1028 l 1168 1028 l 1168 846 l 907 846 m 706 846 l 325 846 l 325 757 q 436 643 325 643 l 464 643 l 464 468 l 440 468 q 341 437 375 468 q 307 357 307 406 q 369 251 307 288 q 560 214 431 214 q 807 278 721 214 q 893 463 893 342 q 869 553 893 518 q 806 589 844 589 q 742 560 767 589 q 718 478 718 531 q 736 372 718 429 l 557 372 q 538 503 538 431 q 583 654 538 596 q 706 735 628 713 l 706 846 z "},"ज":{"ha":1194,"x_min":-24,"x_max":1218,"o":"m 1218 846 l 1082 846 l 1082 0 l 864 0 l 864 492 l 704 492 l 704 450 q 666 289 704 360 q 557 178 628 218 q 390 139 486 139 q 155 224 238 139 q 72 450 72 310 l 72 678 l 292 678 l 292 456 q 317 363 292 396 q 392 329 343 329 q 465 363 439 329 q 490 456 490 396 l 490 678 l 864 678 l 864 846 l -24 846 l -24 1028 l 1218 1028 l 1218 846 z "},"झ":{"ha":1207,"x_min":-24,"x_max":1231,"o":"m 1231 846 l 1094 846 l 1094 0 l 881 0 l 881 299 l 706 299 q 729 190 729 254 q 668 38 729 97 q 500 -21 607 -21 q 322 46 393 -21 l 322 -117 l 117 -117 l 117 235 l 313 235 q 347 165 315 192 q 431 139 378 139 q 503 162 478 139 q 528 219 528 185 q 498 285 528 261 q 407 308 468 308 q 319 311 351 308 q 153 369 222 315 q 83 528 83 422 q 155 690 83 636 q 339 744 226 744 l 440 744 l 440 846 l -24 846 l -24 1028 l 1231 1028 l 1231 846 m 881 463 l 881 846 l 651 846 l 651 590 l 394 590 q 329 575 356 590 q 303 525 303 560 q 326 478 303 493 q 388 463 349 463 l 449 463 l 881 463 z "},"ञ":{"ha":1160,"x_min":-24,"x_max":1183,"o":"m 1183 846 l 1047 846 l 1047 0 l 829 0 l 829 325 l 717 325 q 608 142 693 208 q 397 75 524 75 q 172 149 260 75 q 74 346 83 222 l 279 346 q 323 282 290 306 q 400 258 356 258 q 495 301 461 258 q 529 408 529 343 q 495 514 529 471 q 400 557 461 557 q 322 533 354 557 q 279 469 290 510 l 74 469 q 171 667 82 593 q 397 742 260 742 q 602 679 518 742 q 714 508 686 617 l 829 508 l 829 846 l -24 846 l -24 1028 l 1183 1028 l 1183 846 z "},"ट":{"ha":897,"x_min":-24,"x_max":921,"o":"m 490 557 q 348 512 404 557 q 292 382 292 467 q 340 263 292 308 q 468 217 389 217 q 599 265 550 217 q 649 393 649 314 l 856 393 q 809 201 856 283 q 676 73 763 118 q 474 28 589 28 q 266 72 357 28 q 124 197 175 117 q 74 383 74 278 q 121 570 74 490 q 257 694 168 650 q 467 740 346 739 l 467 846 l -24 846 l -24 1028 l 921 1028 l 921 846 l 681 846 l 681 557 l 490 557 z "},"ठ":{"ha":932,"x_min":-24,"x_max":956,"o":"m 572 846 l 572 739 q 779 623 699 711 q 860 396 860 535 q 808 208 860 288 q 667 85 757 128 q 465 42 576 42 q 265 85 354 42 q 125 208 176 128 q 74 396 74 288 q 153 622 74 533 q 357 738 232 710 l 357 846 l -24 846 l -24 1028 l 956 1028 l 956 846 l 572 846 m 643 396 q 594 519 643 472 q 465 567 546 567 q 339 519 388 567 q 290 396 290 471 q 339 272 290 321 q 465 224 388 224 q 594 272 546 224 q 643 396 643 319 z "},"ड":{"ha":786,"x_min":-24,"x_max":808,"o":"m 400 590 q 335 575 361 590 q 310 526 310 560 q 333 478 310 493 q 392 463 356 463 l 454 463 q 658 404 575 463 q 740 219 740 346 q 658 39 740 106 q 428 -28 576 -28 q 174 43 272 -28 q 71 240 76 114 l 288 240 q 326 163 289 190 q 421 136 364 136 q 505 159 475 136 q 535 221 535 182 q 502 287 535 265 q 414 308 469 308 l 364 308 q 174 358 257 308 q 90 533 90 407 q 162 690 90 638 q 344 743 233 743 l 443 743 l 443 846 l -24 846 l -24 1028 l 808 1028 l 808 846 l 654 846 l 654 590 l 400 590 z "},"ढ":{"ha":910,"x_min":-24,"x_max":933,"o":"m 547 601 q 358 541 431 601 q 285 369 285 481 q 347 207 285 269 q 525 144 408 144 q 653 178 603 144 q 703 271 703 211 q 682 327 703 306 q 626 349 661 349 q 577 330 597 349 q 557 282 557 311 q 561 260 557 268 l 406 260 q 400 313 400 296 q 465 453 400 403 q 636 504 531 504 q 822 440 754 504 q 889 271 889 376 q 793 63 889 138 q 521 -12 697 -12 q 292 34 393 -12 q 132 169 190 81 q 74 378 74 257 q 126 580 74 496 q 269 708 178 664 q 476 751 360 751 l 503 751 l 503 846 l -24 846 l -24 1028 l 933 1028 l 933 846 l 708 846 l 708 601 l 547 601 z "},"ण":{"ha":1244,"x_min":-24,"x_max":1268,"o":"m 1268 846 l 1131 846 l 1131 0 l 913 0 l 913 846 l 726 846 l 726 507 q 647 285 726 369 q 419 201 568 201 q 192 288 271 201 q 113 507 113 374 l 113 846 l -24 846 l -24 1028 l 1268 1028 l 1268 846 m 513 846 l 326 846 l 326 488 q 352 413 326 442 q 421 385 378 385 q 489 413 465 385 q 513 488 513 440 l 513 846 z "},"त":{"ha":983,"x_min":-24,"x_max":1007,"o":"m 1007 846 l 871 846 l 871 0 l 653 0 l 653 496 l 479 496 q 344 454 394 496 q 294 336 294 413 q 338 217 294 260 q 468 174 382 174 l 494 174 l 494 1 l 435 1 q 174 86 275 1 q 74 340 74 171 q 184 597 74 511 q 468 683 294 683 l 653 683 l 653 846 l -24 846 l -24 1028 l 1007 1028 l 1007 846 z "},"थ":{"ha":1103,"x_min":76,"x_max":1126,"o":"m 1126 1028 l 1126 846 l 990 846 l 990 0 l 772 0 l 772 264 q 659 157 738 200 q 471 114 581 114 q 263 162 353 114 q 125 299 174 210 q 76 510 76 389 q 83 610 76 567 l 204 610 q 392 644 324 610 q 461 763 461 679 q 439 828 461 803 q 378 854 417 854 q 314 828 338 854 q 290 758 290 803 q 296 710 290 740 l 99 710 q 93 764 93 746 q 132 915 93 853 q 236 1009 171 978 q 381 1040 301 1040 q 530 1006 465 1040 q 631 906 594 971 q 667 757 667 842 q 570 536 667 618 q 292 454 474 454 l 289 454 q 350 341 297 386 q 504 296 403 296 q 640 328 579 296 q 737 426 701 361 q 772 582 772 490 l 772 1028 l 1126 1028 z "},"द":{"ha":850,"x_min":-24,"x_max":874,"o":"m 467 549 q 343 509 389 549 q 297 400 297 469 q 333 300 297 338 q 432 263 369 263 q 522 297 486 263 q 558 390 558 331 l 761 390 l 761 -46 l 547 -46 l 547 158 q 472 108 518 126 q 369 90 426 90 q 222 126 289 90 q 114 232 154 161 q 74 406 74 303 q 121 584 74 510 q 252 697 168 658 q 443 735 336 735 l 496 735 l 496 846 l -24 846 l -24 1028 l 874 1028 l 872 846 l 714 846 l 714 549 l 467 549 z "},"ध":{"ha":1017,"x_min":88,"x_max":1050,"o":"m 1050 846 l 918 846 l 918 0 l 700 0 l 700 231 q 583 140 656 172 q 413 108 510 108 q 188 174 278 108 q 99 360 99 240 q 147 494 99 443 q 260 560 196 546 l 260 564 q 137 644 186 586 q 88 796 88 703 q 160 974 88 907 q 347 1040 233 1040 q 531 976 465 1040 q 597 806 597 911 q 594 749 597 779 l 433 749 l 435 778 q 413 836 435 814 q 356 858 392 858 q 296 834 318 858 q 274 772 274 810 q 324 683 274 711 q 449 654 375 654 l 532 654 l 532 478 l 458 478 q 357 453 393 478 q 321 383 321 429 q 360 311 321 336 q 468 286 400 286 q 637 353 574 286 q 700 528 700 419 l 700 1028 l 1050 1028 l 1050 846 z "},"न":{"ha":1143,"x_min":-24,"x_max":1167,"o":"m 1167 846 l 1031 846 l 1031 0 l 811 0 l 811 507 l 636 507 q 672 364 672 442 q 633 218 672 279 q 527 126 593 157 q 381 96 461 96 q 226 131 297 96 q 111 234 154 167 q 68 392 68 301 q 113 555 68 488 q 232 656 157 622 q 399 689 307 689 l 811 689 l 811 846 l -24 846 l -24 1028 l 1167 1028 l 1167 846 m 383 281 q 467 312 435 281 q 499 393 499 343 q 467 475 499 443 q 383 507 435 507 q 299 475 332 507 q 265 393 265 443 q 298 312 265 343 q 383 281 331 281 z "},"प":{"ha":940,"x_min":-24,"x_max":964,"o":"m 964 846 l 828 846 l 828 0 l 610 0 l 610 303 q 404 222 536 222 q 175 322 256 222 q 94 581 94 421 l 94 846 l -24 846 l -24 1028 l 964 1028 l 964 846 m 610 846 l 313 846 l 313 581 q 349 453 313 500 q 461 406 386 406 q 571 451 532 406 q 610 568 610 497 l 610 846 z "},"फ":{"ha":1367,"x_min":-24,"x_max":1392,"o":"m 804 846 l 804 640 q 890 712 836 686 q 1015 738 944 738 q 1165 697 1101 738 q 1262 584 1228 656 q 1296 425 1296 513 q 1260 252 1296 325 q 1158 141 1224 179 q 1010 103 1093 103 q 907 117 954 103 l 907 285 q 951 279 925 279 q 1041 316 1007 279 q 1075 414 1075 353 q 1040 513 1075 474 q 946 551 1004 551 q 840 503 876 551 q 804 376 804 454 l 804 0 l 586 0 l 586 300 q 393 222 517 222 q 172 318 250 222 q 94 569 94 414 l 94 846 l -24 846 l -24 1028 l 1392 1028 l 1392 846 l 804 846 m 586 846 l 313 846 l 313 569 q 347 450 313 494 q 449 406 381 406 q 550 449 514 406 q 586 557 586 492 l 586 846 z "},"ब":{"ha":956,"x_min":-24,"x_max":979,"o":"m 979 1028 l 979 846 l 843 846 l 843 0 l 633 0 l 633 175 q 542 107 600 132 q 411 82 483 82 q 238 125 315 82 q 117 246 161 168 q 74 422 74 324 q 117 593 74 518 q 238 710 161 668 q 410 751 314 751 q 536 729 479 751 q 633 667 593 707 l 633 846 l -24 846 l -24 1028 l 979 1028 m 457 611 q 336 572 388 611 l 631 347 q 646 424 646 385 q 594 556 646 501 q 457 611 543 611 m 264 422 q 320 288 264 339 q 457 238 376 238 q 578 276 531 238 l 279 500 q 264 422 264 463 z "},"भ":{"ha":1185,"x_min":76,"x_max":1208,"o":"m 1208 1028 l 1208 846 l 1071 846 l 1071 0 l 853 0 l 853 467 l 681 467 l 681 401 q 604 168 681 251 q 382 85 528 85 q 222 119 292 85 q 115 218 153 154 q 76 367 76 282 q 165 573 76 501 q 390 644 253 644 l 478 644 l 478 750 q 459 826 478 799 q 401 854 440 854 q 347 830 367 854 q 326 765 326 806 q 331 721 326 744 l 113 721 q 107 774 107 751 q 181 966 107 892 q 393 1040 254 1040 q 613 951 546 1040 q 681 710 681 861 l 681 644 l 853 644 l 853 1028 l 1208 1028 m 478 467 l 397 467 q 311 440 343 467 q 279 367 279 414 q 307 295 279 321 q 378 269 335 269 q 452 302 426 269 q 478 390 478 335 l 478 467 z "},"म":{"ha":1171,"x_min":-24,"x_max":1194,"o":"m 1194 846 l 1058 846 l 1058 0 l 839 0 l 839 467 l 660 467 l 660 401 q 583 169 660 253 q 360 85 506 85 q 200 119 269 85 q 93 218 131 154 q 56 367 56 282 q 144 574 56 503 q 368 644 232 644 l 457 644 l 457 846 l -24 846 l -24 1028 l 1194 1028 l 1194 846 m 839 846 l 660 846 l 660 644 l 839 644 l 839 846 m 457 467 l 374 467 q 290 440 322 467 q 258 367 258 414 q 285 295 258 321 q 356 269 313 269 q 431 302 404 269 q 457 390 457 335 l 457 467 z "},"य":{"ha":1051,"x_min":-24,"x_max":1075,"o":"m 1075 846 l 939 846 l 939 0 l 719 0 l 719 217 q 608 141 675 168 q 453 114 540 114 q 175 219 274 114 q 76 506 76 325 q 82 589 76 551 l 96 589 q 256 638 210 589 q 301 783 301 688 l 301 846 l -24 846 l -24 1028 l 1075 1028 l 1075 846 m 719 846 l 517 846 l 517 743 q 463 561 517 631 q 293 478 410 492 q 350 346 296 396 q 500 296 404 296 q 660 358 600 296 q 719 518 719 421 l 719 846 z "},"र":{"ha":738,"x_min":-24,"x_max":761,"o":"m 303 417 l 303 278 q 324 202 303 231 q 388 174 344 174 q 449 201 426 174 q 471 272 471 229 l 471 311 l 681 311 l 681 279 q 604 67 681 146 q 392 -12 528 -12 q 226 27 294 -12 q 122 135 157 67 q 88 289 88 203 l 88 592 l 228 592 q 380 638 335 592 q 425 772 425 683 l 425 846 l -24 846 l -24 1028 l 761 1028 l 761 846 l 643 846 l 643 772 q 566 512 643 607 q 310 417 489 417 l 303 417 z "},"ल":{"ha":1269,"x_min":-24,"x_max":1293,"o":"m 1024 846 l 1024 699 q 1149 585 1103 663 q 1196 393 1196 507 q 1154 211 1196 290 q 1031 87 1113 132 q 836 42 950 42 q 789 43 808 42 l 789 233 l 826 231 q 935 274 894 231 q 975 390 975 317 q 942 496 975 456 q 850 536 910 536 q 756 490 786 536 q 725 372 725 444 l 725 339 l 544 339 l 544 372 q 514 490 544 443 q 422 536 483 536 q 328 497 361 536 q 294 390 294 457 q 335 274 294 317 q 443 231 375 231 l 481 233 l 481 43 q 433 42 461 42 q 238 87 319 42 q 115 211 157 132 q 74 393 74 290 q 117 578 74 503 q 231 690 160 653 q 390 728 303 728 q 542 684 483 728 q 632 569 601 640 l 636 569 q 810 719 690 692 l 810 846 l -24 846 l -24 1028 l 1293 1028 l 1293 846 l 1024 846 z "},"व":{"ha":926,"x_min":-24,"x_max":950,"o":"m 950 1028 l 950 846 l 814 846 l 814 0 l 601 0 l 601 186 q 510 112 565 138 q 385 86 456 86 q 219 129 289 86 q 111 249 149 172 q 74 421 74 325 q 111 587 74 514 q 219 701 149 660 q 385 743 290 743 q 510 718 454 743 q 601 646 565 693 l 601 846 l -24 846 l -24 1028 l 950 1028 m 444 260 q 560 306 518 260 q 601 414 601 351 l 601 415 q 560 524 601 479 q 444 568 518 568 q 331 526 375 568 q 288 415 288 483 q 331 303 288 346 q 444 260 375 260 z "},"श":{"ha":1189,"x_min":93,"x_max":1213,"o":"m 313 399 l 313 301 q 338 212 313 246 q 421 178 364 178 q 494 209 468 178 q 521 290 521 240 l 521 313 l 732 313 l 733 288 q 651 69 733 149 q 426 -10 568 -10 q 182 78 271 -10 q 93 315 93 165 l 93 582 l 286 582 q 458 619 390 582 q 526 743 526 657 q 501 822 526 792 q 429 851 475 851 q 358 822 383 851 q 332 742 332 792 q 333 694 332 710 l 115 694 q 113 717 114 704 q 111 749 111 731 q 150 900 111 833 q 261 1003 189 967 q 429 1040 333 1040 q 660 958 574 1040 q 747 729 747 876 q 641 483 747 567 q 368 399 535 399 l 313 399 m 1213 1028 l 1213 846 l 1076 846 l 1076 0 l 856 0 l 856 1028 l 1213 1028 z "},"ष":{"ha":960,"x_min":-24,"x_max":983,"o":"m 983 846 l 847 846 l 847 0 l 633 0 l 633 292 q 418 206 563 206 q 178 309 263 206 q 94 581 94 413 l 94 846 l -24 846 l -24 1028 l 983 1028 l 983 846 m 633 846 l 307 846 l 633 626 l 633 846 m 464 389 q 561 415 521 389 q 619 486 601 442 l 306 696 l 306 574 q 346 440 306 490 q 464 389 386 389 z "},"स":{"ha":1150,"x_min":-24,"x_max":1174,"o":"m 1174 846 l 1038 846 l 1038 0 l 819 0 l 819 417 l 303 417 l 303 281 q 326 203 303 233 q 393 174 349 174 q 458 201 435 174 q 481 272 481 229 l 481 290 l 690 290 q 692 260 692 278 q 613 61 692 135 q 397 -12 535 -12 q 228 27 299 -12 q 123 135 158 67 q 88 292 88 204 l 88 572 l 190 572 q 342 620 297 572 q 388 754 388 668 l 388 846 l -24 846 l -24 1028 l 1174 1028 l 1174 846 m 819 846 l 606 846 l 606 754 q 572 594 606 664 l 819 594 l 819 846 z "},"ह":{"ha":813,"x_min":-24,"x_max":836,"o":"m 417 594 q 355 578 379 594 q 331 528 331 563 q 368 468 331 488 q 429 472 397 472 q 658 401 576 472 q 753 214 739 331 l 544 214 q 504 274 536 249 q 424 300 472 300 q 332 263 368 300 q 296 163 296 225 q 331 61 296 99 q 424 24 367 24 q 502 48 469 24 q 544 107 535 72 l 753 107 q 652 -84 742 -12 q 424 -156 563 -156 q 242 -116 319 -156 q 124 -3 165 -76 q 82 167 82 69 q 115 310 82 247 q 207 411 147 372 q 114 571 114 468 q 174 701 114 653 q 339 749 235 749 l 450 749 l 450 846 l -24 846 l -24 1028 l 836 1028 l 836 846 l 658 846 l 658 594 l 417 594 z "},"ळ":{"ha":1335,"x_min":-24,"x_max":1358,"o":"m 1075 846 l 1075 693 q 1210 580 1160 657 q 1261 396 1261 503 q 1219 226 1261 299 q 1103 113 1176 153 q 943 74 1031 74 q 778 116 850 74 q 671 235 706 158 l 664 235 q 557 116 629 158 q 393 74 485 74 q 231 113 304 74 q 116 226 158 153 q 74 396 74 299 q 116 567 74 493 q 231 680 158 640 q 392 719 304 719 q 665 561 575 719 l 669 561 q 863 711 738 682 l 863 846 l -24 846 l -24 1028 l 1358 1028 l 1358 846 l 1075 846 m 425 260 q 523 297 485 260 q 561 396 561 335 q 523 496 561 457 q 425 535 485 535 q 325 496 364 535 q 286 394 286 457 q 325 297 286 333 q 425 260 364 260 m 910 260 q 1010 297 971 260 q 1049 394 1049 333 q 1010 496 1049 457 q 911 535 972 535 q 812 496 850 535 q 774 396 774 457 q 811 297 774 335 q 910 260 849 260 z "},"क़":{"ha":1340,"x_min":-24,"x_max":1364,"o":"m 786 846 l 786 640 q 867 712 817 686 q 986 738 918 738 q 1136 695 1072 738 q 1233 581 1200 653 q 1267 419 1267 508 q 1230 249 1267 321 q 1128 140 1193 178 q 981 103 1064 103 q 886 114 931 103 l 886 285 q 921 281 901 281 q 1011 316 976 281 q 1046 414 1046 351 q 1010 513 1046 474 q 917 551 975 551 q 819 508 853 551 q 786 400 786 465 l 786 0 l 576 0 l 576 193 q 489 117 544 144 q 360 89 433 89 q 208 130 274 89 q 108 245 143 171 q 74 414 74 319 q 153 649 74 560 q 368 738 232 738 q 493 712 440 738 q 576 640 546 686 l 576 846 l -24 846 l -24 1028 l 1364 1028 l 1364 846 l 786 846 m 435 272 q 538 315 500 272 q 576 414 576 357 q 539 512 576 471 q 436 553 501 553 q 335 514 375 553 q 294 413 294 475 q 333 310 294 349 q 435 272 372 272 m 329 -243 q 240 -207 276 -243 q 203 -119 203 -171 q 240 -28 203 -65 q 329 10 276 10 q 420 -28 383 10 q 457 -119 457 -65 q 420 -208 457 -172 q 329 -243 383 -243 z "},"ख़":{"ha":1333,"x_min":-24,"x_max":1357,"o":"m 1357 1028 l 1357 846 l 1221 846 l 1221 0 l 1004 0 l 1004 219 q 840 154 946 154 q 797 157 825 154 q 667 35 747 81 q 482 -10 588 -10 q 195 94 300 -10 q 90 383 90 197 l 90 560 l 126 560 q 268 603 222 560 q 314 740 314 646 l 314 846 l -24 846 l -24 1028 l 1357 1028 m 488 179 q 638 247 590 179 q 574 443 574 329 q 608 588 574 524 q 703 690 642 653 q 840 726 764 726 q 1004 660 947 726 l 1004 846 l 532 846 l 532 710 q 472 498 532 575 q 307 408 411 421 l 307 357 q 354 228 307 278 q 488 179 401 179 m 889 321 q 974 356 943 321 q 1004 442 1004 390 q 975 526 1004 490 q 889 561 946 561 q 803 529 838 561 q 768 443 768 497 q 802 353 768 385 q 889 321 836 321 m 450 -337 q 360 -301 397 -337 q 324 -214 324 -265 q 360 -122 324 -160 q 450 -85 397 -85 q 541 -122 504 -85 q 578 -214 578 -160 q 541 -302 578 -267 q 450 -337 504 -337 z "},"ग़":{"ha":1131,"x_min":-24,"x_max":1156,"o":"m 1156 1028 l 1156 846 l 1019 846 l 1019 0 l 801 0 l 801 846 l 626 846 l 626 532 q 556 317 626 399 q 342 235 485 235 q 126 309 203 235 q 50 521 50 383 q 51 565 50 551 l 263 565 l 263 522 q 336 421 263 421 q 407 524 407 421 l 407 846 l -24 846 l -24 1028 l 1156 1028 m 343 -99 q 253 -62 290 -99 q 217 25 217 -26 q 253 117 217 79 q 343 154 290 154 q 434 117 397 154 q 471 25 471 79 q 434 -63 471 -28 q 343 -99 397 -99 z "},"ज़":{"ha":1194,"x_min":-24,"x_max":1218,"o":"m 1218 846 l 1082 846 l 1082 0 l 864 0 l 864 492 l 704 492 l 704 450 q 666 289 704 360 q 557 178 628 218 q 390 139 486 139 q 155 224 238 139 q 72 450 72 310 l 72 678 l 292 678 l 292 456 q 317 363 292 396 q 392 329 343 329 q 465 363 439 329 q 490 456 490 396 l 490 678 l 864 678 l 864 846 l -24 846 l -24 1028 l 1218 1028 l 1218 846 m 392 -193 q 302 -157 339 -193 q 265 -69 265 -121 q 302 22 265 -15 q 392 60 339 60 q 483 22 446 60 q 519 -69 519 -15 q 483 -158 519 -122 q 392 -193 446 -193 z "},"ड़":{"ha":786,"x_min":-24,"x_max":808,"o":"m 400 590 q 335 575 361 590 q 310 526 310 560 q 333 478 310 493 q 392 463 356 463 l 454 463 q 658 404 575 463 q 740 219 740 346 q 658 39 740 106 q 428 -28 576 -28 q 174 43 272 -28 q 71 240 76 114 l 288 240 q 326 163 289 190 q 421 136 364 136 q 505 159 475 136 q 535 221 535 182 q 502 287 535 265 q 414 308 469 308 l 364 308 q 174 358 257 308 q 90 533 90 407 q 162 690 90 638 q 344 743 233 743 l 443 743 l 443 846 l -24 846 l -24 1028 l 808 1028 l 808 846 l 654 846 l 654 590 l 400 590 m 425 -360 q 335 -324 372 -360 q 299 -236 299 -287 q 335 -144 299 -182 q 425 -107 372 -107 q 516 -144 479 -107 q 553 -236 553 -182 q 516 -324 553 -289 q 425 -360 479 -360 z "},"ढ़":{"ha":910,"x_min":-24,"x_max":933,"o":"m 547 601 q 358 541 431 601 q 285 369 285 481 q 347 207 285 269 q 525 144 408 144 q 653 178 603 144 q 703 271 703 211 q 682 327 703 306 q 626 349 661 349 q 577 330 597 349 q 557 282 557 311 q 561 260 557 268 l 406 260 q 400 313 400 296 q 465 453 400 403 q 636 504 531 504 q 822 440 754 504 q 889 271 889 376 q 793 63 889 138 q 521 -12 697 -12 q 292 34 393 -12 q 132 169 190 81 q 74 378 74 257 q 126 580 74 496 q 269 708 178 664 q 476 751 360 751 l 503 751 l 503 846 l -24 846 l -24 1028 l 933 1028 l 933 846 l 708 846 l 708 601 l 547 601 m 493 -342 q 403 -306 440 -342 q 367 -218 367 -269 q 403 -126 367 -164 q 493 -89 440 -89 q 584 -126 547 -89 q 621 -218 621 -164 q 584 -306 621 -271 q 493 -342 547 -342 z "},"फ़":{"ha":1367,"x_min":-24,"x_max":1392,"o":"m 804 846 l 804 640 q 890 712 836 686 q 1015 738 944 738 q 1165 697 1101 738 q 1262 584 1228 656 q 1296 425 1296 513 q 1260 252 1296 325 q 1158 141 1224 179 q 1010 103 1093 103 q 907 117 954 103 l 907 285 q 951 279 925 279 q 1041 316 1007 279 q 1075 414 1075 353 q 1040 513 1075 474 q 946 551 1004 551 q 840 503 876 551 q 804 376 804 454 l 804 0 l 586 0 l 586 300 q 393 222 517 222 q 172 318 250 222 q 94 569 94 414 l 94 846 l -24 846 l -24 1028 l 1392 1028 l 1392 846 l 804 846 m 586 846 l 313 846 l 313 569 q 347 450 313 494 q 449 406 381 406 q 550 449 514 406 q 586 557 586 492 l 586 846 m 315 -103 q 226 -67 263 -103 q 189 21 189 -31 q 226 113 189 75 q 315 150 263 150 q 406 113 369 150 q 443 21 443 75 q 406 -67 443 -32 q 315 -103 369 -103 z "},"ऱ":{"ha":738,"x_min":-24,"x_max":761,"o":"m 303 417 l 303 278 q 324 202 303 231 q 388 174 344 174 q 449 201 426 174 q 471 272 471 229 l 471 311 l 681 311 l 681 279 q 604 67 681 146 q 392 -12 528 -12 q 226 27 294 -12 q 122 135 157 67 q 88 289 88 203 l 88 592 l 228 592 q 380 638 335 592 q 425 772 425 683 l 425 846 l -24 846 l -24 1028 l 761 1028 l 761 846 l 643 846 l 643 772 q 566 512 643 607 q 310 417 489 417 l 303 417 m 150 -294 q 60 -258 97 -294 q 24 -171 24 -222 q 60 -79 24 -117 q 150 -42 97 -42 q 241 -79 204 -42 q 278 -171 278 -117 q 241 -259 278 -224 q 150 -294 204 -294 z "},"ं":{"ha":0,"x_min":-350,"x_max":-96,"o":"m -224 1129 q -313 1166 -276 1129 q -350 1256 -350 1203 q -313 1345 -350 1308 q -224 1382 -276 1382 q -133 1345 -171 1382 q -96 1256 -96 1308 q -133 1166 -96 1203 q -224 1129 -171 1129 z "},"ँ":{"ha":0,"x_min":-565,"x_max":100,"o":"m -235 1369 q -294 1394 -269 1369 q -318 1454 -318 1419 q -294 1514 -318 1489 q -235 1539 -269 1539 q -173 1514 -197 1539 q -149 1454 -149 1489 q -173 1394 -149 1418 q -235 1369 -197 1369 m -233 1126 q -479 1204 -393 1126 q -565 1419 -565 1282 l -392 1419 q -349 1322 -392 1361 q -233 1282 -307 1282 q -117 1322 -160 1282 q -75 1419 -75 1361 l 100 1419 q 14 1204 100 1282 q -233 1126 -72 1126 z "},"ः":{"ha":389,"x_min":67,"x_max":322,"o":"m 194 524 q 104 560 142 524 q 67 650 67 597 q 104 740 67 703 q 194 776 142 776 q 285 740 247 776 q 322 650 322 703 q 285 560 322 597 q 194 524 247 524 m 194 121 q 104 158 142 121 q 67 247 67 194 q 104 337 67 300 q 194 374 142 374 q 285 337 247 374 q 322 247 322 300 q 285 158 322 194 q 194 121 247 121 z "},"ऽ":{"ha":829,"x_min":79,"x_max":717,"o":"m 79 247 l 406 247 q 462 262 443 247 q 481 301 481 276 q 454 358 481 331 q 369 431 428 386 q 266 519 307 481 q 196 612 225 557 q 167 735 167 667 q 231 883 167 832 q 401 933 296 933 l 717 933 l 717 750 l 456 750 q 389 701 389 750 q 415 645 389 672 q 499 572 440 618 q 602 486 561 525 q 673 392 643 447 q 703 268 703 336 q 636 119 703 175 q 463 64 569 64 l 79 64 l 79 247 z "},"्":{"ha":0,"x_min":-326,"x_max":76,"o":"m -326 -76 l -110 -76 l 76 -386 l -147 -386 l -326 -76 z "},"़":{"ha":0,"x_min":-519,"x_max":-265,"o":"m -393 -364 q -483 -328 -446 -364 q -519 -240 -519 -292 q -483 -149 -519 -186 q -393 -111 -446 -111 q -302 -149 -339 -111 q -265 -240 -265 -186 q -302 -328 -265 -293 q -393 -364 -339 -364 z "},"०":{"ha":906,"x_min":63,"x_max":843,"o":"m 453 1007 q 155 872 247 1007 q 63 506 63 736 q 155 140 63 275 q 453 4 247 4 q 751 140 658 4 q 843 506 843 275 q 751 872 843 736 q 453 1007 658 1007 m 453 785 q 579 712 549 785 q 610 506 610 639 q 579 299 610 372 q 453 226 549 226 q 326 299 357 226 q 296 506 296 372 q 326 712 296 639 q 453 785 357 785 z "},"१":{"ha":522,"x_min":38,"x_max":422,"o":"m 38 764 l 38 985 l 422 985 l 422 0 l 175 0 l 175 764 l 38 764 z "},"२":{"ha":793,"x_min":51,"x_max":751,"o":"m 54 190 q 99 226 96 225 q 310 408 232 338 q 440 553 388 478 q 493 696 493 628 q 467 783 493 753 q 390 814 442 814 q 281 663 285 814 l 51 663 q 102 860 54 781 q 228 976 150 939 q 403 1014 307 1014 q 588 974 514 1014 q 698 867 663 935 q 733 715 733 799 q 633 451 733 574 q 376 207 533 328 l 751 207 l 751 14 l 54 14 l 54 190 z "},"३":{"ha":840,"x_min":58,"x_max":764,"o":"m 71 728 q 168 957 76 876 q 417 1038 260 1038 q 595 1001 521 1038 q 708 903 669 965 q 746 763 746 840 q 700 613 746 671 q 593 535 654 556 l 593 529 q 718 442 672 503 q 764 285 764 381 q 724 133 764 199 q 609 29 685 67 q 429 -8 533 -8 q 163 74 263 -8 q 58 321 64 156 l 289 321 q 324 224 290 260 q 421 189 357 189 q 505 220 475 189 q 535 303 535 251 q 492 399 535 369 q 357 429 450 429 l 313 429 l 313 622 l 357 622 q 472 647 428 622 q 515 733 515 671 q 488 811 515 783 q 411 839 460 839 q 333 807 358 839 q 303 728 307 775 l 71 728 z "},"४":{"ha":940,"x_min":68,"x_max":886,"o":"m 68 181 l 68 372 l 507 1000 l 772 1000 l 772 386 l 886 386 l 886 181 l 772 181 l 772 0 l 535 0 l 535 181 l 68 181 m 551 739 l 318 386 l 551 386 l 551 739 z "},"५":{"ha":903,"x_min":117,"x_max":835,"o":"m 776 807 l 343 807 l 343 615 q 421 665 371 646 q 529 685 471 685 q 702 638 633 685 q 803 515 771 590 q 835 353 835 440 q 743 95 835 190 q 485 0 651 0 q 292 38 374 0 q 165 144 210 76 q 117 301 121 213 l 349 301 q 389 230 357 258 q 476 201 421 201 q 574 243 542 201 q 606 354 606 285 q 572 458 606 422 q 475 494 539 494 q 397 472 428 494 q 357 411 367 449 l 128 411 l 128 1015 l 776 1015 l 776 807 z "},"६":{"ha":885,"x_min":86,"x_max":813,"o":"m 564 740 q 525 817 553 792 q 446 843 497 843 q 332 774 367 843 q 296 557 297 706 q 384 633 326 606 q 511 661 442 661 q 730 575 647 661 q 813 335 813 489 q 772 157 813 233 q 652 38 731 81 q 467 -6 574 -6 q 169 128 253 -6 q 86 514 86 263 q 174 906 86 778 q 457 1035 263 1035 q 633 994 561 1035 q 741 886 704 953 q 785 740 778 819 l 564 740 m 454 474 q 355 438 394 474 q 315 338 315 403 q 352 233 315 271 q 457 196 389 196 q 553 233 518 196 q 589 333 589 269 q 554 436 589 399 q 454 474 519 474 z "},"७":{"ha":743,"x_min":40,"x_max":710,"o":"m 710 826 l 349 0 l 100 0 l 471 800 l 40 800 l 40 1001 l 710 1001 l 710 826 z "},"८":{"ha":900,"x_min":75,"x_max":825,"o":"m 229 551 q 99 769 99 621 q 138 906 99 842 q 257 1008 178 969 q 450 1047 336 1047 q 643 1008 564 1047 q 761 906 722 969 q 800 769 800 842 q 765 639 800 694 q 669 551 729 583 q 785 452 744 515 q 825 300 825 389 q 775 128 825 200 q 640 18 725 56 q 450 -19 556 -19 q 260 18 344 -19 q 125 128 175 56 q 75 300 75 200 q 115 451 75 388 q 229 551 156 515 m 450 853 q 363 821 396 853 q 331 732 331 789 q 364 646 331 678 q 450 614 397 614 q 536 646 503 614 q 569 732 569 678 q 537 821 569 789 q 450 853 504 853 m 450 449 q 344 413 385 449 q 304 313 304 376 q 343 213 304 251 q 450 175 382 175 q 555 213 517 175 q 593 313 593 251 q 554 413 593 376 q 450 449 515 449 z "},"९":{"ha":854,"x_min":72,"x_max":789,"o":"m 318 297 q 446 188 339 188 q 550 253 519 188 q 581 465 581 318 q 497 399 550 422 q 379 375 444 375 q 158 458 243 375 q 72 696 72 542 q 165 943 72 851 q 421 1035 258 1035 q 708 908 626 1035 q 789 532 789 781 q 757 235 789 351 q 649 57 725 118 q 442 -4 572 -4 q 259 38 335 -4 q 144 147 183 79 q 99 297 104 215 l 318 297 m 433 563 q 526 598 492 563 q 561 694 561 633 q 525 797 561 761 q 428 833 489 833 q 331 797 367 833 q 296 696 296 760 q 331 599 296 636 q 433 563 367 563 z "},"ॐ":{"ha":1489,"x_min":94,"x_max":1390,"o":"m 779 1251 q 720 1276 744 1251 q 696 1335 696 1300 q 720 1396 696 1371 q 779 1421 744 1421 q 840 1396 815 1421 q 864 1335 864 1371 q 840 1275 864 1299 q 779 1251 815 1251 m 781 1008 q 534 1086 619 1008 q 449 1301 449 1164 l 621 1301 q 663 1203 621 1243 q 781 1164 706 1164 q 897 1203 854 1164 q 939 1301 939 1243 l 1114 1301 q 1028 1086 1114 1164 q 781 1008 942 1008 m 1086 947 q 1318 860 1246 947 q 1390 604 1390 774 l 1390 436 q 1294 128 1390 233 q 1015 22 1199 22 q 874 36 947 22 l 874 217 q 975 207 939 207 q 1133 267 1089 207 q 1178 443 1178 326 l 1178 633 q 1157 731 1178 697 q 1086 764 1136 764 q 996 644 996 764 q 969 471 996 536 q 881 375 943 406 q 710 342 818 344 q 714 288 714 315 q 633 88 714 163 q 419 14 551 14 q 247 51 321 14 q 134 153 174 88 q 94 307 94 219 l 299 307 q 328 232 299 263 q 407 201 358 201 q 484 231 456 201 q 513 310 513 261 q 480 391 513 358 q 383 424 447 424 l 321 424 l 321 607 l 383 607 q 470 635 438 607 q 503 708 503 664 q 475 781 503 754 q 404 808 447 808 q 333 783 361 808 q 306 715 306 757 l 103 715 q 141 861 103 797 q 249 960 179 925 q 408 994 318 994 q 621 924 542 994 q 700 738 700 854 q 662 603 700 660 q 553 525 624 547 l 553 519 l 578 511 l 657 511 q 760 540 729 511 q 792 647 792 568 q 860 871 792 794 q 1086 947 929 947 z "},"॰":{"ha":661,"x_min":92,"x_max":569,"o":"m 333 700 q 503 635 438 700 q 569 467 569 569 q 503 299 569 364 q 333 235 438 235 q 208 265 264 235 q 122 347 153 294 q 92 467 92 400 q 159 635 92 569 q 333 700 226 700 m 333 571 q 254 542 285 571 q 224 467 224 513 q 254 392 224 421 q 333 364 285 364 q 407 392 378 364 q 436 467 436 421 q 407 541 436 511 q 333 571 378 571 z "},"।":{"ha":478,"x_min":204,"x_max":421,"o":"m 421 0 l 204 0 l 204 1028 l 421 1028 l 421 0 z "},"॥":{"ha":857,"x_min":204,"x_max":799,"o":"m 421 0 l 204 0 l 204 1028 l 421 1028 l 421 0 m 799 0 l 582 0 l 582 1028 l 799 1028 l 799 0 z "},"₨":{"ha":1653,"x_min":86,"x_max":1579,"o":"m 843 669 q 786 493 843 569 q 618 388 729 417 l 851 0 l 582 0 l 371 371 l 324 371 l 324 0 l 86 0 l 86 975 l 485 975 q 681 935 600 975 q 803 825 763 894 q 843 669 843 756 m 1121 543 q 1160 492 1121 508 q 1283 458 1199 475 q 1435 418 1376 439 q 1536 351 1493 397 q 1579 228 1579 306 q 1541 104 1579 158 q 1432 19 1503 50 q 1265 -11 1361 -11 q 1018 57 1113 -11 q 907 253 924 125 l 1143 253 q 1181 190 1147 211 q 1264 168 1214 168 q 1335 185 1311 168 q 1360 232 1360 203 q 1320 285 1360 268 q 1194 319 1281 303 q 1046 356 1104 336 q 945 422 988 376 q 903 546 903 467 q 940 666 903 611 q 1051 753 978 721 q 1225 786 1125 786 q 1465 715 1375 786 q 1571 522 1554 643 l 1335 522 q 1297 585 1329 563 q 1217 607 1265 607 q 1147 590 1172 607 q 1121 543 1121 572 m 324 538 l 471 538 q 569 569 536 538 q 601 658 601 600 q 569 748 601 715 q 471 781 536 781 l 324 781 l 324 538 z "},"₹":{"ha":831,"x_min":53,"x_max":788,"o":"m 669 815 l 669 732 l 788 732 l 788 588 l 661 588 q 553 399 639 464 q 301 335 467 335 l 301 279 q 322 195 301 225 q 394 165 343 165 q 464 194 443 165 q 485 282 485 224 l 704 282 q 622 64 699 142 q 400 -14 544 -14 q 162 67 244 -14 q 79 311 79 149 l 79 490 q 292 497 224 490 q 395 523 361 503 q 440 588 429 543 l 53 588 l 53 732 l 447 732 l 447 815 l 53 815 l 53 975 l 788 975 l 788 815 l 669 815 z "},"‌":{"ha":0,"x_min":-32,"x_max":33,"o":"m -32 -319 l -32 1126 l 33 1126 l 33 -319 l -32 -319 z "},"‍":{"ha":0,"x_min":-178,"x_max":178,"o":"m 132 778 l 32 882 l 32 -319 l -33 -319 l -33 882 l -129 781 l -175 826 l -46 956 l -178 1088 l -132 1133 l 0 1001 l 133 1133 l 178 1089 l 44 956 l 178 824 l 132 778 z "},"◌":{"ha":904,"x_min":69,"x_max":835,"o":"m 478 692 q 461 649 478 665 q 418 633 444 633 q 375 649 392 633 q 358 692 358 665 q 375 734 358 718 q 418 750 392 750 q 461 734 444 750 q 478 692 478 718 m 646 671 q 629 628 646 644 q 586 613 613 613 q 543 628 560 613 q 526 671 526 644 q 543 713 526 697 q 586 729 560 729 q 629 713 613 729 q 646 671 646 697 m 315 633 q 299 591 315 607 q 256 575 282 575 q 213 591 229 575 q 196 633 196 607 q 213 676 196 660 q 256 692 229 692 q 299 676 282 692 q 315 633 315 660 m 774 568 q 757 526 774 542 q 714 510 740 510 q 671 526 688 510 q 654 568 654 542 q 671 610 654 594 q 714 626 688 626 q 757 610 740 626 q 774 568 774 594 m 210 496 q 193 453 210 469 q 150 438 176 438 q 107 453 124 438 q 90 496 90 469 q 107 538 90 522 q 150 554 124 554 q 193 538 176 554 q 210 496 210 522 m 835 410 q 818 367 835 383 q 775 351 801 351 q 732 367 749 351 q 715 410 715 383 q 732 452 715 436 q 775 468 749 468 q 818 452 801 468 q 835 410 835 436 m 189 328 q 172 285 189 301 q 129 269 156 269 q 86 285 103 269 q 69 328 69 301 q 86 370 69 354 q 129 386 103 386 q 172 370 156 386 q 189 328 189 354 m 821 243 q 804 201 821 217 q 761 185 788 185 q 718 201 735 185 q 701 243 701 217 q 718 285 701 269 q 761 301 735 301 q 804 285 788 301 q 821 243 821 269 m 251 171 q 235 128 251 144 q 192 113 218 113 q 149 128 165 113 q 132 171 132 144 q 149 213 132 197 q 192 229 165 229 q 235 213 218 229 q 251 171 251 197 m 719 110 q 703 67 719 83 q 660 51 686 51 q 617 67 633 51 q 600 110 600 83 q 617 152 600 136 q 660 168 633 168 q 703 152 686 168 q 719 110 719 136 m 388 65 q 371 23 388 39 q 328 7 354 7 q 285 23 301 7 q 268 65 268 39 q 285 108 268 92 q 328 124 301 124 q 371 108 354 124 q 388 65 388 92 m 560 46 q 543 3 560 19 q 500 -12 526 -12 q 457 3 474 -12 q 440 46 440 19 q 457 88 440 72 q 500 104 474 104 q 543 88 526 104 q 560 46 560 72 z "},"!":{"ha":544,"x_min":132,"x_max":414,"o":"m 399 1010 l 371 344 l 169 344 l 142 1010 l 399 1010 m 274 -11 q 172 26 211 -11 q 132 117 132 63 q 172 210 132 172 q 274 247 211 247 q 374 210 335 247 q 414 117 414 172 q 374 26 414 63 q 274 -11 335 -11 z "},"\"":{"ha":571,"x_min":56,"x_max":515,"o":"m 251 1111 l 233 804 l 74 804 l 56 1111 l 251 1111 m 515 1111 l 497 804 l 338 804 l 319 1111 l 515 1111 z "},"#":{"ha":1256,"x_min":28,"x_max":1210,"o":"m 993 608 l 954 426 l 1121 426 l 1121 213 l 908 213 l 863 0 l 640 0 l 686 213 l 456 213 l 410 0 l 188 0 l 233 213 l 28 213 l 28 426 l 279 426 l 318 608 l 117 608 l 117 822 l 363 822 l 407 1028 l 629 1028 l 585 822 l 815 822 l 860 1028 l 1082 1028 l 1038 822 l 1210 822 l 1210 608 l 993 608 m 771 608 l 540 608 l 501 426 l 732 426 l 771 608 z "},"$":{"ha":914,"x_min":61,"x_max":824,"o":"m 824 283 q 783 141 824 207 q 665 35 743 75 q 478 -10 586 -6 l 478 -121 l 403 -121 l 403 -8 q 161 81 254 4 q 63 288 68 157 l 315 288 q 403 179 324 199 l 403 399 q 226 453 290 428 q 111 538 161 479 q 61 699 61 597 q 106 847 61 783 q 228 947 150 911 q 403 988 306 982 l 403 1100 l 478 1100 l 478 988 q 713 904 625 978 q 810 699 800 831 l 556 699 q 478 799 547 776 l 478 582 l 506 574 q 668 519 604 547 q 778 435 732 492 q 824 283 824 378 m 313 710 q 335 649 313 674 q 403 607 358 625 l 403 804 q 337 775 361 799 q 313 710 313 751 m 478 175 q 549 208 522 182 q 575 275 575 235 q 550 335 575 311 q 478 375 525 358 l 478 175 z "},"%":{"ha":1131,"x_min":42,"x_max":1089,"o":"m 42 758 q 106 931 42 869 q 274 992 171 992 q 440 931 376 992 q 504 758 504 869 q 440 586 504 647 q 274 525 376 525 q 106 586 171 525 q 42 758 42 647 m 947 978 l 413 0 l 183 0 l 718 978 l 947 978 m 272 851 q 206 758 206 851 q 272 665 206 665 q 322 688 304 665 q 340 758 340 711 q 322 828 340 806 q 272 851 304 851 m 626 219 q 691 392 626 331 q 858 453 756 453 q 1025 392 961 453 q 1089 219 1089 331 q 1025 47 1089 108 q 858 -14 961 -14 q 691 47 756 -14 q 626 219 626 108 m 857 313 q 790 219 790 313 q 857 126 790 126 q 907 149 889 126 q 925 219 925 172 q 907 290 925 267 q 857 313 889 313 z "},"&":{"ha":957,"x_min":42,"x_max":950,"o":"m 699 0 l 614 117 q 506 25 574 60 q 356 -10 439 -10 q 190 31 261 -10 q 80 140 118 71 q 42 293 42 208 q 106 486 42 407 q 267 582 169 565 q 215 674 232 629 q 199 769 199 719 q 232 888 199 832 q 330 976 265 943 q 485 1010 394 1010 q 683 953 610 1010 q 772 810 756 896 q 781 733 781 772 q 778 688 781 703 l 553 688 q 556 744 558 713 q 536 794 554 775 q 488 813 518 813 q 442 794 460 813 q 425 750 425 776 q 434 710 425 731 q 465 660 443 690 l 950 0 l 699 0 m 357 186 q 436 218 404 186 q 468 299 468 250 q 436 377 468 346 q 357 408 404 408 q 278 377 310 408 q 247 299 247 346 q 278 218 247 250 q 357 186 310 186 z "},"'":{"ha":307,"x_min":56,"x_max":251,"o":"m 251 1111 l 233 804 l 74 804 l 56 1111 l 251 1111 z "},"(":{"ha":667,"x_min":93,"x_max":706,"o":"m 471 -260 q 197 83 301 -132 q 93 558 93 299 q 197 1033 93 818 q 471 1376 301 1249 l 706 1376 l 706 1354 q 417 994 513 1196 q 322 558 322 793 q 417 122 322 324 q 706 -237 513 -79 l 706 -260 l 471 -260 z "},")":{"ha":669,"x_min":-36,"x_max":576,"o":"m 199 1376 q 472 1034 368 1249 q 576 560 576 819 q 472 84 576 299 q 199 -260 368 -131 l -36 -260 l -36 -237 q 252 122 157 -79 q 347 558 347 324 q 252 994 347 793 q -36 1354 157 1196 l -36 1376 l 199 1376 z "},"*":{"ha":742,"x_min":103,"x_max":643,"o":"m 565 965 l 643 824 l 472 764 l 643 706 l 560 558 l 421 681 l 456 500 l 293 500 l 326 681 l 189 557 l 103 707 l 274 767 l 104 822 l 183 965 l 328 844 l 292 1028 l 457 1028 l 421 844 l 565 965 z "},"+":{"ha":872,"x_min":82,"x_max":790,"o":"m 790 378 l 550 378 l 550 132 l 322 132 l 322 378 l 82 378 l 82 593 l 322 593 l 322 840 l 550 840 l 550 593 l 790 593 l 790 378 z "},",":{"ha":403,"x_min":26,"x_max":358,"o":"m 358 240 l 182 -210 l 26 -210 l 115 240 l 358 240 z "},"-":{"ha":806,"x_min":72,"x_max":683,"o":"m 683 586 l 683 389 l 72 389 l 72 586 l 683 586 z "},".":{"ha":392,"x_min":56,"x_max":338,"o":"m 197 -11 q 95 26 135 -11 q 56 117 56 63 q 95 210 56 172 q 197 247 135 247 q 298 210 258 247 q 338 117 338 172 q 298 26 338 63 q 197 -11 258 -11 z "},"/":{"ha":629,"x_min":14,"x_max":615,"o":"m 615 1319 l 243 -260 l 14 -260 l 386 1319 l 615 1319 z "},":":{"ha":394,"x_min":56,"x_max":338,"o":"m 197 -11 q 95 26 135 -11 q 56 117 56 63 q 95 210 56 172 q 197 247 135 247 q 298 210 258 247 q 338 117 338 172 q 298 26 338 63 q 197 -11 258 -11 m 197 554 q 95 591 135 554 q 56 682 56 628 q 95 775 56 738 q 197 813 135 813 q 298 775 258 813 q 338 682 338 738 q 298 591 338 628 q 197 554 258 554 z "},";":{"ha":482,"x_min":60,"x_max":392,"o":"m 238 543 q 135 580 175 543 q 96 671 96 617 q 135 764 96 726 q 238 801 175 801 q 338 764 299 801 q 378 671 378 726 q 338 580 378 617 q 238 543 299 543 m 392 240 l 215 -210 l 60 -210 l 149 240 l 392 240 z "},"<":{"ha":765,"x_min":79,"x_max":660,"o":"m 361 179 l 79 486 l 361 793 l 660 793 l 376 486 l 660 179 l 361 179 z "},"=":{"ha":967,"x_min":94,"x_max":872,"o":"m 872 769 l 872 556 l 94 556 l 94 769 l 872 769 m 872 415 l 872 201 l 94 201 l 94 415 l 872 415 z "},">":{"ha":751,"x_min":88,"x_max":668,"o":"m 88 793 l 386 793 l 668 486 l 386 179 l 88 179 l 371 486 l 88 793 z "},"?":{"ha":747,"x_min":36,"x_max":699,"o":"m 371 1029 q 609 951 519 1029 q 699 732 699 874 q 613 528 699 601 q 388 454 528 456 l 381 350 l 172 350 l 165 608 l 249 608 q 412 635 356 608 q 468 731 468 661 q 442 807 468 779 q 368 835 415 835 q 290 806 318 835 q 263 729 263 778 l 39 729 q 74 882 36 814 q 188 990 113 950 q 371 1029 264 1029 m 279 -11 q 177 26 217 -11 q 138 117 138 63 q 177 210 138 172 q 279 247 217 247 q 380 210 340 247 q 419 117 419 172 q 380 26 419 63 q 279 -11 340 -11 z "},"@":{"ha":1774,"x_min":64,"x_max":1725,"o":"m 997 1138 q 1379 1063 1215 1138 q 1634 847 1543 989 q 1725 504 1725 704 q 1663 244 1725 363 q 1498 58 1600 126 q 1282 -10 1396 -10 q 1125 35 1185 -10 q 1050 163 1065 81 q 774 -10 954 -10 q 622 31 689 -10 q 517 147 556 72 q 479 318 479 221 q 483 386 479 351 q 563 592 499 503 q 726 732 626 682 q 942 782 825 782 q 1113 747 1038 782 q 1230 646 1188 713 q 1272 486 1272 579 q 1268 431 1272 460 l 1249 283 q 1247 256 1247 274 q 1260 210 1247 224 q 1300 196 1274 196 q 1384 231 1342 196 q 1455 336 1426 267 q 1483 499 1483 406 q 1422 734 1483 633 q 1244 890 1361 835 q 963 946 1126 946 q 609 861 760 946 q 378 631 458 776 q 297 306 297 485 q 360 47 297 157 q 551 -124 424 -64 q 863 -185 678 -185 l 817 -376 q 413 -290 582 -374 q 153 -53 243 -206 q 64 306 64 99 q 190 746 64 557 q 531 1036 317 935 q 997 1138 744 1138 m 1036 388 q 1039 424 1039 413 q 998 538 1039 499 q 900 578 957 578 q 812 552 856 578 q 740 474 768 526 q 711 349 711 422 q 752 235 711 275 q 850 196 793 196 q 930 217 890 196 q 999 282 969 239 q 1036 388 1028 325 z "},"A":{"ha":1024,"x_min":22,"x_max":1003,"o":"m 693 172 l 329 172 l 271 0 l 22 0 l 375 975 l 650 975 l 1003 0 l 751 0 l 693 172 m 633 353 l 511 713 l 390 353 l 633 353 z "},"B":{"ha":915,"x_min":86,"x_max":864,"o":"m 676 500 q 813 416 761 482 q 864 265 864 350 q 778 72 864 143 q 540 0 693 0 l 86 0 l 86 975 l 525 975 q 758 907 674 975 q 842 722 842 839 q 797 579 842 636 q 676 500 751 522 m 324 579 l 479 579 q 569 606 538 579 q 600 682 600 632 q 569 760 600 733 q 479 788 538 788 l 324 788 l 324 579 m 499 189 q 591 217 558 189 q 624 297 624 244 q 590 378 624 349 q 496 408 556 408 l 324 408 l 324 189 l 499 189 z "},"C":{"ha":1058,"x_min":46,"x_max":999,"o":"m 46 489 q 108 747 46 633 q 283 923 171 860 q 536 986 394 986 q 833 894 710 986 q 999 644 957 803 l 738 644 q 654 735 707 704 q 533 767 601 767 q 356 691 424 767 q 288 489 288 615 q 356 286 288 363 q 533 210 424 210 q 654 242 601 210 q 738 333 707 274 l 999 333 q 833 84 957 175 q 536 -7 710 -7 q 283 56 394 -7 q 108 232 171 119 q 46 489 46 344 z "},"D":{"ha":1010,"x_min":86,"x_max":963,"o":"m 451 975 q 721 914 606 975 q 899 742 836 853 q 963 488 963 632 q 899 233 963 344 q 720 61 836 122 q 451 0 604 0 l 86 0 l 86 975 l 451 975 m 436 203 q 646 278 571 203 q 721 488 721 353 q 646 697 721 622 q 436 772 571 772 l 324 772 l 324 203 l 436 203 z "},"E":{"ha":751,"x_min":86,"x_max":683,"o":"m 324 788 l 324 585 l 642 585 l 642 406 l 324 406 l 324 188 l 683 188 l 683 0 l 86 0 l 86 975 l 683 975 l 683 788 l 324 788 z "},"F":{"ha":760,"x_min":86,"x_max":721,"o":"m 721 975 l 721 788 l 324 788 l 324 578 l 621 578 l 621 397 l 324 397 l 324 0 l 86 0 l 86 975 l 721 975 z "},"G":{"ha":1058,"x_min":46,"x_max":1013,"o":"m 46 489 q 109 747 46 633 q 285 923 172 860 q 542 986 397 986 q 837 901 717 986 q 996 667 957 817 l 733 667 q 658 741 707 715 q 542 767 608 767 q 357 691 426 767 q 288 489 288 615 q 360 278 288 354 q 561 203 433 203 q 710 248 649 203 q 797 376 771 293 l 496 376 l 496 550 l 1013 550 l 1013 329 q 923 164 986 240 q 763 40 860 88 q 543 -7 665 -7 q 285 56 399 -7 q 109 232 172 119 q 46 489 46 344 z "},"H":{"ha":1015,"x_min":86,"x_max":931,"o":"m 931 975 l 931 0 l 693 0 l 693 404 l 324 404 l 324 0 l 86 0 l 86 975 l 324 975 l 324 592 l 693 592 l 693 975 l 931 975 z "},"I":{"ha":410,"x_min":86,"x_max":324,"o":"m 324 975 l 324 0 l 86 0 l 86 975 l 324 975 z "},"J":{"ha":803,"x_min":36,"x_max":697,"o":"m 697 975 l 697 311 q 610 74 697 157 q 376 -10 524 -10 q 129 78 222 -10 q 36 326 36 165 l 272 326 q 297 234 272 265 q 369 203 322 203 q 436 231 413 203 q 460 311 460 258 l 460 975 l 697 975 z "},"K":{"ha":968,"x_min":86,"x_max":942,"o":"m 651 0 l 324 431 l 324 0 l 86 0 l 86 975 l 324 975 l 324 547 l 649 975 l 928 975 l 550 497 l 942 0 l 651 0 z "},"L":{"ha":663,"x_min":86,"x_max":635,"o":"m 324 181 l 635 181 l 635 0 l 86 0 l 86 975 l 324 975 l 324 181 z "},"M":{"ha":1275,"x_min":86,"x_max":1190,"o":"m 1190 975 l 1190 0 l 953 0 l 953 585 l 735 0 l 543 0 l 324 586 l 324 0 l 86 0 l 86 975 l 367 975 l 640 300 l 911 975 l 1190 975 z "},"N":{"ha":1044,"x_min":86,"x_max":958,"o":"m 958 0 l 721 0 l 324 601 l 324 0 l 86 0 l 86 975 l 324 975 l 721 371 l 721 975 l 958 975 l 958 0 z "},"O":{"ha":1092,"x_min":46,"x_max":1046,"o":"m 547 -10 q 295 54 410 -10 q 113 233 181 118 q 46 490 46 347 q 113 747 46 633 q 295 925 181 861 q 547 989 410 989 q 799 925 685 989 q 980 747 914 861 q 1046 490 1046 633 q 979 233 1046 347 q 799 54 913 118 q 547 -10 685 -10 m 547 210 q 734 286 664 210 q 804 490 804 363 q 734 694 804 618 q 547 771 664 771 q 359 694 429 771 q 289 490 289 618 q 359 286 289 363 q 547 210 429 210 z "},"P":{"ha":867,"x_min":86,"x_max":829,"o":"m 829 661 q 790 506 829 576 q 671 393 751 436 q 471 350 590 350 l 324 350 l 324 0 l 86 0 l 86 975 l 471 975 q 668 935 588 975 q 789 824 749 894 q 829 661 829 753 m 453 536 q 554 569 521 536 q 588 661 588 603 q 554 753 588 719 q 453 786 521 786 l 324 786 l 324 536 l 453 536 z "},"Q":{"ha":1094,"x_min":46,"x_max":1068,"o":"m 781 -167 l 656 1 q 547 -10 600 -10 q 295 54 410 -10 q 113 233 181 118 q 46 490 46 347 q 113 747 46 633 q 295 925 181 861 q 547 989 410 989 q 799 925 685 989 q 980 747 914 861 q 1046 490 1046 633 q 995 262 1046 365 q 854 90 944 158 l 1068 -167 l 781 -167 m 289 490 q 359 286 289 363 q 547 210 429 210 q 734 286 664 210 q 804 490 804 363 q 734 694 804 618 q 547 771 664 771 q 359 694 429 771 q 289 490 289 618 z "},"R":{"ha":906,"x_min":86,"x_max":851,"o":"m 583 0 l 381 368 l 324 368 l 324 0 l 86 0 l 86 975 l 485 975 q 681 935 600 975 q 803 824 763 894 q 843 668 843 754 q 788 494 843 571 q 626 386 733 418 l 851 0 l 583 0 m 324 536 l 471 536 q 569 568 536 536 q 601 658 601 600 q 569 748 601 715 q 471 781 536 781 l 324 781 l 324 536 z "},"S":{"ha":854,"x_min":58,"x_max":794,"o":"m 439 -10 q 247 25 332 -10 q 112 128 163 60 q 58 292 61 196 l 311 292 q 349 207 317 236 q 432 178 381 178 q 515 203 485 178 q 546 272 546 229 q 522 332 546 308 q 462 371 497 356 q 361 406 426 386 q 207 464 267 435 q 104 550 147 493 q 61 699 61 607 q 160 912 61 835 q 417 989 258 989 q 676 912 578 989 q 782 697 775 835 l 525 697 q 491 774 522 747 q 408 801 460 801 q 339 778 365 801 q 313 710 313 754 q 357 636 313 663 q 496 579 401 610 q 649 518 590 547 q 751 433 708 489 q 794 290 794 378 q 752 139 794 207 q 629 31 710 71 q 439 -10 549 -10 z "},"T":{"ha":821,"x_min":33,"x_max":788,"o":"m 788 975 l 788 788 l 529 788 l 529 0 l 292 0 l 292 788 l 33 788 l 33 975 l 788 975 z "},"U":{"ha":979,"x_min":82,"x_max":899,"o":"m 319 975 l 319 393 q 363 258 319 306 q 489 211 406 211 q 617 258 572 211 q 661 393 661 306 l 661 975 l 899 975 l 899 393 q 843 172 899 263 q 694 36 788 82 q 485 -10 600 -10 q 278 35 369 -10 q 135 172 188 81 q 82 393 82 263 l 82 975 l 319 975 z "},"V":{"ha":1014,"x_min":13,"x_max":1001,"o":"m 265 975 l 507 239 l 749 975 l 1001 975 l 656 0 l 358 0 l 13 975 l 265 975 z "},"W":{"ha":1461,"x_min":35,"x_max":1428,"o":"m 1428 975 l 1174 0 l 886 0 l 731 642 l 569 0 l 282 0 l 35 975 l 289 975 l 429 265 l 603 975 l 864 975 l 1031 265 l 1172 975 l 1428 975 z "},"X":{"ha":993,"x_min":33,"x_max":960,"o":"m 683 0 l 485 299 l 310 0 l 40 0 l 353 496 l 33 975 l 310 975 l 506 681 l 678 975 l 947 975 l 638 483 l 960 0 l 683 0 z "},"Y":{"ha":932,"x_min":10,"x_max":922,"o":"m 922 975 l 585 322 l 585 0 l 347 0 l 347 322 l 10 975 l 279 975 l 468 568 l 656 975 l 922 975 z "},"Z":{"ha":828,"x_min":69,"x_max":758,"o":"m 339 194 l 758 194 l 758 0 l 69 0 l 69 181 l 486 781 l 69 781 l 69 975 l 758 975 l 758 794 l 339 194 z "},"[":{"ha":708,"x_min":167,"x_max":583,"o":"m 583 1319 l 583 1126 l 389 1126 l 389 -68 l 583 -68 l 583 -261 l 167 -261 l 167 1319 l 583 1319 z "},"\\":{"ha":1114,"x_min":254,"x_max":856,"o":"m 626 -260 l 254 1319 l 483 1319 l 856 -260 l 626 -260 z "},"]":{"ha":706,"x_min":124,"x_max":540,"o":"m 124 -261 l 124 -68 l 318 -68 l 318 1126 l 124 1126 l 124 1319 l 540 1319 l 540 -261 l 124 -261 z "},"^":{"ha":985,"x_min":42,"x_max":943,"o":"m 281 229 l 42 229 l 378 978 l 608 978 l 943 229 l 704 229 l 493 703 l 281 229 z "},"_":{"ha":1083,"x_min":118,"x_max":979,"o":"m 979 -57 l 979 -285 l 118 -285 l 118 -57 l 979 -57 z "},"`":{"ha":404,"x_min":14,"x_max":349,"o":"m 349 992 l 349 828 l 14 968 l 14 1153 l 349 992 z "},"a":{"ha":943,"x_min":39,"x_max":857,"o":"m 39 389 q 84 599 39 508 q 207 738 129 689 q 381 786 285 786 q 524 753 463 786 q 619 665 586 719 l 619 775 l 857 775 l 857 0 l 619 0 l 619 110 q 523 22 585 56 q 379 -11 461 -11 q 207 38 285 -11 q 84 178 129 88 q 39 389 39 269 m 619 388 q 570 528 619 476 q 450 579 521 579 q 330 528 379 579 q 281 389 281 478 q 330 248 281 300 q 450 196 379 196 q 570 247 521 196 q 619 388 619 299 z "},"b":{"ha":943,"x_min":86,"x_max":904,"o":"m 324 665 q 419 753 357 719 q 563 786 482 786 q 736 738 658 786 q 859 599 814 689 q 904 389 904 508 q 859 178 904 269 q 736 38 814 88 q 563 -11 658 -11 q 419 22 481 -11 q 324 108 358 54 l 324 0 l 86 0 l 86 1028 l 324 1028 l 324 665 m 663 389 q 613 528 663 478 q 492 579 564 579 q 372 528 421 579 q 322 388 322 476 q 372 247 322 299 q 492 196 421 196 q 613 248 563 196 q 663 389 663 300 z "},"c":{"ha":840,"x_min":39,"x_max":800,"o":"m 39 388 q 88 599 39 508 q 226 738 138 689 q 428 786 314 786 q 672 710 574 786 q 800 494 769 633 l 547 494 q 424 583 515 583 q 319 533 358 583 q 281 388 281 482 q 319 242 281 293 q 424 192 358 192 q 547 281 515 192 l 800 281 q 671 67 769 144 q 428 -11 572 -11 q 226 38 314 -11 q 88 176 138 86 q 39 388 39 267 z "},"d":{"ha":943,"x_min":39,"x_max":857,"o":"m 39 389 q 84 599 39 508 q 207 738 129 689 q 381 786 285 786 q 520 754 457 786 q 619 668 583 722 l 619 1028 l 857 1028 l 857 0 l 619 0 l 619 111 q 524 22 586 56 q 381 -11 463 -11 q 207 38 285 -11 q 84 178 129 88 q 39 389 39 269 m 619 388 q 570 528 619 476 q 450 579 521 579 q 330 528 379 579 q 281 389 281 478 q 330 248 281 300 q 450 196 379 196 q 570 247 521 196 q 619 388 619 299 z "},"e":{"ha":856,"x_min":39,"x_max":817,"o":"m 817 401 q 813 333 817 369 l 275 333 q 321 221 281 260 q 422 182 361 182 q 546 257 511 182 l 799 257 q 728 119 779 181 q 601 24 678 58 q 431 -11 525 -11 q 228 38 317 -11 q 89 176 139 86 q 39 388 39 267 q 88 599 39 508 q 226 738 138 689 q 431 786 315 786 q 631 739 543 786 q 767 604 718 692 q 817 401 817 517 m 574 454 q 532 558 574 521 q 428 596 490 596 q 326 559 367 596 q 275 454 285 522 l 574 454 z "},"f":{"ha":500,"x_min":24,"x_max":475,"o":"m 475 578 l 347 578 l 347 0 l 110 0 l 110 578 l 24 578 l 24 775 l 110 775 l 110 797 q 192 1015 110 940 q 432 1089 274 1089 q 471 1088 458 1089 l 471 886 q 375 867 403 890 q 347 782 347 843 l 347 775 l 475 775 l 475 578 z "},"g":{"ha":943,"x_min":39,"x_max":857,"o":"m 381 786 q 524 753 463 786 q 619 665 586 719 l 619 775 l 857 775 l 857 1 q 815 -192 857 -106 q 685 -331 772 -279 q 469 -382 599 -382 q 190 -301 297 -382 q 68 -81 83 -219 l 303 -81 q 356 -151 314 -125 q 458 -176 397 -176 q 576 -134 532 -176 q 619 1 619 -92 l 619 111 q 524 23 585 57 q 381 -11 463 -11 q 207 38 285 -11 q 84 178 129 88 q 39 389 39 269 q 84 599 39 508 q 207 738 129 689 q 381 786 285 786 m 619 388 q 570 528 619 476 q 450 579 521 579 q 330 528 379 579 q 281 389 281 478 q 330 248 281 300 q 450 196 379 196 q 570 247 521 196 q 619 388 619 299 z "},"h":{"ha":936,"x_min":86,"x_max":857,"o":"m 563 783 q 776 695 696 783 q 857 453 857 607 l 857 0 l 621 0 l 621 421 q 581 542 621 499 q 472 585 540 585 q 364 542 404 585 q 324 421 324 499 l 324 0 l 86 0 l 86 1028 l 324 1028 l 324 671 q 422 753 360 722 q 563 783 485 783 z "},"i":{"ha":410,"x_min":64,"x_max":346,"o":"m 206 856 q 103 892 143 856 q 64 983 64 929 q 103 1076 64 1039 q 206 1113 143 1113 q 306 1076 267 1113 q 346 983 346 1039 q 306 892 346 929 q 206 856 267 856 m 324 775 l 324 0 l 86 0 l 86 775 l 324 775 z "},"j":{"ha":408,"x_min":-43,"x_max":344,"o":"m 204 856 q 102 892 142 856 q 63 983 63 929 q 102 1076 63 1039 q 204 1113 142 1113 q 305 1076 265 1113 q 344 983 344 1039 q 305 892 344 929 q 204 856 265 856 m 324 -100 q 251 -306 324 -243 q 50 -369 179 -369 l -43 -369 l -43 -168 l 14 -168 q 69 -153 53 -168 q 86 -103 86 -137 l 86 775 l 324 775 l 324 -100 z "},"k":{"ha":858,"x_min":86,"x_max":854,"o":"m 560 0 l 324 325 l 324 0 l 86 0 l 86 1028 l 324 1028 l 324 460 l 558 775 l 851 775 l 529 386 l 854 0 l 560 0 z "},"l":{"ha":410,"x_min":86,"x_max":324,"o":"m 324 1028 l 324 0 l 86 0 l 86 1028 l 324 1028 z "},"m":{"ha":1471,"x_min":86,"x_max":1390,"o":"m 1075 783 q 1305 696 1219 783 q 1390 453 1390 608 l 1390 0 l 1154 0 l 1154 421 q 1115 537 1154 496 q 1006 578 1075 578 q 897 537 936 578 q 857 421 857 496 l 857 0 l 621 0 l 621 421 q 581 537 621 496 q 472 578 542 578 q 363 537 403 578 q 324 421 324 496 l 324 0 l 86 0 l 86 775 l 324 775 l 324 678 q 418 755 360 726 q 550 783 476 783 q 706 746 638 783 q 814 639 775 708 q 924 743 854 703 q 1075 783 993 783 z "},"n":{"ha":936,"x_min":86,"x_max":857,"o":"m 558 783 q 776 695 694 783 q 857 453 857 607 l 857 0 l 621 0 l 621 421 q 581 542 621 499 q 472 585 540 585 q 364 542 404 585 q 324 421 324 499 l 324 0 l 86 0 l 86 775 l 324 775 l 324 672 q 421 753 360 724 q 558 783 482 783 z "},"o":{"ha":885,"x_min":39,"x_max":844,"o":"m 439 -11 q 234 38 325 -11 q 91 176 143 86 q 39 388 39 267 q 92 598 39 507 q 236 738 144 689 q 442 786 328 786 q 647 738 556 786 q 792 598 739 689 q 844 388 844 507 q 791 177 844 268 q 645 38 738 86 q 439 -11 553 -11 m 439 193 q 555 244 507 193 q 603 388 603 294 q 556 531 603 481 q 442 582 510 582 q 326 532 372 582 q 281 388 281 482 q 326 244 281 294 q 439 193 371 193 z "},"p":{"ha":943,"x_min":86,"x_max":904,"o":"m 324 665 q 419 753 358 719 q 563 786 481 786 q 736 738 658 786 q 859 599 814 689 q 904 389 904 508 q 859 178 904 269 q 736 38 814 88 q 563 -11 658 -11 q 420 22 482 -11 q 324 108 358 56 l 324 -369 l 86 -369 l 86 775 l 324 775 l 324 665 m 663 389 q 613 528 663 478 q 492 579 564 579 q 372 528 421 579 q 322 388 322 476 q 372 247 322 299 q 492 196 421 196 q 613 248 563 196 q 663 389 663 300 z "},"q":{"ha":943,"x_min":39,"x_max":857,"o":"m 39 386 q 87 592 39 501 q 216 733 135 682 q 393 783 297 783 q 525 758 467 783 q 619 686 583 732 l 619 775 l 857 775 l 857 -369 l 619 -369 l 619 97 q 522 19 579 49 q 390 -10 464 -10 q 215 40 296 -10 q 87 181 135 90 q 39 386 39 271 m 619 388 q 595 492 619 450 q 532 556 571 535 q 450 578 493 578 q 369 556 408 578 q 306 492 331 535 q 281 386 281 449 q 306 281 281 324 q 369 217 331 239 q 450 196 408 196 q 531 217 492 196 q 595 282 571 239 q 619 388 619 325 z "},"r":{"ha":594,"x_min":86,"x_max":567,"o":"m 324 636 q 428 744 365 704 q 567 783 492 783 l 567 532 l 501 532 q 368 494 413 532 q 324 360 324 456 l 324 0 l 86 0 l 86 775 l 324 775 l 324 636 z "},"s":{"ha":775,"x_min":44,"x_max":714,"o":"m 400 -11 q 221 24 300 -11 q 96 119 142 58 q 44 254 50 179 l 279 254 q 316 185 283 211 q 399 160 349 160 q 467 178 443 160 q 492 226 492 196 q 457 276 492 260 q 343 311 422 293 q 205 351 260 331 q 110 419 150 372 q 71 543 71 465 q 108 666 71 611 q 215 753 144 721 q 385 786 286 786 q 615 714 531 786 q 711 522 699 642 l 492 522 q 456 590 486 565 q 378 614 426 614 q 314 597 336 614 q 292 550 292 581 q 327 500 292 517 q 438 467 363 483 q 578 424 522 446 q 674 355 633 403 q 714 226 714 307 q 676 104 714 158 q 567 19 639 50 q 400 -11 496 -11 z "},"t":{"ha":564,"x_min":29,"x_max":518,"o":"m 518 201 l 518 0 l 397 0 q 196 63 268 0 q 124 269 124 126 l 124 578 l 29 578 l 29 775 l 124 775 l 124 964 l 361 964 l 361 775 l 517 775 l 517 578 l 361 578 l 361 267 q 378 217 361 232 q 433 201 394 201 l 518 201 z "},"u":{"ha":936,"x_min":79,"x_max":851,"o":"m 851 775 l 851 0 l 614 0 l 614 106 q 516 23 578 54 q 379 -8 454 -8 q 222 31 290 -8 q 117 146 154 71 q 79 322 79 221 l 79 775 l 315 775 l 315 354 q 356 233 315 276 q 464 190 396 190 q 574 233 533 190 q 614 354 614 276 l 614 775 l 851 775 z "},"v":{"ha":869,"x_min":13,"x_max":857,"o":"m 435 222 l 603 775 l 857 775 l 582 0 l 288 0 l 13 775 l 267 775 l 435 222 z "},"w":{"ha":1203,"x_min":6,"x_max":1199,"o":"m 1199 775 l 989 0 l 726 0 l 604 503 l 478 0 l 217 0 l 6 775 l 243 775 l 353 221 l 483 775 l 735 775 l 867 224 l 975 775 l 1199 775 z "},"x":{"ha":817,"x_min":7,"x_max":811,"o":"m 544 0 l 396 215 l 271 0 l 14 0 l 269 396 l 7 775 l 274 775 l 422 561 l 547 775 l 804 775 l 544 385 l 811 0 l 544 0 z "},"y":{"ha":878,"x_min":-1,"x_max":878,"o":"m 264 775 l 443 290 l 621 775 l 878 775 l 392 -368 l 136 -368 l 314 26 l -1 775 l 264 775 z "},"z":{"ha":689,"x_min":43,"x_max":644,"o":"m 308 196 l 644 196 l 644 0 l 43 0 l 43 189 l 365 579 l 46 579 l 46 775 l 638 775 l 638 586 l 308 196 z "},"{":{"ha":732,"x_min":125,"x_max":646,"o":"m 332 515 q 443 457 407 501 q 479 336 479 413 q 468 213 479 293 q 457 71 457 126 q 509 -159 457 -71 q 646 -279 561 -247 l 646 -301 l 419 -301 q 294 -189 353 -272 q 235 61 235 -106 q 247 199 235 121 q 258 331 258 285 q 228 428 258 386 q 125 475 197 469 l 125 558 q 228 605 199 564 q 258 703 258 646 q 247 835 258 749 q 235 972 235 913 q 294 1222 235 1139 q 419 1335 353 1306 l 646 1335 l 646 1313 q 509 1192 561 1281 q 457 963 457 1104 q 468 822 457 908 q 479 697 479 739 q 444 576 479 621 q 332 518 408 532 l 332 515 z "},"|":{"ha":404,"x_min":83,"x_max":321,"o":"m 321 -179 l 83 -179 l 83 1132 l 321 1132 l 321 -179 z "},"}":{"ha":710,"x_min":88,"x_max":610,"o":"m 401 518 q 290 573 326 532 q 254 683 254 614 q 265 807 254 726 q 276 949 276 893 q 224 1184 276 1086 q 88 1313 171 1282 l 88 1335 l 314 1335 q 439 1222 381 1306 q 497 972 497 1139 q 485 835 497 913 q 474 703 474 749 q 506 603 474 646 q 610 558 538 560 l 610 475 q 506 431 538 474 q 474 331 474 388 q 485 199 474 285 q 497 61 497 121 q 439 -189 497 -106 q 314 -301 381 -272 l 88 -301 l 88 -279 q 224 -151 171 -249 q 276 85 276 -53 q 265 226 276 140 q 254 350 254 307 q 290 460 254 419 q 401 515 326 501 l 401 518 z "},"~":{"ha":883,"x_min":39,"x_max":846,"o":"m 39 289 q 135 517 64 443 q 315 590 207 590 q 395 577 360 590 q 476 538 431 564 q 533 508 510 518 q 582 499 557 499 q 669 590 657 499 l 846 590 q 749 363 821 436 q 568 289 676 289 q 488 303 524 289 q 407 342 453 317 q 349 371 372 361 q 301 381 326 381 q 213 289 226 381 l 39 289 z "}," ":{"ha":321,"x_min":0,"x_max":0,"o":""},"¡":{"ha":544,"x_min":132,"x_max":414,"o":"m 399 -226 l 371 439 l 169 439 l 142 -226 l 399 -226 m 274 794 q 172 758 211 794 q 132 667 132 721 q 172 574 132 611 q 274 536 211 536 q 374 574 335 536 q 414 667 414 611 q 374 758 414 721 q 274 794 335 794 z "},"¢":{"ha":876,"x_min":58,"x_max":781,"o":"m 436 185 q 518 206 485 185 q 563 264 551 226 l 781 264 q 690 81 771 153 q 489 -4 610 10 l 489 -118 l 379 -118 l 379 -4 q 143 107 228 11 q 58 356 58 203 q 143 604 58 508 q 379 715 228 700 l 379 829 l 489 829 l 489 715 q 690 630 610 701 q 781 447 771 558 l 563 447 q 436 526 536 526 q 325 481 365 526 q 285 356 285 436 q 325 230 285 275 q 436 185 365 185 z "},"£":{"ha":921,"x_min":50,"x_max":817,"o":"m 817 181 l 817 -6 l 108 -6 l 75 111 q 171 235 140 169 q 201 396 201 300 l 201 399 l 50 399 l 50 558 l 163 558 q 136 732 136 653 q 178 896 136 826 q 297 1001 221 965 q 472 1038 374 1038 q 719 950 633 1038 q 811 722 806 863 l 593 722 q 563 810 590 778 q 478 843 535 843 q 392 809 422 843 q 361 708 361 775 q 369 643 361 676 q 392 558 376 610 l 643 558 l 643 399 l 426 399 l 426 394 q 404 282 426 340 q 335 181 382 224 l 817 181 z "},"¤":{"ha":801,"x_min":83,"x_max":718,"o":"m 692 525 q 643 376 692 440 l 718 301 l 626 208 l 538 297 q 401 272 478 272 q 264 297 325 272 l 175 208 l 83 301 l 160 378 q 114 525 114 442 q 161 674 114 611 l 83 751 l 175 844 l 268 751 q 403 775 331 775 q 535 753 472 775 l 626 844 l 718 751 l 643 676 q 692 525 692 613 m 401 410 q 476 439 446 410 q 507 524 507 468 q 476 610 507 581 q 401 640 446 640 q 327 610 357 640 q 297 524 297 581 q 327 439 297 468 q 401 410 357 410 z "},"¥":{"ha":932,"x_min":10,"x_max":922,"o":"m 724 590 l 863 590 l 863 431 l 640 429 l 596 344 l 863 344 l 863 186 l 585 186 l 585 0 l 347 0 l 347 186 l 69 186 l 69 344 l 336 344 l 292 429 l 69 431 l 69 590 l 208 590 l 10 975 l 279 975 l 468 543 l 656 975 l 922 975 l 724 590 z "},"¦":{"ha":529,"x_min":146,"x_max":383,"o":"m 146 1132 l 383 1132 l 383 563 l 146 563 l 146 1132 m 383 -179 l 146 -179 l 146 390 l 383 390 l 383 -179 z "},"§":{"ha":815,"x_min":42,"x_max":774,"o":"m 625 131 q 724 -62 724 49 q 685 -190 724 -133 q 575 -279 647 -247 q 404 -311 503 -311 q 181 -240 264 -311 q 92 -49 97 -168 l 326 -49 q 407 -144 332 -144 q 485 -76 485 -144 q 466 -25 485 -47 q 403 21 447 -3 q 272 82 360 44 q 100 192 158 131 q 42 339 42 254 q 77 463 42 408 q 190 547 113 518 q 92 740 92 629 q 130 868 92 811 q 240 957 168 925 q 411 989 313 989 q 635 917 551 989 q 724 726 718 846 l 489 726 q 408 822 483 822 q 331 754 331 822 q 349 703 331 725 q 412 657 368 681 q 543 596 456 633 q 715 485 657 547 q 774 339 774 424 q 738 219 774 271 q 625 131 703 167 m 408 231 q 492 262 461 231 q 524 339 524 293 q 492 416 524 385 q 408 447 461 447 q 324 416 356 447 q 293 339 293 385 q 324 262 293 293 q 408 231 356 231 z "},"¨":{"ha":510,"x_min":14,"x_max":496,"o":"m 115 861 q 43 890 72 861 q 14 963 14 919 q 43 1035 14 1006 q 115 1065 72 1065 q 189 1036 160 1065 q 218 963 218 1007 q 188 890 218 919 q 115 861 158 861 m 393 861 q 321 890 350 861 q 292 963 292 919 q 321 1035 292 1006 q 393 1065 350 1065 q 467 1036 438 1065 q 496 963 496 1007 q 466 890 496 919 q 393 861 436 861 z "},"©":{"ha":1082,"x_min":53,"x_max":1031,"o":"m 1031 490 q 969 749 1031 635 q 796 926 907 863 q 542 989 685 989 q 288 926 399 989 q 115 749 176 863 q 53 490 53 635 q 115 232 53 346 q 288 54 176 118 q 542 -10 399 -10 q 796 54 685 -10 q 969 232 907 118 q 1031 490 1031 346 m 136 490 q 185 713 136 618 q 326 860 235 808 q 542 913 418 913 q 757 860 665 913 q 898 713 849 808 q 947 490 947 618 q 898 268 947 364 q 757 119 849 172 q 542 67 665 67 q 326 119 418 67 q 185 268 235 172 q 136 490 136 364 m 235 490 q 274 656 235 585 q 384 765 314 726 q 543 803 454 803 q 733 742 654 803 q 833 575 811 681 l 629 575 q 595 625 619 607 q 536 643 571 643 q 456 604 485 643 q 426 490 426 565 q 456 376 426 415 q 536 338 485 338 q 629 406 606 338 l 833 406 q 732 240 811 303 q 543 178 653 178 q 384 216 454 178 q 274 325 314 254 q 235 490 235 396 z "},"ª":{"ha":651,"x_min":35,"x_max":610,"o":"m 35 736 q 65 869 35 813 q 149 957 96 926 q 265 988 201 988 q 431 903 379 988 l 431 981 l 610 981 l 610 492 l 431 492 l 431 568 q 267 485 379 485 q 149 515 201 485 q 65 603 96 546 q 35 736 35 660 m 431 736 q 400 817 431 788 q 325 846 369 846 q 250 816 281 846 q 219 735 219 786 q 250 654 219 683 q 325 625 281 625 q 400 655 369 625 q 431 736 431 685 z "},"«":{"ha":774,"x_min":63,"x_max":711,"o":"m 179 167 l 63 410 l 179 653 l 399 653 l 278 410 l 399 167 l 179 167 m 492 167 l 375 410 l 492 653 l 711 653 l 590 410 l 711 167 l 492 167 z "},"¬":{"ha":1072,"x_min":42,"x_max":989,"o":"m 989 614 l 989 250 l 751 250 l 751 433 l 42 433 l 42 614 l 989 614 z "},"­":{"ha":806,"x_min":72,"x_max":683,"o":"m 683 586 l 683 389 l 72 389 l 72 586 l 683 586 z "},"®":{"ha":1118,"x_min":53,"x_max":1075,"o":"m 564 989 q 830 926 714 989 q 1010 749 946 863 q 1075 490 1075 635 q 1010 231 1075 344 q 830 54 946 118 q 564 -10 714 -10 q 298 54 414 -10 q 117 231 182 118 q 53 490 53 344 q 117 749 53 635 q 298 926 182 863 q 564 989 414 989 m 564 67 q 791 119 694 67 q 940 268 888 172 q 992 490 992 364 q 940 713 992 618 q 791 860 888 808 q 564 913 694 913 q 337 860 433 913 q 188 713 240 808 q 136 490 136 618 q 188 268 136 364 q 337 119 240 172 q 564 67 433 67 m 814 615 q 781 508 814 556 q 678 442 747 460 l 825 196 l 660 196 l 525 431 l 500 431 l 500 196 l 353 196 l 353 801 l 592 801 q 758 748 701 801 q 814 615 814 694 m 500 529 l 582 529 q 664 601 664 529 q 582 674 664 674 l 500 674 l 500 529 z "},"¯":{"ha":583,"x_min":14,"x_max":569,"o":"m 569 1036 l 569 872 l 14 872 l 14 1036 l 569 1036 z "},"°":{"ha":643,"x_min":35,"x_max":608,"o":"m 35 735 q 114 917 35 850 q 322 985 193 985 q 530 917 451 985 q 608 735 608 850 q 530 551 608 619 q 324 482 451 482 q 174 513 239 482 q 72 601 108 544 q 35 735 35 658 m 425 733 q 394 825 425 793 q 322 857 364 857 q 249 825 279 857 q 218 733 218 793 q 249 642 218 674 q 324 611 281 611 q 395 642 365 611 q 425 733 425 674 z "},"±":{"ha":874,"x_min":83,"x_max":792,"o":"m 551 494 l 551 365 l 792 365 l 792 151 l 83 151 l 83 365 l 324 365 l 324 494 l 83 494 l 83 708 l 324 708 l 324 869 l 551 869 l 551 708 l 792 708 l 792 494 l 551 494 z "},"²":{"ha":532,"x_min":47,"x_max":490,"o":"m 242 628 l 483 628 l 483 489 l 54 489 l 54 622 l 224 725 q 301 825 301 774 q 292 853 301 843 q 267 864 282 864 q 225 814 229 864 l 47 814 q 115 943 51 894 q 285 992 178 992 q 438 946 385 992 q 490 838 490 900 q 453 750 490 788 q 326 669 415 713 l 242 628 z "},"³":{"ha":519,"x_min":21,"x_max":485,"o":"m 29 822 q 90 943 32 894 q 263 992 149 992 q 417 951 358 992 q 476 846 476 910 q 451 776 476 803 q 382 740 426 750 l 382 736 q 485 624 485 708 q 424 522 485 560 q 263 483 363 483 q 85 528 144 483 q 21 653 26 572 l 206 653 q 251 610 210 610 q 283 621 271 610 q 294 654 294 632 q 280 690 294 678 q 240 701 265 701 l 193 701 l 193 779 l 232 779 q 286 825 286 779 q 275 855 286 844 q 243 865 264 865 q 199 822 204 865 l 29 822 z "},"´":{"ha":363,"x_min":14,"x_max":349,"o":"m 349 968 l 14 828 l 14 992 l 349 1153 l 349 968 z "},"µ":{"ha":979,"x_min":104,"x_max":875,"o":"m 875 775 l 875 0 l 638 0 l 638 114 q 542 24 603 57 q 403 -8 482 -8 q 340 3 371 -8 l 340 -369 l 104 -369 l 104 775 l 340 775 l 340 354 q 380 238 340 279 q 489 197 419 197 q 598 238 558 197 q 638 354 638 279 l 638 775 l 875 775 z "},"¶":{"ha":983,"x_min":39,"x_max":879,"o":"m 879 0 l 683 0 l 683 794 l 597 794 l 597 0 l 401 0 l 401 379 l 369 379 q 183 420 257 379 q 74 528 108 461 q 39 676 39 596 q 74 825 39 757 q 183 934 108 893 q 369 975 257 975 l 879 975 l 879 0 z "},"·":{"ha":415,"x_min":69,"x_max":351,"o":"m 211 308 q 109 345 149 308 q 69 436 69 382 q 109 529 69 492 q 211 567 149 567 q 312 529 272 567 q 351 436 351 492 q 312 345 351 382 q 211 308 272 308 z "},"¸":{"ha":435,"x_min":14,"x_max":421,"o":"m 240 -51 q 367 -91 313 -51 q 421 -210 421 -131 q 364 -330 421 -289 q 228 -371 307 -371 l 14 -371 l 14 -240 l 196 -240 q 238 -232 224 -240 q 251 -204 251 -224 q 238 -177 251 -185 q 196 -169 224 -169 l 97 -169 l 97 10 l 240 10 l 240 -51 z "},"¹":{"ha":346,"x_min":28,"x_max":290,"o":"m 28 840 l 28 978 l 290 978 l 290 489 l 111 489 l 111 840 l 28 840 z "},"º":{"ha":636,"x_min":35,"x_max":601,"o":"m 35 735 q 70 865 35 808 q 170 953 106 921 q 318 985 235 985 q 466 953 401 985 q 566 865 531 921 q 601 735 601 808 q 565 604 601 661 q 465 515 529 547 q 317 482 400 482 q 169 515 233 482 q 70 604 106 547 q 35 735 35 661 m 418 733 q 389 820 418 790 q 317 850 360 850 q 247 820 275 850 q 218 733 218 790 q 246 648 218 678 q 317 618 274 618 q 388 649 358 618 q 418 733 418 679 z "},"»":{"ha":774,"x_min":69,"x_max":718,"o":"m 190 410 l 69 653 l 289 653 l 406 410 l 289 167 l 69 167 l 190 410 m 503 410 l 382 653 l 601 653 l 718 410 l 601 167 l 382 167 l 503 410 z "},"¼":{"ha":1092,"x_min":56,"x_max":1050,"o":"m 56 840 l 56 978 l 318 978 l 318 489 l 139 489 l 139 840 l 56 840 m 886 975 l 351 0 l 122 0 l 657 975 l 886 975 m 1050 86 l 994 86 l 994 0 l 815 0 l 815 86 l 544 86 l 544 181 l 747 489 l 994 489 l 994 188 l 1050 188 l 1050 86 m 824 371 l 715 192 l 824 192 l 824 371 z "},"½":{"ha":1140,"x_min":56,"x_max":1058,"o":"m 139 840 l 56 840 l 56 978 l 318 978 l 318 489 l 139 489 l 139 840 m 886 978 l 351 0 l 122 0 l 657 978 l 886 978 m 810 138 l 1051 138 l 1051 -1 l 622 -1 l 622 132 l 792 235 q 869 335 869 283 q 860 363 869 353 q 835 374 850 374 q 793 324 797 374 l 615 324 q 683 453 619 404 q 853 501 746 501 q 1006 456 953 501 q 1058 347 1058 410 q 1021 260 1058 297 q 894 179 983 222 l 810 138 z "},"¾":{"ha":1238,"x_min":69,"x_max":1210,"o":"m 78 822 q 139 943 81 894 q 311 992 197 992 q 466 951 407 992 q 525 846 525 910 q 500 776 525 803 q 431 740 475 750 l 431 736 q 533 624 533 708 q 472 522 533 560 q 311 483 411 483 q 134 528 193 483 q 69 653 75 572 l 254 653 q 300 610 258 610 q 331 621 319 610 q 343 654 343 632 q 328 690 343 678 q 289 701 314 701 l 242 701 l 242 779 l 281 779 q 335 825 335 779 q 324 855 335 844 q 292 865 313 865 q 247 822 253 865 l 78 822 m 1046 978 l 511 0 l 282 0 l 817 978 l 1046 978 m 1210 86 l 1154 86 l 1154 0 l 975 0 l 975 86 l 704 86 l 704 181 l 892 489 l 1154 489 l 1154 188 l 1210 188 l 1210 86 m 983 385 l 875 188 l 983 188 l 983 385 z "},"¿":{"ha":747,"x_min":47,"x_max":710,"o":"m 375 -246 q 137 -168 226 -246 q 47 51 47 -90 q 133 255 47 182 q 358 329 218 328 l 365 433 l 574 433 l 581 175 l 497 175 q 334 149 390 175 q 278 53 278 122 q 304 -24 278 4 q 378 -51 331 -51 q 456 -23 428 -51 q 483 54 483 6 l 707 54 q 672 -99 710 -31 q 558 -206 633 -167 q 375 -246 482 -246 m 467 794 q 569 758 529 794 q 608 667 608 721 q 569 574 608 611 q 467 536 529 536 q 366 574 406 536 q 326 667 326 611 q 366 758 326 721 q 467 794 406 794 z "},"À":{"ha":1024,"x_min":22,"x_max":1003,"o":"m 693 172 l 329 172 l 271 0 l 22 0 l 375 975 l 650 975 l 1003 0 l 751 0 l 693 172 m 633 353 l 511 713 l 390 353 l 633 353 m 674 1194 l 674 1031 l 339 1171 l 339 1356 l 674 1194 z "},"Á":{"ha":1024,"x_min":22,"x_max":1003,"o":"m 693 172 l 329 172 l 271 0 l 22 0 l 375 975 l 650 975 l 1003 0 l 751 0 l 693 172 m 633 353 l 511 713 l 390 353 l 633 353 m 674 1171 l 339 1031 l 339 1194 l 674 1356 l 674 1171 z "},"Â":{"ha":1024,"x_min":22,"x_max":1003,"o":"m 693 172 l 329 172 l 271 0 l 22 0 l 375 975 l 650 975 l 1003 0 l 751 0 l 693 172 m 633 353 l 511 713 l 390 353 l 633 353 m 513 1149 l 297 1028 l 297 1192 l 513 1308 l 728 1192 l 728 1028 l 513 1149 z "},"Ã":{"ha":1024,"x_min":22,"x_max":1003,"o":"m 693 172 l 329 172 l 271 0 l 22 0 l 375 975 l 650 975 l 1003 0 l 751 0 l 693 172 m 633 353 l 511 713 l 390 353 l 633 353 m 235 1050 q 426 1256 268 1256 q 480 1247 457 1256 q 536 1219 503 1238 q 576 1199 561 1206 q 608 1193 592 1193 q 668 1256 660 1193 l 790 1256 q 599 1050 757 1050 q 545 1059 568 1050 q 489 1086 522 1068 q 449 1106 464 1100 q 417 1113 433 1113 q 356 1050 365 1113 l 235 1050 z "},"Ä":{"ha":1024,"x_min":22,"x_max":1003,"o":"m 693 172 l 329 172 l 271 0 l 22 0 l 375 975 l 650 975 l 1003 0 l 751 0 l 693 172 m 633 353 l 511 713 l 390 353 l 633 353 m 372 1064 q 300 1093 329 1064 q 271 1165 271 1122 q 300 1238 271 1208 q 372 1268 329 1268 q 446 1239 417 1268 q 475 1165 475 1210 q 445 1093 475 1122 q 372 1064 415 1064 m 650 1064 q 578 1093 607 1064 q 549 1165 549 1122 q 578 1238 549 1208 q 650 1268 607 1268 q 724 1239 694 1268 q 753 1165 753 1210 q 723 1093 753 1122 q 650 1064 693 1064 z "},"Å":{"ha":1024,"x_min":22,"x_max":1003,"o":"m 693 172 l 329 172 l 271 0 l 22 0 l 375 975 l 650 975 l 1003 0 l 751 0 l 693 172 m 633 353 l 511 713 l 390 353 l 633 353 m 344 1203 q 392 1325 344 1279 q 513 1371 440 1371 q 633 1325 585 1371 q 681 1203 681 1279 q 633 1081 681 1126 q 513 1035 585 1035 q 392 1081 440 1035 q 344 1203 344 1126 m 581 1203 q 561 1252 581 1233 q 513 1271 542 1271 q 465 1252 483 1271 q 446 1203 446 1233 q 465 1154 446 1174 q 513 1135 485 1135 q 561 1153 542 1135 q 581 1203 581 1172 z "},"Æ":{"ha":1326,"x_min":8,"x_max":1258,"o":"m 907 788 l 907 588 l 1217 588 l 1217 407 l 907 407 l 907 188 l 1258 188 l 1258 0 l 669 0 l 669 164 l 349 164 l 265 0 l 8 0 l 507 975 l 1258 975 l 1258 788 l 907 788 m 669 344 l 669 799 l 440 344 l 669 344 z "},"Ç":{"ha":1058,"x_min":46,"x_max":999,"o":"m 46 489 q 108 747 46 633 q 283 923 171 860 q 536 986 394 986 q 833 894 710 986 q 999 644 957 803 l 738 644 q 654 735 707 704 q 533 767 601 767 q 356 691 424 767 q 288 489 288 615 q 356 286 288 363 q 533 210 424 210 q 654 242 601 210 q 738 333 707 274 l 999 333 q 833 84 957 175 q 536 -7 710 -7 q 283 56 394 -7 q 108 232 171 119 q 46 489 46 344 m 611 -57 q 738 -97 683 -57 q 792 -215 792 -136 q 735 -335 792 -294 q 599 -376 678 -376 l 385 -376 l 385 -246 l 567 -246 q 608 -237 594 -246 q 622 -210 622 -229 q 608 -183 622 -190 q 567 -175 594 -175 l 468 -175 l 468 4 l 611 4 l 611 -57 z "},"È":{"ha":751,"x_min":86,"x_max":683,"o":"m 324 788 l 324 585 l 642 585 l 642 406 l 324 406 l 324 188 l 683 188 l 683 0 l 86 0 l 86 975 l 683 975 l 683 788 l 324 788 m 540 1194 l 540 1031 l 206 1171 l 206 1356 l 540 1194 z "},"É":{"ha":751,"x_min":86,"x_max":683,"o":"m 324 788 l 324 585 l 642 585 l 642 406 l 324 406 l 324 188 l 683 188 l 683 0 l 86 0 l 86 975 l 683 975 l 683 788 l 324 788 m 540 1171 l 206 1031 l 206 1194 l 540 1356 l 540 1171 z "},"Ê":{"ha":751,"x_min":86,"x_max":683,"o":"m 324 788 l 324 585 l 642 585 l 642 406 l 324 406 l 324 188 l 683 188 l 683 0 l 86 0 l 86 975 l 683 975 l 683 788 l 324 788 m 378 1149 l 163 1028 l 163 1192 l 378 1308 l 593 1192 l 593 1028 l 378 1149 z "},"Ë":{"ha":751,"x_min":86,"x_max":683,"o":"m 324 788 l 324 585 l 642 585 l 642 406 l 324 406 l 324 188 l 683 188 l 683 0 l 86 0 l 86 975 l 683 975 l 683 788 l 324 788 m 239 1064 q 167 1093 196 1064 q 138 1165 138 1122 q 167 1238 138 1208 q 239 1268 196 1268 q 313 1239 283 1268 q 342 1165 342 1210 q 312 1093 342 1122 q 239 1064 282 1064 m 517 1064 q 444 1093 474 1064 q 415 1165 415 1122 q 444 1238 415 1208 q 517 1268 474 1268 q 590 1239 561 1268 q 619 1165 619 1210 q 590 1093 619 1122 q 517 1064 560 1064 z "},"Ì":{"ha":410,"x_min":32,"x_max":367,"o":"m 324 975 l 324 0 l 86 0 l 86 975 l 324 975 m 367 1194 l 367 1031 l 32 1171 l 32 1356 l 367 1194 z "},"Í":{"ha":410,"x_min":32,"x_max":367,"o":"m 324 975 l 324 0 l 86 0 l 86 975 l 324 975 m 367 1171 l 32 1031 l 32 1194 l 367 1356 l 367 1171 z "},"Î":{"ha":410,"x_min":-10,"x_max":421,"o":"m 324 975 l 324 0 l 86 0 l 86 975 l 324 975 m 206 1149 l -10 1028 l -10 1192 l 206 1308 l 421 1192 l 421 1028 l 206 1149 z "},"Ï":{"ha":410,"x_min":-36,"x_max":446,"o":"m 324 975 l 324 0 l 86 0 l 86 975 l 324 975 m 65 1064 q -7 1093 22 1064 q -36 1165 -36 1122 q -7 1238 -36 1208 q 65 1268 22 1268 q 139 1239 110 1268 q 168 1165 168 1210 q 138 1093 168 1122 q 65 1064 108 1064 m 343 1064 q 271 1093 300 1064 q 242 1165 242 1122 q 271 1238 242 1208 q 343 1268 300 1268 q 417 1239 388 1268 q 446 1165 446 1210 q 416 1093 446 1122 q 343 1064 386 1064 z "},"Ð":{"ha":1017,"x_min":6,"x_max":969,"o":"m 458 975 q 728 914 613 975 q 907 742 844 853 q 969 488 969 632 q 907 233 969 344 q 728 61 844 122 q 458 0 613 0 l 93 0 l 93 389 l 6 389 l 6 586 l 93 586 l 93 975 l 458 975 m 444 203 q 653 278 578 203 q 728 488 728 353 q 653 697 728 622 q 444 772 578 772 l 332 772 l 332 586 l 543 586 l 543 389 l 332 389 l 332 203 l 444 203 z "},"Ñ":{"ha":1044,"x_min":86,"x_max":958,"o":"m 958 0 l 721 0 l 324 601 l 324 0 l 86 0 l 86 975 l 324 975 l 721 371 l 721 975 l 958 975 l 958 0 m 244 1050 q 436 1256 278 1256 q 490 1247 467 1256 q 546 1219 513 1238 q 586 1199 571 1206 q 618 1193 601 1193 q 678 1256 669 1193 l 800 1256 q 608 1050 767 1050 q 555 1059 578 1050 q 499 1086 532 1068 q 458 1106 474 1100 q 426 1113 443 1113 q 365 1050 375 1113 l 244 1050 z "},"Ò":{"ha":1092,"x_min":46,"x_max":1046,"o":"m 547 -10 q 295 54 410 -10 q 113 233 181 118 q 46 490 46 347 q 113 747 46 633 q 295 925 181 861 q 547 989 410 989 q 799 925 685 989 q 980 747 914 861 q 1046 490 1046 633 q 979 233 1046 347 q 799 54 913 118 q 547 -10 685 -10 m 547 210 q 734 286 664 210 q 804 490 804 363 q 734 694 804 618 q 547 771 664 771 q 359 694 429 771 q 289 490 289 618 q 359 286 289 363 q 547 210 429 210 m 708 1194 l 708 1031 l 374 1171 l 374 1356 l 708 1194 z "},"Ó":{"ha":1092,"x_min":46,"x_max":1046,"o":"m 547 -10 q 295 54 410 -10 q 113 233 181 118 q 46 490 46 347 q 113 747 46 633 q 295 925 181 861 q 547 989 410 989 q 799 925 685 989 q 980 747 914 861 q 1046 490 1046 633 q 979 233 1046 347 q 799 54 913 118 q 547 -10 685 -10 m 547 210 q 734 286 664 210 q 804 490 804 363 q 734 694 804 618 q 547 771 664 771 q 359 694 429 771 q 289 490 289 618 q 359 286 289 363 q 547 210 429 210 m 708 1171 l 374 1031 l 374 1194 l 708 1356 l 708 1171 z "},"Ô":{"ha":1092,"x_min":46,"x_max":1046,"o":"m 547 -10 q 295 54 410 -10 q 113 233 181 118 q 46 490 46 347 q 113 747 46 633 q 295 925 181 861 q 547 989 410 989 q 799 925 685 989 q 980 747 914 861 q 1046 490 1046 633 q 979 233 1046 347 q 799 54 913 118 q 547 -10 685 -10 m 547 210 q 734 286 664 210 q 804 490 804 363 q 734 694 804 618 q 547 771 664 771 q 359 694 429 771 q 289 490 289 618 q 359 286 289 363 q 547 210 429 210 m 546 1149 l 331 1028 l 331 1192 l 546 1308 l 761 1192 l 761 1028 l 546 1149 z "},"Õ":{"ha":1092,"x_min":46,"x_max":1046,"o":"m 547 -10 q 295 54 410 -10 q 113 233 181 118 q 46 490 46 347 q 113 747 46 633 q 295 925 181 861 q 547 989 410 989 q 799 925 685 989 q 980 747 914 861 q 1046 490 1046 633 q 979 233 1046 347 q 799 54 913 118 q 547 -10 685 -10 m 547 210 q 734 286 664 210 q 804 490 804 363 q 734 694 804 618 q 547 771 664 771 q 359 694 429 771 q 289 490 289 618 q 359 286 289 363 q 547 210 429 210 m 268 1050 q 460 1256 301 1256 q 513 1247 490 1256 q 569 1219 536 1238 q 610 1199 594 1206 q 642 1193 625 1193 q 701 1256 693 1193 l 824 1256 q 632 1050 790 1050 q 578 1059 601 1050 q 522 1086 556 1068 q 482 1106 497 1100 q 450 1113 467 1113 q 389 1050 399 1113 l 268 1050 z "},"Ö":{"ha":1092,"x_min":46,"x_max":1046,"o":"m 547 -10 q 295 54 410 -10 q 113 233 181 118 q 46 490 46 347 q 113 747 46 633 q 295 925 181 861 q 547 989 410 989 q 799 925 685 989 q 980 747 914 861 q 1046 490 1046 633 q 979 233 1046 347 q 799 54 913 118 q 547 -10 685 -10 m 547 210 q 734 286 664 210 q 804 490 804 363 q 734 694 804 618 q 547 771 664 771 q 359 694 429 771 q 289 490 289 618 q 359 286 289 363 q 547 210 429 210 m 407 1064 q 335 1093 364 1064 q 306 1165 306 1122 q 335 1238 306 1208 q 407 1268 364 1268 q 481 1239 451 1268 q 510 1165 510 1210 q 480 1093 510 1122 q 407 1064 450 1064 m 685 1064 q 613 1093 642 1064 q 583 1165 583 1122 q 613 1238 583 1208 q 685 1268 642 1268 q 758 1239 729 1268 q 788 1165 788 1210 q 758 1093 788 1122 q 685 1064 728 1064 z "},"×":{"ha":885,"x_min":96,"x_max":789,"o":"m 633 147 l 440 340 l 250 149 l 96 301 l 286 494 l 101 679 l 257 833 l 442 649 l 624 833 l 779 681 l 594 496 l 789 301 l 633 147 z "},"Ø":{"ha":1092,"x_min":31,"x_max":1061,"o":"m 922 825 q 1013 674 981 760 q 1044 490 1044 589 q 978 233 1044 347 q 797 54 911 118 q 546 -10 683 -10 q 387 14 463 -10 q 249 83 311 38 l 175 1 l 31 1 l 169 154 q 77 306 110 219 q 44 490 44 392 q 112 747 44 633 q 294 925 179 861 q 546 989 408 989 q 843 897 713 989 l 917 978 l 1061 978 l 922 825 m 288 490 q 326 328 288 397 l 692 729 q 546 771 632 771 q 358 694 428 771 q 288 490 288 618 m 803 490 q 764 651 803 582 l 400 250 q 546 210 461 210 q 733 286 663 210 q 803 490 803 363 z "},"Ù":{"ha":979,"x_min":82,"x_max":899,"o":"m 319 975 l 319 393 q 363 258 319 306 q 489 211 406 211 q 617 258 572 211 q 661 393 661 306 l 661 975 l 899 975 l 899 393 q 843 172 899 263 q 694 36 788 82 q 485 -10 600 -10 q 278 35 369 -10 q 135 172 188 81 q 82 393 82 263 l 82 975 l 319 975 m 651 1194 l 651 1031 l 317 1171 l 317 1356 l 651 1194 z "},"Ú":{"ha":979,"x_min":82,"x_max":899,"o":"m 319 975 l 319 393 q 363 258 319 306 q 489 211 406 211 q 617 258 572 211 q 661 393 661 306 l 661 975 l 899 975 l 899 393 q 843 172 899 263 q 694 36 788 82 q 485 -10 600 -10 q 278 35 369 -10 q 135 172 188 81 q 82 393 82 263 l 82 975 l 319 975 m 651 1171 l 317 1031 l 317 1194 l 651 1356 l 651 1171 z "},"Û":{"ha":979,"x_min":82,"x_max":899,"o":"m 319 975 l 319 393 q 363 258 319 306 q 489 211 406 211 q 617 258 572 211 q 661 393 661 306 l 661 975 l 899 975 l 899 393 q 843 172 899 263 q 694 36 788 82 q 485 -10 600 -10 q 278 35 369 -10 q 135 172 188 81 q 82 393 82 263 l 82 975 l 319 975 m 490 1149 l 275 1028 l 275 1192 l 490 1308 l 706 1192 l 706 1028 l 490 1149 z "},"Ü":{"ha":979,"x_min":82,"x_max":899,"o":"m 319 975 l 319 393 q 363 258 319 306 q 489 211 406 211 q 617 258 572 211 q 661 393 661 306 l 661 975 l 899 975 l 899 393 q 843 172 899 263 q 694 36 788 82 q 485 -10 600 -10 q 278 35 369 -10 q 135 172 188 81 q 82 393 82 263 l 82 975 l 319 975 m 350 1064 q 278 1093 307 1064 q 249 1165 249 1122 q 278 1238 249 1208 q 350 1268 307 1268 q 424 1239 394 1268 q 453 1165 453 1210 q 423 1093 453 1122 q 350 1064 393 1064 m 628 1064 q 556 1093 585 1064 q 526 1165 526 1122 q 556 1238 526 1208 q 628 1268 585 1268 q 701 1239 672 1268 q 731 1165 731 1210 q 701 1093 731 1122 q 628 1064 671 1064 z "},"Ý":{"ha":932,"x_min":10,"x_max":922,"o":"m 922 975 l 585 322 l 585 0 l 347 0 l 347 322 l 10 975 l 279 975 l 468 568 l 656 975 l 922 975 m 628 1171 l 293 1031 l 293 1194 l 628 1356 l 628 1171 z "},"Þ":{"ha":867,"x_min":86,"x_max":829,"o":"m 829 489 q 790 338 829 407 q 671 226 751 268 q 471 185 590 185 l 324 185 l 324 0 l 86 0 l 86 975 l 321 975 l 321 794 l 471 794 q 668 755 588 794 q 789 647 749 715 q 829 489 829 578 m 453 364 q 554 397 521 364 q 588 489 588 431 q 554 581 588 547 q 453 614 521 614 l 324 614 l 324 364 l 453 364 z "},"ß":{"ha":1014,"x_min":86,"x_max":989,"o":"m 782 563 q 941 431 893 499 q 989 265 989 364 q 951 124 989 186 q 844 26 914 61 q 682 -10 775 -10 q 467 67 543 -10 q 389 274 390 143 l 592 274 q 618 216 596 236 q 675 196 640 196 q 733 219 713 196 q 754 275 754 242 q 734 336 754 311 q 664 390 714 361 l 456 507 l 456 606 l 483 622 q 528 665 514 640 q 542 722 542 689 q 513 799 542 768 q 436 829 483 829 q 355 796 388 829 q 322 706 322 763 l 324 0 l 86 0 l 86 668 q 183 947 86 853 q 458 1042 279 1042 q 638 1007 564 1042 q 748 916 711 972 q 785 797 785 860 q 690 615 785 683 l 782 563 z "},"à":{"ha":943,"x_min":39,"x_max":857,"o":"m 39 389 q 84 599 39 508 q 207 738 129 689 q 381 786 285 786 q 524 753 463 786 q 619 665 586 719 l 619 775 l 857 775 l 857 0 l 619 0 l 619 110 q 523 22 585 56 q 379 -11 461 -11 q 207 38 285 -11 q 84 178 129 88 q 39 389 39 269 m 619 388 q 570 528 619 476 q 450 579 521 579 q 330 528 379 579 q 281 389 281 478 q 330 248 281 300 q 450 196 379 196 q 570 247 521 196 q 619 388 619 299 m 638 992 l 638 828 l 303 968 l 303 1153 l 638 992 z "},"á":{"ha":943,"x_min":39,"x_max":857,"o":"m 39 389 q 84 599 39 508 q 207 738 129 689 q 381 786 285 786 q 524 753 463 786 q 619 665 586 719 l 619 775 l 857 775 l 857 0 l 619 0 l 619 110 q 523 22 585 56 q 379 -11 461 -11 q 207 38 285 -11 q 84 178 129 88 q 39 389 39 269 m 619 388 q 570 528 619 476 q 450 579 521 579 q 330 528 379 579 q 281 389 281 478 q 330 248 281 300 q 450 196 379 196 q 570 247 521 196 q 619 388 619 299 m 638 968 l 303 828 l 303 992 l 638 1153 l 638 968 z "},"â":{"ha":943,"x_min":39,"x_max":857,"o":"m 39 389 q 84 599 39 508 q 207 738 129 689 q 381 786 285 786 q 524 753 463 786 q 619 665 586 719 l 619 775 l 857 775 l 857 0 l 619 0 l 619 110 q 523 22 585 56 q 379 -11 461 -11 q 207 38 285 -11 q 84 178 129 88 q 39 389 39 269 m 619 388 q 570 528 619 476 q 450 579 521 579 q 330 528 379 579 q 281 389 281 478 q 330 248 281 300 q 450 196 379 196 q 570 247 521 196 q 619 388 619 299 m 476 946 l 261 825 l 261 989 l 476 1106 l 692 989 l 692 825 l 476 946 z "},"ã":{"ha":943,"x_min":39,"x_max":857,"o":"m 39 389 q 84 599 39 508 q 207 738 129 689 q 381 786 285 786 q 524 753 463 786 q 619 665 586 719 l 619 775 l 857 775 l 857 0 l 619 0 l 619 110 q 523 22 585 56 q 379 -11 461 -11 q 207 38 285 -11 q 84 178 129 88 q 39 389 39 269 m 619 388 q 570 528 619 476 q 450 579 521 579 q 330 528 379 579 q 281 389 281 478 q 330 248 281 300 q 450 196 379 196 q 570 247 521 196 q 619 388 619 299 m 199 847 q 390 1053 232 1053 q 444 1044 421 1053 q 500 1017 467 1035 q 540 997 525 1003 q 572 990 556 990 q 632 1053 624 990 l 754 1053 q 563 847 721 847 q 509 856 532 847 q 453 883 486 865 q 413 903 428 897 q 381 910 397 910 q 319 847 329 910 l 199 847 z "},"ä":{"ha":943,"x_min":39,"x_max":857,"o":"m 39 389 q 84 599 39 508 q 207 738 129 689 q 381 786 285 786 q 524 753 463 786 q 619 665 586 719 l 619 775 l 857 775 l 857 0 l 619 0 l 619 110 q 523 22 585 56 q 379 -11 461 -11 q 207 38 285 -11 q 84 178 129 88 q 39 389 39 269 m 619 388 q 570 528 619 476 q 450 579 521 579 q 330 528 379 579 q 281 389 281 478 q 330 248 281 300 q 450 196 379 196 q 570 247 521 196 q 619 388 619 299 m 336 861 q 264 890 293 861 q 235 963 235 919 q 264 1035 235 1006 q 336 1065 293 1065 q 410 1036 381 1065 q 439 963 439 1007 q 409 890 439 919 q 336 861 379 861 m 614 861 q 542 890 571 861 q 513 963 513 919 q 542 1035 513 1006 q 614 1065 571 1065 q 688 1036 658 1065 q 717 963 717 1007 q 687 890 717 919 q 614 861 657 861 z "},"å":{"ha":943,"x_min":39,"x_max":857,"o":"m 39 389 q 84 599 39 508 q 207 738 129 689 q 381 786 285 786 q 524 753 463 786 q 619 665 586 719 l 619 775 l 857 775 l 857 0 l 619 0 l 619 110 q 523 22 585 56 q 379 -11 461 -11 q 207 38 285 -11 q 84 178 129 88 q 39 389 39 269 m 619 388 q 570 528 619 476 q 450 579 521 579 q 330 528 379 579 q 281 389 281 478 q 330 248 281 300 q 450 196 379 196 q 570 247 521 196 q 619 388 619 299 m 308 1000 q 356 1122 308 1076 q 476 1168 404 1168 q 597 1122 549 1168 q 644 1000 644 1076 q 597 878 644 924 q 476 832 549 832 q 356 878 404 832 q 308 1000 308 924 m 544 1000 q 525 1049 544 1031 q 476 1068 506 1068 q 428 1049 447 1068 q 410 1000 410 1031 q 429 951 410 971 q 476 932 449 932 q 525 951 506 932 q 544 1000 544 969 z "},"æ":{"ha":1485,"x_min":39,"x_max":1446,"o":"m 1446 401 q 1439 333 1446 372 l 864 333 q 920 218 874 257 q 1031 179 967 179 q 1122 200 1086 179 q 1174 257 1158 221 l 1426 257 q 1311 64 1397 139 q 1101 -11 1225 -11 q 953 22 1018 -11 q 853 111 888 54 l 853 0 l 621 0 l 621 111 q 522 22 583 56 q 381 -11 460 -11 q 207 38 285 -11 q 84 178 129 88 q 39 389 39 269 q 84 599 39 508 q 208 738 129 689 q 385 786 288 786 q 523 756 463 786 q 621 667 583 725 l 621 775 l 853 775 l 853 667 q 1101 786 933 786 q 1280 738 1201 786 q 1402 603 1358 690 q 1446 401 1446 515 m 1203 454 q 1154 558 1201 519 q 1036 596 1107 596 q 924 560 971 596 q 864 454 876 524 l 1203 454 m 450 196 q 570 247 521 196 q 619 388 619 299 q 570 528 619 476 q 450 579 521 579 q 330 528 379 579 q 281 389 281 478 q 330 248 281 300 q 450 196 379 196 z "},"ç":{"ha":840,"x_min":39,"x_max":800,"o":"m 39 388 q 88 599 39 508 q 226 738 138 689 q 428 786 314 786 q 672 710 574 786 q 800 494 769 633 l 547 494 q 424 583 515 583 q 319 533 358 583 q 281 388 281 482 q 319 242 281 293 q 424 192 358 192 q 547 281 515 192 l 800 281 q 671 67 769 144 q 428 -11 572 -11 q 226 38 314 -11 q 88 176 138 86 q 39 388 39 267 m 497 -57 q 624 -97 569 -57 q 678 -215 678 -136 q 621 -335 678 -294 q 485 -376 564 -376 l 271 -376 l 271 -246 l 453 -246 q 494 -237 481 -246 q 508 -210 508 -229 q 494 -183 508 -190 q 453 -175 481 -175 l 354 -175 l 354 4 l 497 4 l 497 -57 z "},"è":{"ha":856,"x_min":39,"x_max":817,"o":"m 817 401 q 813 333 817 369 l 275 333 q 321 221 281 260 q 422 182 361 182 q 546 257 511 182 l 799 257 q 728 119 779 181 q 601 24 678 58 q 431 -11 525 -11 q 228 38 317 -11 q 89 176 139 86 q 39 388 39 267 q 88 599 39 508 q 226 738 138 689 q 431 786 315 786 q 631 739 543 786 q 767 604 718 692 q 817 401 817 517 m 574 454 q 532 558 574 521 q 428 596 490 596 q 326 559 367 596 q 275 454 285 522 l 574 454 m 600 992 l 600 828 l 265 968 l 265 1153 l 600 992 z "},"é":{"ha":856,"x_min":39,"x_max":817,"o":"m 817 401 q 813 333 817 369 l 275 333 q 321 221 281 260 q 422 182 361 182 q 546 257 511 182 l 799 257 q 728 119 779 181 q 601 24 678 58 q 431 -11 525 -11 q 228 38 317 -11 q 89 176 139 86 q 39 388 39 267 q 88 599 39 508 q 226 738 138 689 q 431 786 315 786 q 631 739 543 786 q 767 604 718 692 q 817 401 817 517 m 574 454 q 532 558 574 521 q 428 596 490 596 q 326 559 367 596 q 275 454 285 522 l 574 454 m 600 968 l 265 828 l 265 992 l 600 1153 l 600 968 z "},"ê":{"ha":856,"x_min":39,"x_max":817,"o":"m 817 401 q 813 333 817 369 l 275 333 q 321 221 281 260 q 422 182 361 182 q 546 257 511 182 l 799 257 q 728 119 779 181 q 601 24 678 58 q 431 -11 525 -11 q 228 38 317 -11 q 89 176 139 86 q 39 388 39 267 q 88 599 39 508 q 226 738 138 689 q 431 786 315 786 q 631 739 543 786 q 767 604 718 692 q 817 401 817 517 m 574 454 q 532 558 574 521 q 428 596 490 596 q 326 559 367 596 q 275 454 285 522 l 574 454 m 439 946 l 224 825 l 224 989 l 439 1106 l 654 989 l 654 825 l 439 946 z "},"ë":{"ha":856,"x_min":39,"x_max":817,"o":"m 817 401 q 813 333 817 369 l 275 333 q 321 221 281 260 q 422 182 361 182 q 546 257 511 182 l 799 257 q 728 119 779 181 q 601 24 678 58 q 431 -11 525 -11 q 228 38 317 -11 q 89 176 139 86 q 39 388 39 267 q 88 599 39 508 q 226 738 138 689 q 431 786 315 786 q 631 739 543 786 q 767 604 718 692 q 817 401 817 517 m 574 454 q 532 558 574 521 q 428 596 490 596 q 326 559 367 596 q 275 454 285 522 l 574 454 m 299 861 q 226 890 256 861 q 197 963 197 919 q 226 1035 197 1006 q 299 1065 256 1065 q 372 1036 343 1065 q 401 963 401 1007 q 372 890 401 919 q 299 861 342 861 m 576 861 q 504 890 533 861 q 475 963 475 919 q 504 1035 475 1006 q 576 1065 533 1065 q 650 1036 621 1065 q 679 963 679 1007 q 649 890 679 919 q 576 861 619 861 z "},"ì":{"ha":446,"x_min":50,"x_max":385,"o":"m 342 775 l 342 0 l 104 0 l 104 775 l 342 775 m 385 992 l 385 828 l 50 968 l 50 1153 l 385 992 z "},"í":{"ha":446,"x_min":50,"x_max":385,"o":"m 342 775 l 342 0 l 104 0 l 104 775 l 342 775 m 385 968 l 50 828 l 50 992 l 385 1153 l 385 968 z "},"î":{"ha":446,"x_min":8,"x_max":439,"o":"m 342 775 l 342 0 l 104 0 l 104 775 l 342 775 m 224 946 l 8 825 l 8 989 l 224 1106 l 439 989 l 439 825 l 224 946 z "},"ï":{"ha":446,"x_min":-18,"x_max":464,"o":"m 342 775 l 342 0 l 104 0 l 104 775 l 342 775 m 83 861 q 11 890 40 861 q -18 963 -18 919 q 11 1035 -18 1006 q 83 1065 40 1065 q 157 1036 128 1065 q 186 963 186 1007 q 156 890 186 919 q 83 861 126 861 m 361 861 q 289 890 318 861 q 260 963 260 919 q 289 1035 260 1006 q 361 1065 318 1065 q 435 1036 406 1065 q 464 963 464 1007 q 434 890 464 919 q 361 861 404 861 z "},"ð":{"ha":889,"x_min":39,"x_max":850,"o":"m 681 913 q 806 687 761 807 q 850 440 850 567 q 797 196 850 297 q 651 42 743 94 q 446 -10 560 -10 q 240 40 333 -10 q 93 179 147 89 q 39 389 39 269 q 90 598 39 508 q 228 735 140 688 q 422 783 315 783 q 585 740 506 783 q 513 861 554 806 l 367 817 l 367 910 l 453 936 q 357 1028 407 985 l 575 1028 l 617 986 l 749 1026 l 749 933 l 681 913 m 446 193 q 560 243 513 193 q 607 388 607 293 q 558 531 607 482 q 444 581 510 581 q 330 531 378 581 q 282 388 282 482 q 331 243 282 293 q 446 193 379 193 z "},"ñ":{"ha":936,"x_min":86,"x_max":857,"o":"m 558 783 q 776 695 694 783 q 857 453 857 607 l 857 0 l 621 0 l 621 421 q 581 542 621 499 q 472 585 540 585 q 364 542 404 585 q 324 421 324 499 l 324 0 l 86 0 l 86 775 l 324 775 l 324 672 q 421 753 360 724 q 558 783 482 783 m 224 847 q 415 1053 257 1053 q 469 1044 446 1053 q 525 1017 492 1035 q 565 997 550 1003 q 597 990 581 990 q 657 1053 649 990 l 779 1053 q 588 847 746 847 q 534 856 557 847 q 478 883 511 865 q 438 903 453 897 q 406 910 422 910 q 344 847 354 910 l 224 847 z "},"ò":{"ha":885,"x_min":39,"x_max":844,"o":"m 439 -11 q 234 38 325 -11 q 91 176 143 86 q 39 388 39 267 q 92 598 39 507 q 236 738 144 689 q 442 786 328 786 q 647 738 556 786 q 792 598 739 689 q 844 388 844 507 q 791 177 844 268 q 645 38 738 86 q 439 -11 553 -11 m 439 193 q 555 244 507 193 q 603 388 603 294 q 556 531 603 481 q 442 582 510 582 q 326 532 372 582 q 281 388 281 482 q 326 244 281 294 q 439 193 371 193 m 622 992 l 622 828 l 288 968 l 288 1153 l 622 992 z "},"ó":{"ha":885,"x_min":39,"x_max":844,"o":"m 439 -11 q 234 38 325 -11 q 91 176 143 86 q 39 388 39 267 q 92 598 39 507 q 236 738 144 689 q 442 786 328 786 q 647 738 556 786 q 792 598 739 689 q 844 388 844 507 q 791 177 844 268 q 645 38 738 86 q 439 -11 553 -11 m 439 193 q 555 244 507 193 q 603 388 603 294 q 556 531 603 481 q 442 582 510 582 q 326 532 372 582 q 281 388 281 482 q 326 244 281 294 q 439 193 371 193 m 622 968 l 288 828 l 288 992 l 622 1153 l 622 968 z "},"ô":{"ha":885,"x_min":39,"x_max":844,"o":"m 439 -11 q 234 38 325 -11 q 91 176 143 86 q 39 388 39 267 q 92 598 39 507 q 236 738 144 689 q 442 786 328 786 q 647 738 556 786 q 792 598 739 689 q 844 388 844 507 q 791 177 844 268 q 645 38 738 86 q 439 -11 553 -11 m 439 193 q 555 244 507 193 q 603 388 603 294 q 556 531 603 481 q 442 582 510 582 q 326 532 372 582 q 281 388 281 482 q 326 244 281 294 q 439 193 371 193 m 461 946 l 246 825 l 246 989 l 461 1106 l 676 989 l 676 825 l 461 946 z "},"õ":{"ha":885,"x_min":39,"x_max":844,"o":"m 439 -11 q 234 38 325 -11 q 91 176 143 86 q 39 388 39 267 q 92 598 39 507 q 236 738 144 689 q 442 786 328 786 q 647 738 556 786 q 792 598 739 689 q 844 388 844 507 q 791 177 844 268 q 645 38 738 86 q 439 -11 553 -11 m 439 193 q 555 244 507 193 q 603 388 603 294 q 556 531 603 481 q 442 582 510 582 q 326 532 372 582 q 281 388 281 482 q 326 244 281 294 q 439 193 371 193 m 182 847 q 374 1053 215 1053 q 427 1044 404 1053 q 483 1017 450 1035 q 524 997 508 1003 q 556 990 539 990 q 615 1053 607 990 l 738 1053 q 546 847 704 847 q 492 856 515 847 q 436 883 469 865 q 396 903 411 897 q 364 910 381 910 q 303 847 313 910 l 182 847 z "},"ö":{"ha":885,"x_min":39,"x_max":844,"o":"m 439 -11 q 234 38 325 -11 q 91 176 143 86 q 39 388 39 267 q 92 598 39 507 q 236 738 144 689 q 442 786 328 786 q 647 738 556 786 q 792 598 739 689 q 844 388 844 507 q 791 177 844 268 q 645 38 738 86 q 439 -11 553 -11 m 439 193 q 555 244 507 193 q 603 388 603 294 q 556 531 603 481 q 442 582 510 582 q 326 532 372 582 q 281 388 281 482 q 326 244 281 294 q 439 193 371 193 m 321 861 q 249 890 278 861 q 219 963 219 919 q 249 1035 219 1006 q 321 1065 278 1065 q 394 1036 365 1065 q 424 963 424 1007 q 394 890 424 919 q 321 861 364 861 m 599 861 q 526 890 556 861 q 497 963 497 919 q 526 1035 497 1006 q 599 1065 556 1065 q 672 1036 643 1065 q 701 963 701 1007 q 672 890 701 919 q 599 861 642 861 z "},"÷":{"ha":849,"x_min":74,"x_max":783,"o":"m 550 919 l 550 676 l 304 676 l 304 919 l 550 919 m 783 593 l 783 379 l 74 379 l 74 593 l 783 593 m 550 296 l 550 54 l 304 54 l 304 296 l 550 296 z "},"ø":{"ha":874,"x_min":18,"x_max":856,"o":"m 746 656 q 839 388 839 547 q 785 177 839 268 q 640 38 732 86 q 433 -11 547 -11 q 197 56 299 -11 l 146 0 l 18 0 l 126 118 q 33 388 33 226 q 86 598 33 507 q 231 738 139 689 q 436 786 322 786 q 675 718 574 786 l 728 775 l 856 775 l 746 656 m 275 388 q 289 296 275 340 l 525 554 q 436 582 485 582 q 321 532 367 582 q 275 388 275 482 m 597 388 q 582 476 597 438 l 347 219 q 433 193 383 193 q 549 244 501 193 q 597 388 597 294 z "},"ù":{"ha":936,"x_min":79,"x_max":851,"o":"m 851 775 l 851 0 l 614 0 l 614 106 q 516 23 578 54 q 379 -8 454 -8 q 222 31 290 -8 q 117 146 154 71 q 79 322 79 221 l 79 775 l 315 775 l 315 354 q 356 233 315 276 q 464 190 396 190 q 574 233 533 190 q 614 354 614 276 l 614 775 l 851 775 m 631 992 l 631 828 l 296 968 l 296 1153 l 631 992 z "},"ú":{"ha":936,"x_min":79,"x_max":851,"o":"m 851 775 l 851 0 l 614 0 l 614 106 q 516 23 578 54 q 379 -8 454 -8 q 222 31 290 -8 q 117 146 154 71 q 79 322 79 221 l 79 775 l 315 775 l 315 354 q 356 233 315 276 q 464 190 396 190 q 574 233 533 190 q 614 354 614 276 l 614 775 l 851 775 m 631 968 l 296 828 l 296 992 l 631 1153 l 631 968 z "},"û":{"ha":936,"x_min":79,"x_max":851,"o":"m 851 775 l 851 0 l 614 0 l 614 106 q 516 23 578 54 q 379 -8 454 -8 q 222 31 290 -8 q 117 146 154 71 q 79 322 79 221 l 79 775 l 315 775 l 315 354 q 356 233 315 276 q 464 190 396 190 q 574 233 533 190 q 614 354 614 276 l 614 775 l 851 775 m 469 946 l 254 825 l 254 989 l 469 1106 l 685 989 l 685 825 l 469 946 z "},"ü":{"ha":936,"x_min":79,"x_max":851,"o":"m 851 775 l 851 0 l 614 0 l 614 106 q 516 23 578 54 q 379 -8 454 -8 q 222 31 290 -8 q 117 146 154 71 q 79 322 79 221 l 79 775 l 315 775 l 315 354 q 356 233 315 276 q 464 190 396 190 q 574 233 533 190 q 614 354 614 276 l 614 775 l 851 775 m 329 861 q 257 890 286 861 q 228 963 228 919 q 257 1035 228 1006 q 329 1065 286 1065 q 403 1036 374 1065 q 432 963 432 1007 q 402 890 432 919 q 329 861 372 861 m 607 861 q 535 890 564 861 q 506 963 506 919 q 535 1035 506 1006 q 607 1065 564 1065 q 681 1036 651 1065 q 710 963 710 1007 q 680 890 710 919 q 607 861 650 861 z "},"ý":{"ha":878,"x_min":-1,"x_max":878,"o":"m 264 775 l 443 290 l 621 775 l 878 775 l 392 -368 l 136 -368 l 314 26 l -1 775 l 264 775 m 600 968 l 265 828 l 265 992 l 600 1153 l 600 968 z "},"þ":{"ha":943,"x_min":86,"x_max":904,"o":"m 324 674 q 551 783 403 783 q 728 733 647 783 q 857 592 810 682 q 904 386 904 501 q 857 181 904 271 q 728 40 810 90 q 551 -10 647 -10 q 324 113 407 -10 l 324 -369 l 86 -369 l 86 1028 l 324 1028 l 324 674 m 663 386 q 638 492 663 449 q 574 556 614 535 q 493 578 535 578 q 411 556 450 578 q 348 492 372 535 q 324 388 324 450 q 348 282 324 325 q 412 217 372 239 q 493 196 451 196 q 575 217 536 196 q 638 281 614 239 q 663 386 663 324 z "},"ÿ":{"ha":878,"x_min":-1,"x_max":878,"o":"m 264 775 l 443 290 l 621 775 l 878 775 l 392 -368 l 136 -368 l 314 26 l -1 775 l 264 775 m 299 861 q 226 890 256 861 q 197 963 197 919 q 226 1035 197 1006 q 299 1065 256 1065 q 372 1036 343 1065 q 401 963 401 1007 q 372 890 401 919 q 299 861 342 861 m 576 861 q 504 890 533 861 q 475 963 475 919 q 504 1035 475 1006 q 576 1065 533 1065 q 650 1036 621 1065 q 679 963 679 1007 q 649 890 679 919 q 576 861 619 861 z "},"Ā":{"ha":1024,"x_min":22,"x_max":1003,"o":"m 693 172 l 329 172 l 271 0 l 22 0 l 375 975 l 650 975 l 1003 0 l 751 0 l 693 172 m 633 353 l 511 713 l 390 353 l 633 353 m 790 1239 l 790 1075 l 235 1075 l 235 1239 l 790 1239 z "},"ā":{"ha":943,"x_min":39,"x_max":857,"o":"m 39 389 q 84 599 39 508 q 207 738 129 689 q 381 786 285 786 q 524 753 463 786 q 619 665 586 719 l 619 775 l 857 775 l 857 0 l 619 0 l 619 110 q 523 22 585 56 q 379 -11 461 -11 q 207 38 285 -11 q 84 178 129 88 q 39 389 39 269 m 619 388 q 570 528 619 476 q 450 579 521 579 q 330 528 379 579 q 281 389 281 478 q 330 248 281 300 q 450 196 379 196 q 570 247 521 196 q 619 388 619 299 m 754 1036 l 754 872 l 199 872 l 199 1036 l 754 1036 z "},"Ă":{"ha":1024,"x_min":22,"x_max":1003,"o":"m 693 172 l 329 172 l 271 0 l 22 0 l 375 975 l 650 975 l 1003 0 l 751 0 l 693 172 m 633 353 l 511 713 l 390 353 l 633 353 m 750 1282 q 685 1105 750 1168 q 513 1042 619 1042 q 341 1105 406 1042 q 276 1282 276 1168 l 276 1308 l 394 1308 q 421 1239 394 1263 q 513 1215 447 1215 q 604 1239 578 1215 q 631 1308 631 1263 l 750 1308 l 750 1282 z "},"ă":{"ha":943,"x_min":39,"x_max":857,"o":"m 39 389 q 84 599 39 508 q 207 738 129 689 q 381 786 285 786 q 524 753 463 786 q 619 665 586 719 l 619 775 l 857 775 l 857 0 l 619 0 l 619 110 q 523 22 585 56 q 379 -11 461 -11 q 207 38 285 -11 q 84 178 129 88 q 39 389 39 269 m 619 388 q 570 528 619 476 q 450 579 521 579 q 330 528 379 579 q 281 389 281 478 q 330 248 281 300 q 450 196 379 196 q 570 247 521 196 q 619 388 619 299 m 714 1079 q 649 902 714 965 q 476 839 583 839 q 305 902 369 839 q 240 1079 240 965 l 240 1106 l 358 1106 q 385 1036 358 1060 q 476 1013 411 1013 q 568 1036 542 1013 q 594 1106 594 1060 l 714 1106 l 714 1079 z "},"Ą":{"ha":1024,"x_min":22,"x_max":1013,"o":"m 908 -168 q 1013 -147 953 -168 l 1013 -281 q 875 -301 946 -301 q 728 -260 785 -301 q 671 -139 671 -218 q 689 -60 671 -96 q 749 8 707 -25 l 693 172 l 329 172 l 271 0 l 22 0 l 375 975 l 650 975 l 1003 0 l 938 -31 q 866 -75 886 -54 q 846 -119 846 -96 q 862 -156 846 -143 q 908 -168 878 -168 m 633 353 l 511 713 l 390 353 l 633 353 z "},"ą":{"ha":943,"x_min":39,"x_max":867,"o":"m 39 389 q 84 599 39 508 q 207 738 129 689 q 381 786 285 786 q 524 753 463 786 q 619 665 586 719 l 619 775 l 857 775 l 857 0 l 619 0 l 619 110 q 523 22 585 56 q 379 -11 461 -11 q 207 38 285 -11 q 84 178 129 88 q 39 389 39 269 m 619 388 q 570 528 619 476 q 450 579 521 579 q 330 528 379 579 q 281 389 281 478 q 330 248 281 300 q 450 196 379 196 q 570 247 521 196 q 619 388 619 299 m 857 0 l 793 -32 q 721 -78 742 -58 q 700 -122 700 -99 q 716 -156 700 -143 q 761 -168 732 -168 q 867 -147 808 -168 l 867 -281 q 731 -301 801 -301 q 583 -260 640 -301 q 525 -143 525 -219 q 575 -24 525 -78 q 751 83 625 31 l 807 107 l 857 0 z "},"Ć":{"ha":1058,"x_min":46,"x_max":999,"o":"m 46 489 q 108 747 46 633 q 283 923 171 860 q 536 986 394 986 q 833 894 710 986 q 999 644 957 803 l 738 644 q 654 735 707 704 q 533 767 601 767 q 356 691 424 767 q 288 489 288 615 q 356 286 288 363 q 533 210 424 210 q 654 242 601 210 q 738 333 707 274 l 999 333 q 833 84 957 175 q 536 -7 710 -7 q 283 56 394 -7 q 108 232 171 119 q 46 489 46 344 m 690 1171 l 356 1031 l 356 1194 l 690 1356 l 690 1171 z "},"ć":{"ha":840,"x_min":39,"x_max":800,"o":"m 39 388 q 88 599 39 508 q 226 738 138 689 q 428 786 314 786 q 672 710 574 786 q 800 494 769 633 l 547 494 q 424 583 515 583 q 319 533 358 583 q 281 388 281 482 q 319 242 281 293 q 424 192 358 192 q 547 281 515 192 l 800 281 q 671 67 769 144 q 428 -11 572 -11 q 226 38 314 -11 q 88 176 138 86 q 39 388 39 267 m 578 968 l 243 828 l 243 992 l 578 1153 l 578 968 z "},"Ċ":{"ha":1058,"x_min":46,"x_max":999,"o":"m 46 489 q 108 747 46 633 q 283 923 171 860 q 536 986 394 986 q 833 894 710 986 q 999 644 957 803 l 738 644 q 654 735 707 704 q 533 767 601 767 q 356 691 424 767 q 288 489 288 615 q 356 286 288 363 q 533 210 424 210 q 654 242 601 210 q 738 333 707 274 l 999 333 q 833 84 957 175 q 536 -7 710 -7 q 283 56 394 -7 q 108 232 171 119 q 46 489 46 344 m 528 1064 q 456 1093 485 1064 q 426 1165 426 1122 q 456 1238 426 1208 q 528 1268 485 1268 q 601 1239 572 1268 q 631 1165 631 1210 q 601 1093 631 1122 q 528 1064 571 1064 z "},"ċ":{"ha":840,"x_min":39,"x_max":800,"o":"m 39 388 q 88 599 39 508 q 226 738 138 689 q 428 786 314 786 q 672 710 574 786 q 800 494 769 633 l 547 494 q 424 583 515 583 q 319 533 358 583 q 281 388 281 482 q 319 242 281 293 q 424 192 358 192 q 547 281 515 192 l 800 281 q 671 67 769 144 q 428 -11 572 -11 q 226 38 314 -11 q 88 176 138 86 q 39 388 39 267 m 414 861 q 342 890 371 861 q 313 963 313 919 q 342 1035 313 1006 q 414 1065 371 1065 q 488 1036 458 1065 q 517 963 517 1007 q 487 890 517 919 q 414 861 457 861 z "},"Č":{"ha":1058,"x_min":46,"x_max":999,"o":"m 46 489 q 108 747 46 633 q 283 923 171 860 q 536 986 394 986 q 833 894 710 986 q 999 644 957 803 l 738 644 q 654 735 707 704 q 533 767 601 767 q 356 691 424 767 q 288 489 288 615 q 356 286 288 363 q 533 210 424 210 q 654 242 601 210 q 738 333 707 274 l 999 333 q 833 84 957 175 q 536 -7 710 -7 q 283 56 394 -7 q 108 232 171 119 q 46 489 46 344 m 744 1144 l 529 1028 l 314 1144 l 314 1308 l 529 1188 l 744 1308 l 744 1144 z "},"č":{"ha":840,"x_min":39,"x_max":800,"o":"m 39 388 q 88 599 39 508 q 226 738 138 689 q 428 786 314 786 q 672 710 574 786 q 800 494 769 633 l 547 494 q 424 583 515 583 q 319 533 358 583 q 281 388 281 482 q 319 242 281 293 q 424 192 358 192 q 547 281 515 192 l 800 281 q 671 67 769 144 q 428 -11 572 -11 q 226 38 314 -11 q 88 176 138 86 q 39 388 39 267 m 631 942 l 415 825 l 200 942 l 200 1106 l 415 985 l 631 1106 l 631 942 z "},"Ď":{"ha":1010,"x_min":86,"x_max":963,"o":"m 451 975 q 721 914 606 975 q 899 742 836 853 q 963 488 963 632 q 899 233 963 344 q 720 61 836 122 q 451 0 604 0 l 86 0 l 86 975 l 451 975 m 436 203 q 646 278 571 203 q 721 488 721 353 q 646 697 721 622 q 436 772 571 772 l 324 772 l 324 203 l 436 203 m 711 1144 l 496 1028 l 281 1144 l 281 1308 l 496 1188 l 711 1308 l 711 1144 z "},"ď":{"ha":1158,"x_min":39,"x_max":1144,"o":"m 39 389 q 84 599 39 508 q 207 738 129 689 q 381 786 285 786 q 520 754 457 786 q 619 668 583 722 l 619 1028 l 857 1028 l 857 0 l 619 0 l 619 111 q 524 22 586 56 q 381 -11 463 -11 q 207 38 285 -11 q 84 178 129 88 q 39 389 39 269 m 1117 1028 q 1144 864 1144 944 q 1095 710 1144 767 q 950 653 1046 653 l 950 743 q 1022 835 1022 743 l 1022 857 l 935 857 l 935 1028 l 1117 1028 m 619 388 q 570 528 619 476 q 450 579 521 579 q 330 528 379 579 q 281 389 281 478 q 330 248 281 300 q 450 196 379 196 q 570 247 521 196 q 619 388 619 299 z "},"Đ":{"ha":1017,"x_min":6,"x_max":969,"o":"m 458 975 q 728 914 613 975 q 907 742 844 853 q 969 488 969 632 q 907 233 969 344 q 728 61 844 122 q 458 0 613 0 l 93 0 l 93 389 l 6 389 l 6 586 l 93 586 l 93 975 l 458 975 m 444 203 q 653 278 578 203 q 728 488 728 353 q 653 697 728 622 q 444 772 578 772 l 332 772 l 332 586 l 543 586 l 543 389 l 332 389 l 332 203 l 444 203 z "},"đ":{"ha":961,"x_min":39,"x_max":943,"o":"m 943 821 l 857 821 l 857 0 l 619 0 l 619 111 q 524 22 586 56 q 381 -11 463 -11 q 207 38 285 -11 q 84 178 129 88 q 39 389 39 269 q 84 599 39 508 q 207 738 129 689 q 381 786 285 786 q 520 754 457 786 q 619 668 583 722 l 619 821 l 522 821 l 522 935 l 619 935 l 619 1028 l 857 1028 l 857 935 l 943 935 l 943 821 m 450 196 q 570 247 521 196 q 619 388 619 299 q 570 528 619 476 q 450 579 521 579 q 330 528 379 579 q 281 389 281 478 q 330 248 281 300 q 450 196 379 196 z "},"Ē":{"ha":751,"x_min":86,"x_max":683,"o":"m 324 788 l 324 585 l 642 585 l 642 406 l 324 406 l 324 188 l 683 188 l 683 0 l 86 0 l 86 975 l 683 975 l 683 788 l 324 788 m 657 1239 l 657 1075 l 101 1075 l 101 1239 l 657 1239 z "},"ē":{"ha":856,"x_min":39,"x_max":817,"o":"m 817 401 q 813 333 817 369 l 275 333 q 321 221 281 260 q 422 182 361 182 q 546 257 511 182 l 799 257 q 728 119 779 181 q 601 24 678 58 q 431 -11 525 -11 q 228 38 317 -11 q 89 176 139 86 q 39 388 39 267 q 88 599 39 508 q 226 738 138 689 q 431 786 315 786 q 631 739 543 786 q 767 604 718 692 q 817 401 817 517 m 574 454 q 532 558 574 521 q 428 596 490 596 q 326 559 367 596 q 275 454 285 522 l 574 454 m 717 1036 l 717 872 l 161 872 l 161 1036 l 717 1036 z "},"Ĕ":{"ha":751,"x_min":86,"x_max":683,"o":"m 324 788 l 324 585 l 642 585 l 642 406 l 324 406 l 324 188 l 683 188 l 683 0 l 86 0 l 86 975 l 683 975 l 683 788 l 324 788 m 615 1282 q 550 1105 615 1168 q 378 1042 485 1042 q 206 1105 271 1042 q 142 1282 142 1168 l 142 1308 l 260 1308 q 286 1239 260 1263 q 378 1215 313 1215 q 469 1239 443 1215 q 496 1308 496 1263 l 615 1308 l 615 1282 z "},"ĕ":{"ha":856,"x_min":39,"x_max":817,"o":"m 817 401 q 813 333 817 369 l 275 333 q 321 221 281 260 q 422 182 361 182 q 546 257 511 182 l 799 257 q 728 119 779 181 q 601 24 678 58 q 431 -11 525 -11 q 228 38 317 -11 q 89 176 139 86 q 39 388 39 267 q 88 599 39 508 q 226 738 138 689 q 431 786 315 786 q 631 739 543 786 q 767 604 718 692 q 817 401 817 517 m 574 454 q 532 558 574 521 q 428 596 490 596 q 326 559 367 596 q 275 454 285 522 l 574 454 m 676 1079 q 611 902 676 965 q 439 839 546 839 q 267 902 332 839 q 203 1079 203 965 l 203 1106 l 321 1106 q 347 1036 321 1060 q 439 1013 374 1013 q 531 1036 504 1013 q 557 1106 557 1060 l 676 1106 l 676 1079 z "},"Ė":{"ha":751,"x_min":86,"x_max":683,"o":"m 324 788 l 324 585 l 642 585 l 642 406 l 324 406 l 324 188 l 683 188 l 683 0 l 86 0 l 86 975 l 683 975 l 683 788 l 324 788 m 376 1064 q 304 1093 333 1064 q 275 1165 275 1122 q 304 1238 275 1208 q 376 1268 333 1268 q 450 1239 421 1268 q 479 1165 479 1210 q 449 1093 479 1122 q 376 1064 419 1064 z "},"ė":{"ha":856,"x_min":39,"x_max":817,"o":"m 817 401 q 813 333 817 369 l 275 333 q 321 221 281 260 q 422 182 361 182 q 546 257 511 182 l 799 257 q 728 119 779 181 q 601 24 678 58 q 431 -11 525 -11 q 228 38 317 -11 q 89 176 139 86 q 39 388 39 267 q 88 599 39 508 q 226 738 138 689 q 431 786 315 786 q 631 739 543 786 q 767 604 718 692 q 817 401 817 517 m 574 454 q 532 558 574 521 q 428 596 490 596 q 326 559 367 596 q 275 454 285 522 l 574 454 m 438 861 q 365 890 394 861 q 336 963 336 919 q 365 1035 336 1006 q 438 1065 394 1065 q 511 1036 482 1065 q 540 963 540 1007 q 510 890 540 919 q 438 861 481 861 z "},"Ę":{"ha":751,"x_min":86,"x_max":693,"o":"m 324 788 l 324 585 l 642 585 l 642 406 l 324 406 l 324 188 l 683 188 l 683 0 l 86 0 l 86 975 l 683 975 l 683 788 l 324 788 m 683 0 l 619 -32 q 547 -78 568 -58 q 526 -122 526 -99 q 542 -156 526 -143 q 588 -168 558 -168 q 693 -147 635 -168 l 693 -281 q 557 -301 628 -301 q 409 -260 467 -301 q 351 -143 351 -219 q 401 -24 351 -78 q 578 83 451 31 l 633 107 l 683 0 z "},"ę":{"ha":856,"x_min":39,"x_max":817,"o":"m 817 401 q 813 333 817 369 l 275 333 q 321 221 281 260 q 422 182 361 182 q 546 257 511 182 l 799 257 q 728 119 779 181 q 601 24 678 58 q 431 -11 525 -11 q 228 38 317 -11 q 89 176 139 86 q 39 388 39 267 q 88 599 39 508 q 226 738 138 689 q 431 786 315 786 q 631 739 543 786 q 767 604 718 692 q 817 401 817 517 m 574 454 q 532 558 574 521 q 428 596 490 596 q 326 559 367 596 q 275 454 285 522 l 574 454 m 569 15 l 506 -17 q 433 -63 454 -43 q 413 -107 413 -83 q 428 -140 413 -128 q 474 -153 444 -153 q 579 -132 521 -153 l 579 -265 q 443 -286 514 -286 q 295 -245 353 -286 q 238 -128 238 -204 q 288 -8 238 -62 q 464 99 338 46 l 519 122 l 569 15 z "},"Ě":{"ha":751,"x_min":86,"x_max":683,"o":"m 324 788 l 324 585 l 642 585 l 642 406 l 324 406 l 324 188 l 683 188 l 683 0 l 86 0 l 86 975 l 683 975 l 683 788 l 324 788 m 593 1144 l 378 1028 l 163 1144 l 163 1308 l 378 1188 l 593 1308 l 593 1144 z "},"ě":{"ha":856,"x_min":39,"x_max":817,"o":"m 817 401 q 813 333 817 369 l 275 333 q 321 221 281 260 q 422 182 361 182 q 546 257 511 182 l 799 257 q 728 119 779 181 q 601 24 678 58 q 431 -11 525 -11 q 228 38 317 -11 q 89 176 139 86 q 39 388 39 267 q 88 599 39 508 q 226 738 138 689 q 431 786 315 786 q 631 739 543 786 q 767 604 718 692 q 817 401 817 517 m 574 454 q 532 558 574 521 q 428 596 490 596 q 326 559 367 596 q 275 454 285 522 l 574 454 m 654 942 l 439 825 l 224 942 l 224 1106 l 439 985 l 654 1106 l 654 942 z "},"Ğ":{"ha":1058,"x_min":46,"x_max":1013,"o":"m 46 489 q 109 747 46 633 q 285 923 172 860 q 542 986 397 986 q 837 901 717 986 q 996 667 957 817 l 733 667 q 658 741 707 715 q 542 767 608 767 q 357 691 426 767 q 288 489 288 615 q 360 278 288 354 q 561 203 433 203 q 710 248 649 203 q 797 376 771 293 l 496 376 l 496 550 l 1013 550 l 1013 329 q 923 164 986 240 q 763 40 860 88 q 543 -7 665 -7 q 285 56 399 -7 q 109 232 172 119 q 46 489 46 344 m 767 1282 q 701 1105 767 1168 q 529 1042 636 1042 q 358 1105 422 1042 q 293 1282 293 1168 l 293 1308 l 411 1308 q 438 1239 411 1263 q 529 1215 464 1215 q 621 1239 594 1215 q 647 1308 647 1263 l 767 1308 l 767 1282 z "},"ğ":{"ha":943,"x_min":39,"x_max":857,"o":"m 381 786 q 524 753 463 786 q 619 665 586 719 l 619 775 l 857 775 l 857 1 q 815 -192 857 -106 q 685 -331 772 -279 q 469 -382 599 -382 q 190 -301 297 -382 q 68 -81 83 -219 l 303 -81 q 356 -151 314 -125 q 458 -176 397 -176 q 576 -134 532 -176 q 619 1 619 -92 l 619 111 q 524 23 585 57 q 381 -11 463 -11 q 207 38 285 -11 q 84 178 129 88 q 39 389 39 269 q 84 599 39 508 q 207 738 129 689 q 381 786 285 786 m 619 388 q 570 528 619 476 q 450 579 521 579 q 330 528 379 579 q 281 389 281 478 q 330 248 281 300 q 450 196 379 196 q 570 247 521 196 q 619 388 619 299 m 714 1079 q 649 902 714 965 q 476 839 583 839 q 305 902 369 839 q 240 1079 240 965 l 240 1106 l 358 1106 q 385 1036 358 1060 q 476 1013 411 1013 q 568 1036 542 1013 q 594 1106 594 1060 l 714 1106 l 714 1079 z "},"Ġ":{"ha":1058,"x_min":46,"x_max":1013,"o":"m 46 489 q 109 747 46 633 q 285 923 172 860 q 542 986 397 986 q 837 901 717 986 q 996 667 957 817 l 733 667 q 658 741 707 715 q 542 767 608 767 q 357 691 426 767 q 288 489 288 615 q 360 278 288 354 q 561 203 433 203 q 710 248 649 203 q 797 376 771 293 l 496 376 l 496 550 l 1013 550 l 1013 329 q 923 164 986 240 q 763 40 860 88 q 543 -7 665 -7 q 285 56 399 -7 q 109 232 172 119 q 46 489 46 344 m 528 1064 q 456 1093 485 1064 q 426 1165 426 1122 q 456 1238 426 1208 q 528 1268 485 1268 q 601 1239 572 1268 q 631 1165 631 1210 q 601 1093 631 1122 q 528 1064 571 1064 z "},"ġ":{"ha":943,"x_min":39,"x_max":857,"o":"m 381 786 q 524 753 463 786 q 619 665 586 719 l 619 775 l 857 775 l 857 1 q 815 -192 857 -106 q 685 -331 772 -279 q 469 -382 599 -382 q 190 -301 297 -382 q 68 -81 83 -219 l 303 -81 q 356 -151 314 -125 q 458 -176 397 -176 q 576 -134 532 -176 q 619 1 619 -92 l 619 111 q 524 23 585 57 q 381 -11 463 -11 q 207 38 285 -11 q 84 178 129 88 q 39 389 39 269 q 84 599 39 508 q 207 738 129 689 q 381 786 285 786 m 619 388 q 570 528 619 476 q 450 579 521 579 q 330 528 379 579 q 281 389 281 478 q 330 248 281 300 q 450 196 379 196 q 570 247 521 196 q 619 388 619 299 m 475 861 q 403 890 432 861 q 374 963 374 919 q 403 1035 374 1006 q 475 1065 432 1065 q 549 1036 519 1065 q 578 963 578 1007 q 548 890 578 919 q 475 861 518 861 z "},"Ģ":{"ha":1061,"x_min":46,"x_max":1013,"o":"m 46 489 q 109 747 46 633 q 285 923 172 860 q 542 986 397 986 q 837 901 717 986 q 996 667 957 817 l 733 667 q 658 741 707 715 q 542 767 608 767 q 357 691 426 767 q 288 489 288 615 q 360 278 288 354 q 561 203 433 203 q 710 248 649 203 q 797 376 771 293 l 496 376 l 496 550 l 1013 550 l 1013 329 q 923 164 986 240 q 763 40 860 88 q 543 -7 665 -7 q 285 56 399 -7 q 109 232 172 119 q 46 489 46 344 m 618 -56 q 646 -219 646 -139 q 597 -374 646 -317 q 451 -431 547 -431 l 451 -340 q 524 -249 524 -340 l 524 -226 l 436 -226 l 436 -56 l 618 -56 z "},"ģ":{"ha":943,"x_min":39,"x_max":857,"o":"m 397 831 q 369 994 369 914 q 419 1149 369 1092 q 564 1206 468 1206 l 564 1115 q 492 1024 492 1115 l 492 1001 l 579 1001 l 579 831 l 397 831 m 381 786 q 524 753 463 786 q 619 665 586 719 l 619 775 l 857 775 l 857 1 q 815 -192 857 -106 q 685 -331 772 -279 q 469 -382 599 -382 q 190 -301 297 -382 q 68 -81 83 -219 l 303 -81 q 356 -151 314 -125 q 458 -176 397 -176 q 576 -134 532 -176 q 619 1 619 -92 l 619 111 q 524 23 585 57 q 381 -11 463 -11 q 207 38 285 -11 q 84 178 129 88 q 39 389 39 269 q 84 599 39 508 q 207 738 129 689 q 381 786 285 786 m 619 388 q 570 528 619 476 q 450 579 521 579 q 330 528 379 579 q 281 389 281 478 q 330 248 281 300 q 450 196 379 196 q 570 247 521 196 q 619 388 619 299 z "},"Ĩ":{"ha":410,"x_min":-72,"x_max":483,"o":"m 324 975 l 324 0 l 86 0 l 86 975 l 324 975 m -72 1050 q 119 1256 -39 1256 q 173 1247 150 1256 q 229 1219 196 1238 q 269 1199 254 1206 q 301 1193 285 1193 q 361 1256 353 1193 l 483 1256 q 292 1050 450 1050 q 238 1059 261 1050 q 182 1086 215 1068 q 142 1106 157 1100 q 110 1113 126 1113 q 49 1050 58 1113 l -72 1050 z "},"ĩ":{"ha":446,"x_min":-54,"x_max":501,"o":"m 342 775 l 342 0 l 104 0 l 104 775 l 342 775 m -54 847 q 138 1053 -21 1053 q 191 1044 168 1053 q 247 1017 214 1035 q 288 997 272 1003 q 319 990 303 990 q 379 1053 371 990 l 501 1053 q 310 847 468 847 q 256 856 279 847 q 200 883 233 865 q 160 903 175 897 q 128 910 144 910 q 67 847 76 910 l -54 847 z "},"Ī":{"ha":410,"x_min":-72,"x_max":483,"o":"m 324 975 l 324 0 l 86 0 l 86 975 l 324 975 m 483 1239 l 483 1075 l -72 1075 l -72 1239 l 483 1239 z "},"ī":{"ha":446,"x_min":-54,"x_max":501,"o":"m 342 775 l 342 0 l 104 0 l 104 775 l 342 775 m 501 1036 l 501 872 l -54 872 l -54 1036 l 501 1036 z "},"Ĭ":{"ha":410,"x_min":-31,"x_max":443,"o":"m 324 975 l 324 0 l 86 0 l 86 975 l 324 975 m 443 1282 q 378 1105 443 1168 q 206 1042 313 1042 q 34 1105 99 1042 q -31 1282 -31 1168 l -31 1308 l 88 1308 q 114 1239 88 1263 q 206 1215 140 1215 q 297 1239 271 1215 q 324 1308 324 1263 l 443 1308 l 443 1282 z "},"ĭ":{"ha":446,"x_min":-12,"x_max":461,"o":"m 342 775 l 342 0 l 104 0 l 104 775 l 342 775 m 461 1079 q 396 902 461 965 q 224 839 331 839 q 52 902 117 839 q -12 1079 -12 965 l -12 1106 l 106 1106 q 132 1036 106 1060 q 224 1013 158 1013 q 315 1036 289 1013 q 342 1106 342 1060 l 461 1106 l 461 1079 z "},"Į":{"ha":410,"x_min":-8,"x_max":333,"o":"m 324 975 l 324 0 l 86 0 l 86 975 l 324 975 m 324 0 l 260 -32 q 188 -78 208 -58 q 167 -122 167 -99 q 183 -156 167 -143 q 228 -168 199 -168 q 333 -147 275 -168 l 333 -281 q 197 -301 268 -301 q 49 -260 107 -301 q -8 -143 -8 -219 q 42 -24 -8 -78 q 218 83 92 31 l 274 107 l 324 0 z "},"į":{"ha":410,"x_min":-8,"x_max":346,"o":"m 206 856 q 103 892 143 856 q 64 983 64 929 q 103 1076 64 1039 q 206 1113 143 1113 q 306 1076 267 1113 q 346 983 346 1039 q 306 892 346 929 q 206 856 267 856 m 324 775 l 324 0 l 86 0 l 86 775 l 324 775 m 324 0 l 260 -32 q 188 -78 208 -58 q 167 -122 167 -99 q 183 -156 167 -143 q 228 -168 199 -168 q 333 -147 275 -168 l 333 -281 q 197 -301 268 -301 q 49 -260 107 -301 q -8 -143 -8 -219 q 42 -24 -8 -78 q 218 83 92 31 l 274 107 l 324 0 z "},"İ":{"ha":410,"x_min":86,"x_max":324,"o":"m 324 975 l 324 0 l 86 0 l 86 975 l 324 975 m 204 1064 q 132 1093 161 1064 q 103 1165 103 1122 q 132 1238 103 1208 q 204 1268 161 1268 q 278 1239 249 1268 q 307 1165 307 1210 q 277 1093 307 1122 q 204 1064 247 1064 z "},"ı":{"ha":446,"x_min":104,"x_max":342,"o":"m 342 775 l 342 0 l 104 0 l 104 775 l 342 775 z "},"Ķ":{"ha":1000,"x_min":86,"x_max":942,"o":"m 942 0 l 651 0 l 324 431 l 324 0 l 86 0 l 86 975 l 324 975 l 324 547 l 649 975 l 928 975 l 550 497 l 942 0 m 588 -56 q 615 -219 615 -139 q 566 -374 615 -317 q 421 -431 517 -431 l 421 -340 q 493 -249 493 -340 l 493 -226 l 406 -226 l 406 -56 l 588 -56 z "},"ķ":{"ha":858,"x_min":86,"x_max":854,"o":"m 854 0 l 560 0 l 324 325 l 324 0 l 86 0 l 86 1028 l 324 1028 l 324 460 l 558 775 l 851 775 l 529 386 l 854 0 m 521 -56 q 547 -219 547 -140 q 498 -374 547 -317 q 353 -431 449 -431 l 353 -340 q 426 -249 426 -340 l 426 -226 l 339 -226 l 339 -56 l 521 -56 z "},"Ĺ":{"ha":663,"x_min":86,"x_max":635,"o":"m 324 181 l 635 181 l 635 0 l 86 0 l 86 975 l 324 975 l 324 181 m 476 1171 l 142 1031 l 142 1194 l 476 1356 l 476 1171 z "},"ĺ":{"ha":410,"x_min":32,"x_max":367,"o":"m 324 1028 l 324 0 l 86 0 l 86 1028 l 324 1028 m 367 1221 l 32 1081 l 32 1244 l 367 1406 l 367 1221 z "},"Ļ":{"ha":665,"x_min":86,"x_max":635,"o":"m 324 181 l 635 181 l 635 0 l 86 0 l 86 975 l 324 975 l 324 181 m 463 -56 q 490 -219 490 -139 q 441 -374 490 -317 q 296 -431 392 -431 l 296 -340 q 368 -249 368 -340 l 368 -226 l 281 -226 l 281 -56 l 463 -56 z "},"ļ":{"ha":410,"x_min":86,"x_max":325,"o":"m 324 1028 l 324 0 l 86 0 l 86 1028 l 324 1028 m 297 -56 q 325 -219 325 -139 q 276 -374 325 -317 q 131 -431 226 -431 l 131 -340 q 203 -249 203 -340 l 203 -226 l 115 -226 l 115 -56 l 297 -56 z "},"Ľ":{"ha":726,"x_min":86,"x_max":675,"o":"m 324 181 l 635 181 l 635 0 l 86 0 l 86 975 l 324 975 l 324 181 m 647 975 q 675 811 675 892 q 626 657 675 714 q 481 600 576 600 l 481 690 q 553 782 553 690 l 553 804 l 465 804 l 465 975 l 647 975 z "},"ľ":{"ha":658,"x_min":86,"x_max":622,"o":"m 324 1028 l 324 0 l 86 0 l 86 1028 l 324 1028 m 596 1028 q 622 864 622 949 q 574 710 622 767 q 429 653 525 653 l 429 743 q 501 835 501 743 l 501 857 l 414 857 l 414 1028 l 596 1028 z "},"Ŀ":{"ha":663,"x_min":86,"x_max":635,"o":"m 324 181 l 635 181 l 635 0 l 86 0 l 86 975 l 324 975 l 324 181 m 313 1064 q 240 1093 269 1064 q 211 1165 211 1122 q 240 1238 211 1208 q 313 1268 269 1268 q 386 1239 357 1268 q 415 1165 415 1210 q 385 1093 415 1122 q 313 1064 356 1064 z "},"ŀ":{"ha":410,"x_min":86,"x_max":324,"o":"m 103 1188 q 132 1261 103 1232 q 204 1290 161 1290 q 278 1261 249 1290 q 307 1188 307 1232 q 278 1115 307 1144 q 204 1085 249 1085 q 132 1114 161 1085 q 103 1188 103 1143 m 324 1028 l 324 0 l 86 0 l 86 1028 l 324 1028 z "},"Ł":{"ha":674,"x_min":14,"x_max":653,"o":"m 653 181 l 653 0 l 104 0 l 104 361 l 14 335 l 14 561 l 104 589 l 104 975 l 342 975 l 342 660 l 457 694 l 457 465 l 342 432 l 342 181 l 653 181 z "},"ł":{"ha":446,"x_min":14,"x_max":433,"o":"m 433 458 l 342 431 l 342 0 l 104 0 l 104 360 l 14 332 l 14 560 l 104 588 l 104 1028 l 342 1028 l 342 658 l 433 686 l 433 458 z "},"Ń":{"ha":1044,"x_min":86,"x_max":958,"o":"m 958 0 l 721 0 l 324 601 l 324 0 l 86 0 l 86 975 l 324 975 l 721 371 l 721 975 l 958 975 l 958 0 m 683 1171 l 349 1031 l 349 1194 l 683 1356 l 683 1171 z "},"ń":{"ha":936,"x_min":86,"x_max":857,"o":"m 558 783 q 776 695 694 783 q 857 453 857 607 l 857 0 l 621 0 l 621 421 q 581 542 621 499 q 472 585 540 585 q 364 542 404 585 q 324 421 324 499 l 324 0 l 86 0 l 86 775 l 324 775 l 324 672 q 421 753 360 724 q 558 783 482 783 m 663 968 l 328 828 l 328 992 l 663 1153 l 663 968 z "},"Ņ":{"ha":1081,"x_min":86,"x_max":958,"o":"m 958 0 l 721 0 l 324 601 l 324 0 l 86 0 l 86 975 l 324 975 l 721 371 l 721 975 l 958 975 l 958 0 m 628 -56 q 656 -219 656 -139 q 606 -374 656 -317 q 461 -431 557 -431 l 461 -340 q 533 -249 533 -340 l 533 -226 l 446 -226 l 446 -56 l 628 -56 z "},"ņ":{"ha":936,"x_min":86,"x_max":857,"o":"m 558 783 q 776 695 694 783 q 857 453 857 607 l 857 0 l 621 0 l 621 421 q 581 542 621 499 q 472 585 540 585 q 364 542 404 585 q 324 421 324 499 l 324 0 l 86 0 l 86 775 l 324 775 l 324 672 q 421 753 360 724 q 558 783 482 783 m 574 -56 q 601 -219 601 -139 q 552 -374 601 -317 q 407 -431 503 -431 l 407 -340 q 479 -249 479 -340 l 479 -226 l 392 -226 l 392 -56 l 574 -56 z "},"Ň":{"ha":1044,"x_min":86,"x_max":958,"o":"m 958 0 l 721 0 l 324 601 l 324 0 l 86 0 l 86 975 l 324 975 l 721 371 l 721 975 l 958 975 l 958 0 m 738 1144 l 522 1028 l 307 1144 l 307 1308 l 522 1188 l 738 1308 l 738 1144 z "},"ň":{"ha":936,"x_min":86,"x_max":857,"o":"m 558 783 q 776 695 694 783 q 857 453 857 607 l 857 0 l 621 0 l 621 421 q 581 542 621 499 q 472 585 540 585 q 364 542 404 585 q 324 421 324 499 l 324 0 l 86 0 l 86 775 l 324 775 l 324 672 q 421 753 360 724 q 558 783 482 783 m 717 942 l 501 825 l 286 942 l 286 1106 l 501 985 l 717 1106 l 717 942 z "},"Ō":{"ha":1092,"x_min":46,"x_max":1046,"o":"m 547 -10 q 295 54 410 -10 q 113 233 181 118 q 46 490 46 347 q 113 747 46 633 q 295 925 181 861 q 547 989 410 989 q 799 925 685 989 q 980 747 914 861 q 1046 490 1046 633 q 979 233 1046 347 q 799 54 913 118 q 547 -10 685 -10 m 547 210 q 734 286 664 210 q 804 490 804 363 q 734 694 804 618 q 547 771 664 771 q 359 694 429 771 q 289 490 289 618 q 359 286 289 363 q 547 210 429 210 m 825 1239 l 825 1075 l 269 1075 l 269 1239 l 825 1239 z "},"ō":{"ha":885,"x_min":39,"x_max":844,"o":"m 439 -11 q 234 38 325 -11 q 91 176 143 86 q 39 388 39 267 q 92 598 39 507 q 236 738 144 689 q 442 786 328 786 q 647 738 556 786 q 792 598 739 689 q 844 388 844 507 q 791 177 844 268 q 645 38 738 86 q 439 -11 553 -11 m 439 193 q 555 244 507 193 q 603 388 603 294 q 556 531 603 481 q 442 582 510 582 q 326 532 372 582 q 281 388 281 482 q 326 244 281 294 q 439 193 371 193 m 739 1036 l 739 872 l 183 872 l 183 1036 l 739 1036 z "},"Ŏ":{"ha":1092,"x_min":46,"x_max":1046,"o":"m 547 -10 q 295 54 410 -10 q 113 233 181 118 q 46 490 46 347 q 113 747 46 633 q 295 925 181 861 q 547 989 410 989 q 799 925 685 989 q 980 747 914 861 q 1046 490 1046 633 q 979 233 1046 347 q 799 54 913 118 q 547 -10 685 -10 m 547 210 q 734 286 664 210 q 804 490 804 363 q 734 694 804 618 q 547 771 664 771 q 359 694 429 771 q 289 490 289 618 q 359 286 289 363 q 547 210 429 210 m 785 1282 q 719 1105 785 1168 q 547 1042 654 1042 q 376 1105 440 1042 q 311 1282 311 1168 l 311 1308 l 429 1308 q 456 1239 429 1263 q 547 1215 482 1215 q 639 1239 613 1215 q 665 1308 665 1263 l 785 1308 l 785 1282 z "},"ŏ":{"ha":885,"x_min":39,"x_max":844,"o":"m 439 -11 q 234 38 325 -11 q 91 176 143 86 q 39 388 39 267 q 92 598 39 507 q 236 738 144 689 q 442 786 328 786 q 647 738 556 786 q 792 598 739 689 q 844 388 844 507 q 791 177 844 268 q 645 38 738 86 q 439 -11 553 -11 m 439 193 q 555 244 507 193 q 603 388 603 294 q 556 531 603 481 q 442 582 510 582 q 326 532 372 582 q 281 388 281 482 q 326 244 281 294 q 439 193 371 193 m 699 1079 q 633 902 699 965 q 461 839 568 839 q 290 902 354 839 q 225 1079 225 965 l 225 1106 l 343 1106 q 369 1036 343 1060 q 461 1013 396 1013 q 553 1036 526 1013 q 579 1106 579 1060 l 699 1106 l 699 1079 z "},"Ő":{"ha":1092,"x_min":46,"x_max":1046,"o":"m 547 -10 q 295 54 410 -10 q 113 233 181 118 q 46 490 46 347 q 113 747 46 633 q 295 925 181 861 q 547 989 410 989 q 799 925 685 989 q 980 747 914 861 q 1046 490 1046 633 q 979 233 1046 347 q 799 54 913 118 q 547 -10 685 -10 m 547 210 q 734 286 664 210 q 804 490 804 363 q 734 694 804 618 q 547 771 664 771 q 359 694 429 771 q 289 490 289 618 q 359 286 289 363 q 547 210 429 210 m 468 1038 l 322 1038 l 426 1328 l 614 1328 l 468 1038 m 736 1038 l 590 1038 l 722 1328 l 910 1328 l 736 1038 z "},"ő":{"ha":885,"x_min":39,"x_max":844,"o":"m 439 -11 q 234 38 325 -11 q 91 176 143 86 q 39 388 39 267 q 92 598 39 507 q 236 738 144 689 q 442 786 328 786 q 647 738 556 786 q 792 598 739 689 q 844 388 844 507 q 791 177 844 268 q 645 38 738 86 q 439 -11 553 -11 m 439 193 q 555 244 507 193 q 603 388 603 294 q 556 531 603 481 q 442 582 510 582 q 326 532 372 582 q 281 388 281 482 q 326 244 281 294 q 439 193 371 193 m 382 835 l 236 835 l 340 1125 l 528 1125 l 382 835 m 650 835 l 504 835 l 636 1125 l 824 1125 l 650 835 z "},"Œ":{"ha":1476,"x_min":46,"x_max":1410,"o":"m 1049 585 l 1368 585 l 1368 404 l 1049 404 l 1049 188 l 1410 188 l 1410 0 l 811 0 l 811 100 q 528 -14 710 -10 q 283 50 393 -14 q 110 229 174 114 q 46 489 46 344 q 110 747 46 633 q 284 925 174 861 q 528 989 394 989 q 686 961 614 989 q 811 878 758 933 l 811 975 l 1410 975 l 1410 788 l 1049 788 l 1049 585 m 289 489 q 359 282 289 360 q 547 204 429 204 q 734 282 664 204 q 804 489 804 360 q 734 694 804 618 q 547 771 664 771 q 359 694 429 771 q 289 489 289 618 z "},"œ":{"ha":1446,"x_min":39,"x_max":1388,"o":"m 1388 401 q 1382 333 1388 365 l 844 333 q 889 219 850 257 q 989 182 928 182 q 1114 257 1079 182 l 1367 257 q 1297 119 1347 181 q 1169 24 1246 58 q 997 -11 1092 -11 q 843 19 914 -11 q 724 106 772 49 q 597 19 671 49 q 439 -11 524 -11 q 234 38 325 -11 q 91 176 143 86 q 39 388 39 267 q 92 598 39 507 q 236 738 144 689 q 442 786 328 786 q 599 756 525 786 q 724 669 672 725 q 846 756 775 725 q 1001 786 917 786 q 1201 739 1114 786 q 1338 604 1289 692 q 1388 401 1388 517 m 1144 451 q 1101 558 1143 519 q 997 596 1060 596 q 895 558 936 596 q 846 451 854 519 l 1144 451 m 439 193 q 555 244 507 193 q 603 388 603 294 q 556 532 603 482 q 440 582 508 582 q 326 532 372 582 q 281 388 281 482 q 326 244 281 294 q 439 193 371 193 z "},"Ŕ":{"ha":906,"x_min":86,"x_max":851,"o":"m 583 0 l 381 368 l 324 368 l 324 0 l 86 0 l 86 975 l 485 975 q 681 935 600 975 q 803 824 763 894 q 843 668 843 754 q 788 494 843 571 q 626 386 733 418 l 851 0 l 583 0 m 324 536 l 471 536 q 569 568 536 536 q 601 658 601 600 q 569 748 601 715 q 471 781 536 781 l 324 781 l 324 536 m 607 1171 l 272 1031 l 272 1194 l 607 1356 l 607 1171 z "},"ŕ":{"ha":594,"x_min":86,"x_max":567,"o":"m 324 636 q 428 744 365 704 q 567 783 492 783 l 567 532 l 501 532 q 368 494 413 532 q 324 360 324 456 l 324 0 l 86 0 l 86 775 l 324 775 l 324 636 m 521 968 l 186 828 l 186 992 l 521 1153 l 521 968 z "},"Ŗ":{"ha":928,"x_min":86,"x_max":851,"o":"m 851 0 l 583 0 l 381 368 l 324 368 l 324 0 l 86 0 l 86 975 l 485 975 q 681 935 600 975 q 803 824 763 894 q 843 668 843 754 q 788 494 843 571 q 626 386 733 418 l 851 0 m 324 536 l 471 536 q 569 568 536 536 q 601 658 601 600 q 569 748 601 715 q 471 781 536 781 l 324 781 l 324 536 m 551 -56 q 579 -219 579 -139 q 530 -374 579 -317 q 385 -431 481 -431 l 385 -340 q 457 -249 457 -340 l 457 -226 l 369 -226 l 369 -56 l 551 -56 z "},"ŗ":{"ha":594,"x_min":86,"x_max":567,"o":"m 324 636 q 428 744 365 704 q 567 783 492 783 l 567 532 l 501 532 q 368 494 413 532 q 324 360 324 456 l 324 0 l 86 0 l 86 775 l 324 775 l 324 636 m 292 -56 q 318 -219 318 -135 q 269 -374 318 -317 q 125 -431 221 -431 l 125 -340 q 197 -249 197 -340 l 197 -226 l 110 -226 l 110 -56 l 292 -56 z "},"Ř":{"ha":906,"x_min":86,"x_max":851,"o":"m 583 0 l 381 368 l 324 368 l 324 0 l 86 0 l 86 975 l 485 975 q 681 935 600 975 q 803 824 763 894 q 843 668 843 754 q 788 494 843 571 q 626 386 733 418 l 851 0 l 583 0 m 324 536 l 471 536 q 569 568 536 536 q 601 658 601 600 q 569 748 601 715 q 471 781 536 781 l 324 781 l 324 536 m 661 1144 l 446 1028 l 231 1144 l 231 1308 l 446 1188 l 661 1308 l 661 1144 z "},"ř":{"ha":594,"x_min":86,"x_max":575,"o":"m 324 636 q 428 744 365 704 q 567 783 492 783 l 567 532 l 501 532 q 368 494 413 532 q 324 360 324 456 l 324 0 l 86 0 l 86 775 l 324 775 l 324 636 m 575 942 l 360 825 l 144 942 l 144 1106 l 360 985 l 575 1106 l 575 942 z "},"Ś":{"ha":854,"x_min":58,"x_max":794,"o":"m 439 -10 q 247 25 332 -10 q 112 128 163 60 q 58 292 61 196 l 311 292 q 349 207 317 236 q 432 178 381 178 q 515 203 485 178 q 546 272 546 229 q 522 332 546 308 q 462 371 497 356 q 361 406 426 386 q 207 464 267 435 q 104 550 147 493 q 61 699 61 607 q 160 912 61 835 q 417 989 258 989 q 676 912 578 989 q 782 697 775 835 l 525 697 q 491 774 522 747 q 408 801 460 801 q 339 778 365 801 q 313 710 313 754 q 357 636 313 663 q 496 579 401 610 q 649 518 590 547 q 751 433 708 489 q 794 290 794 378 q 752 139 794 207 q 629 31 710 71 q 439 -10 549 -10 m 589 1171 l 254 1031 l 254 1194 l 589 1356 l 589 1171 z "},"ś":{"ha":775,"x_min":44,"x_max":714,"o":"m 400 -11 q 221 24 300 -11 q 96 119 142 58 q 44 254 50 179 l 279 254 q 316 185 283 211 q 399 160 349 160 q 467 178 443 160 q 492 226 492 196 q 457 276 492 260 q 343 311 422 293 q 205 351 260 331 q 110 419 150 372 q 71 543 71 465 q 108 666 71 611 q 215 753 144 721 q 385 786 286 786 q 615 714 531 786 q 711 522 699 642 l 492 522 q 456 590 486 565 q 378 614 426 614 q 314 597 336 614 q 292 550 292 581 q 327 500 292 517 q 438 467 363 483 q 578 424 522 446 q 674 355 633 403 q 714 226 714 307 q 676 104 714 158 q 567 19 639 50 q 400 -11 496 -11 m 558 968 l 224 828 l 224 992 l 558 1153 l 558 968 z "},"Ş":{"ha":854,"x_min":58,"x_max":794,"o":"m 439 -10 q 247 25 332 -10 q 112 128 163 60 q 58 292 61 196 l 311 292 q 349 207 317 236 q 432 178 381 178 q 515 203 485 178 q 546 272 546 229 q 522 332 546 308 q 462 371 497 356 q 361 406 426 386 q 207 464 267 435 q 104 550 147 493 q 61 699 61 607 q 160 912 61 835 q 417 989 258 989 q 676 912 578 989 q 782 697 775 835 l 525 697 q 491 774 522 747 q 408 801 460 801 q 339 778 365 801 q 313 710 313 754 q 357 636 313 663 q 496 579 401 610 q 649 518 590 547 q 751 433 708 489 q 794 290 794 378 q 752 139 794 207 q 629 31 710 71 q 439 -10 549 -10 m 510 -57 q 636 -97 582 -57 q 690 -215 690 -136 q 633 -335 690 -294 q 497 -376 576 -376 l 283 -376 l 283 -246 l 465 -246 q 507 -237 493 -246 q 521 -210 521 -229 q 507 -183 521 -190 q 465 -175 493 -175 l 367 -175 l 367 4 l 510 4 l 510 -57 z "},"ş":{"ha":775,"x_min":44,"x_max":714,"o":"m 400 -11 q 221 24 300 -11 q 96 119 142 58 q 44 254 50 179 l 279 254 q 316 185 283 211 q 399 160 349 160 q 467 178 443 160 q 492 226 492 196 q 457 276 492 260 q 343 311 422 293 q 205 351 260 331 q 110 419 150 372 q 71 543 71 465 q 108 666 71 611 q 215 753 144 721 q 385 786 286 786 q 615 714 531 786 q 711 522 699 642 l 492 522 q 456 590 486 565 q 378 614 426 614 q 314 597 336 614 q 292 550 292 581 q 327 500 292 517 q 438 467 363 483 q 578 424 522 446 q 674 355 633 403 q 714 226 714 307 q 676 104 714 158 q 567 19 639 50 q 400 -11 496 -11 m 478 -57 q 604 -97 550 -57 q 658 -215 658 -136 q 601 -335 658 -294 q 465 -376 544 -376 l 251 -376 l 251 -246 l 433 -246 q 475 -237 461 -246 q 489 -210 489 -229 q 475 -183 489 -190 q 433 -175 461 -175 l 335 -175 l 335 4 l 478 4 l 478 -57 z "},"Š":{"ha":854,"x_min":58,"x_max":794,"o":"m 439 -10 q 247 25 332 -10 q 112 128 163 60 q 58 292 61 196 l 311 292 q 349 207 317 236 q 432 178 381 178 q 515 203 485 178 q 546 272 546 229 q 522 332 546 308 q 462 371 497 356 q 361 406 426 386 q 207 464 267 435 q 104 550 147 493 q 61 699 61 607 q 160 912 61 835 q 417 989 258 989 q 676 912 578 989 q 782 697 775 835 l 525 697 q 491 774 522 747 q 408 801 460 801 q 339 778 365 801 q 313 710 313 754 q 357 636 313 663 q 496 579 401 610 q 649 518 590 547 q 751 433 708 489 q 794 290 794 378 q 752 139 794 207 q 629 31 710 71 q 439 -10 549 -10 m 643 1144 l 428 1028 l 213 1144 l 213 1308 l 428 1188 l 643 1308 l 643 1144 z "},"š":{"ha":775,"x_min":44,"x_max":714,"o":"m 400 -11 q 221 24 300 -11 q 96 119 142 58 q 44 254 50 179 l 279 254 q 316 185 283 211 q 399 160 349 160 q 467 178 443 160 q 492 226 492 196 q 457 276 492 260 q 343 311 422 293 q 205 351 260 331 q 110 419 150 372 q 71 543 71 465 q 108 666 71 611 q 215 753 144 721 q 385 786 286 786 q 615 714 531 786 q 711 522 699 642 l 492 522 q 456 590 486 565 q 378 614 426 614 q 314 597 336 614 q 292 550 292 581 q 327 500 292 517 q 438 467 363 483 q 578 424 522 446 q 674 355 633 403 q 714 226 714 307 q 676 104 714 158 q 567 19 639 50 q 400 -11 496 -11 m 611 942 l 396 825 l 181 942 l 181 1106 l 396 985 l 611 1106 l 611 942 z "},"Ţ":{"ha":821,"x_min":33,"x_max":788,"o":"m 788 975 l 788 788 l 529 788 l 529 0 l 292 0 l 292 788 l 33 788 l 33 975 l 788 975 m 488 -57 q 614 -97 560 -57 q 668 -215 668 -136 q 611 -335 668 -294 q 475 -376 554 -376 l 261 -376 l 261 -246 l 443 -246 q 485 -237 471 -246 q 499 -210 499 -229 q 485 -183 499 -190 q 443 -175 471 -175 l 344 -175 l 344 4 l 488 4 l 488 -57 z "},"ţ":{"ha":564,"x_min":29,"x_max":558,"o":"m 378 -51 q 504 -91 450 -51 q 558 -210 558 -131 q 501 -330 558 -289 q 365 -371 444 -371 l 153 -371 l 153 -240 l 333 -240 q 375 -232 361 -240 q 389 -204 389 -224 q 375 -177 389 -185 q 333 -169 361 -169 l 235 -169 l 235 35 q 124 269 124 97 l 124 578 l 29 578 l 29 775 l 124 775 l 124 964 l 361 964 l 361 775 l 517 775 l 517 578 l 361 578 l 361 267 q 378 217 361 232 q 433 201 394 201 l 518 201 l 518 0 l 397 0 l 378 0 l 378 -51 z "},"Ť":{"ha":821,"x_min":33,"x_max":788,"o":"m 788 975 l 788 788 l 529 788 l 529 0 l 292 0 l 292 788 l 33 788 l 33 975 l 788 975 m 622 1144 l 407 1028 l 192 1144 l 192 1308 l 407 1188 l 622 1308 l 622 1144 z "},"ť":{"ha":567,"x_min":29,"x_max":642,"o":"m 614 1167 q 635 1088 629 1122 q 642 1017 642 1054 q 592 882 642 931 q 447 833 543 833 l 447 924 q 519 974 519 924 l 519 996 l 432 996 l 432 1167 l 614 1167 m 361 267 q 378 217 361 232 q 433 201 394 201 l 518 201 l 518 0 l 397 0 q 196 63 268 0 q 124 269 124 126 l 124 578 l 29 578 l 29 775 l 124 775 l 124 964 l 361 964 l 361 775 l 517 775 l 517 578 l 361 578 l 361 267 z "},"Ũ":{"ha":979,"x_min":82,"x_max":899,"o":"m 319 975 l 319 393 q 363 258 319 306 q 489 211 406 211 q 617 258 572 211 q 661 393 661 306 l 661 975 l 899 975 l 899 393 q 843 172 899 263 q 694 36 788 82 q 485 -10 600 -10 q 278 35 369 -10 q 135 172 188 81 q 82 393 82 263 l 82 975 l 319 975 m 213 1050 q 404 1256 246 1256 q 458 1247 435 1256 q 514 1219 481 1238 q 554 1199 539 1206 q 586 1193 569 1193 q 646 1256 638 1193 l 768 1256 q 576 1050 735 1050 q 523 1059 546 1050 q 467 1086 500 1068 q 426 1106 442 1100 q 394 1113 411 1113 q 333 1050 343 1113 l 213 1050 z "},"ũ":{"ha":936,"x_min":79,"x_max":851,"o":"m 851 775 l 851 0 l 614 0 l 614 106 q 516 23 578 54 q 379 -8 454 -8 q 222 31 290 -8 q 117 146 154 71 q 79 322 79 221 l 79 775 l 315 775 l 315 354 q 356 233 315 276 q 464 190 396 190 q 574 233 533 190 q 614 354 614 276 l 614 775 l 851 775 m 190 847 q 382 1053 224 1053 q 435 1044 413 1053 q 492 1017 458 1035 q 532 997 517 1003 q 564 990 547 990 q 624 1053 615 990 l 746 1053 q 554 847 713 847 q 501 856 524 847 q 444 883 478 865 q 404 903 419 897 q 372 910 389 910 q 311 847 321 910 l 190 847 z "},"Ū":{"ha":979,"x_min":82,"x_max":899,"o":"m 319 975 l 319 393 q 363 258 319 306 q 489 211 406 211 q 617 258 572 211 q 661 393 661 306 l 661 975 l 899 975 l 899 393 q 843 172 899 263 q 694 36 788 82 q 485 -10 600 -10 q 278 35 369 -10 q 135 172 188 81 q 82 393 82 263 l 82 975 l 319 975 m 768 1239 l 768 1075 l 213 1075 l 213 1239 l 768 1239 z "},"ū":{"ha":936,"x_min":79,"x_max":851,"o":"m 851 775 l 851 0 l 614 0 l 614 106 q 516 23 578 54 q 379 -8 454 -8 q 222 31 290 -8 q 117 146 154 71 q 79 322 79 221 l 79 775 l 315 775 l 315 354 q 356 233 315 276 q 464 190 396 190 q 574 233 533 190 q 614 354 614 276 l 614 775 l 851 775 m 747 1036 l 747 872 l 192 872 l 192 1036 l 747 1036 z "},"Ŭ":{"ha":979,"x_min":82,"x_max":899,"o":"m 319 975 l 319 393 q 363 258 319 306 q 489 211 406 211 q 617 258 572 211 q 661 393 661 306 l 661 975 l 899 975 l 899 393 q 843 172 899 263 q 694 36 788 82 q 485 -10 600 -10 q 278 35 369 -10 q 135 172 188 81 q 82 393 82 263 l 82 975 l 319 975 m 728 1282 q 663 1105 728 1168 q 490 1042 597 1042 q 319 1105 383 1042 q 254 1282 254 1168 l 254 1308 l 372 1308 q 399 1239 372 1263 q 490 1215 425 1215 q 582 1239 556 1215 q 608 1308 608 1263 l 728 1308 l 728 1282 z "},"ŭ":{"ha":936,"x_min":79,"x_max":851,"o":"m 851 775 l 851 0 l 614 0 l 614 106 q 516 23 578 54 q 379 -8 454 -8 q 222 31 290 -8 q 117 146 154 71 q 79 322 79 221 l 79 775 l 315 775 l 315 354 q 356 233 315 276 q 464 190 396 190 q 574 233 533 190 q 614 354 614 276 l 614 775 l 851 775 m 707 1079 q 642 902 707 965 q 469 839 576 839 q 298 902 363 839 q 233 1079 233 965 l 233 1106 l 351 1106 q 378 1036 351 1060 q 469 1013 404 1013 q 561 1036 535 1013 q 588 1106 588 1060 l 707 1106 l 707 1079 z "},"Ů":{"ha":979,"x_min":82,"x_max":899,"o":"m 319 975 l 319 393 q 363 258 319 306 q 489 211 406 211 q 617 258 572 211 q 661 393 661 306 l 661 975 l 899 975 l 899 393 q 843 172 899 263 q 694 36 788 82 q 485 -10 600 -10 q 278 35 369 -10 q 135 172 188 81 q 82 393 82 263 l 82 975 l 319 975 m 322 1203 q 370 1325 322 1279 q 490 1371 418 1371 q 610 1325 563 1371 q 658 1203 658 1279 q 610 1081 658 1126 q 490 1035 563 1035 q 370 1081 418 1035 q 322 1203 322 1126 m 558 1203 q 539 1252 558 1233 q 490 1271 519 1271 q 442 1252 461 1271 q 424 1203 424 1233 q 443 1154 424 1174 q 490 1135 463 1135 q 539 1153 519 1135 q 558 1203 558 1172 z "},"ů":{"ha":936,"x_min":79,"x_max":851,"o":"m 851 775 l 851 0 l 614 0 l 614 106 q 516 23 578 54 q 379 -8 454 -8 q 222 31 290 -8 q 117 146 154 71 q 79 322 79 221 l 79 775 l 315 775 l 315 354 q 356 233 315 276 q 464 190 396 190 q 574 233 533 190 q 614 354 614 276 l 614 775 l 851 775 m 301 1000 q 349 1122 301 1076 q 469 1168 397 1168 q 590 1122 542 1168 q 638 1000 638 1076 q 590 878 638 924 q 469 832 542 832 q 349 878 397 832 q 301 1000 301 924 m 538 1000 q 518 1049 538 1031 q 469 1068 499 1068 q 422 1049 440 1068 q 403 1000 403 1031 q 422 951 403 971 q 469 932 442 932 q 518 951 499 932 q 538 1000 538 969 z "},"Ű":{"ha":979,"x_min":82,"x_max":899,"o":"m 319 975 l 319 393 q 363 258 319 306 q 489 211 406 211 q 617 258 572 211 q 661 393 661 306 l 661 975 l 899 975 l 899 393 q 843 172 899 263 q 694 36 788 82 q 485 -10 600 -10 q 278 35 369 -10 q 135 172 188 81 q 82 393 82 263 l 82 975 l 319 975 m 411 1038 l 265 1038 l 369 1328 l 557 1328 l 411 1038 m 679 1038 l 533 1038 l 665 1328 l 853 1328 l 679 1038 z "},"ű":{"ha":936,"x_min":79,"x_max":851,"o":"m 851 775 l 851 0 l 614 0 l 614 106 q 516 23 578 54 q 379 -8 454 -8 q 222 31 290 -8 q 117 146 154 71 q 79 322 79 221 l 79 775 l 315 775 l 315 354 q 356 233 315 276 q 464 190 396 190 q 574 233 533 190 q 614 354 614 276 l 614 775 l 851 775 m 390 835 l 244 835 l 349 1125 l 536 1125 l 390 835 m 658 835 l 513 835 l 644 1125 l 832 1125 l 658 835 z "},"Ų":{"ha":979,"x_min":82,"x_max":899,"o":"m 319 975 l 319 393 q 363 258 319 306 q 489 211 406 211 q 617 258 572 211 q 661 393 661 306 l 661 975 l 899 975 l 899 393 q 843 172 899 263 q 694 36 788 82 q 485 -10 600 -10 q 278 35 369 -10 q 135 172 188 81 q 82 393 82 263 l 82 975 l 319 975 m 604 3 l 540 -29 q 468 -76 489 -56 q 447 -119 447 -96 q 463 -153 447 -140 q 508 -165 479 -165 q 614 -144 556 -165 l 614 -278 q 478 -299 549 -299 q 330 -258 388 -299 q 272 -140 272 -217 q 322 -21 272 -75 q 499 86 372 33 l 554 110 l 604 3 z "},"ų":{"ha":936,"x_min":79,"x_max":861,"o":"m 851 775 l 851 0 l 614 0 l 614 106 q 516 23 578 54 q 379 -8 454 -8 q 222 31 290 -8 q 117 146 154 71 q 79 322 79 221 l 79 775 l 315 775 l 315 354 q 356 233 315 276 q 464 190 396 190 q 574 233 533 190 q 614 354 614 276 l 614 775 l 851 775 m 851 -3 l 788 -35 q 715 -81 736 -61 q 694 -125 694 -101 q 710 -158 694 -146 q 756 -171 726 -171 q 861 -150 803 -171 l 861 -283 q 725 -304 796 -304 q 577 -263 635 -304 q 519 -146 519 -222 q 569 -26 519 -81 q 746 81 619 28 l 801 104 l 851 -3 z "},"Ŵ":{"ha":1461,"x_min":35,"x_max":1428,"o":"m 1428 975 l 1174 0 l 886 0 l 731 642 l 569 0 l 282 0 l 35 975 l 289 975 l 429 265 l 603 975 l 864 975 l 1031 265 l 1172 975 l 1428 975 m 728 1150 l 513 1029 l 513 1193 l 728 1310 l 943 1193 l 943 1029 l 728 1150 z "},"ŵ":{"ha":1203,"x_min":6,"x_max":1199,"o":"m 1199 775 l 989 0 l 726 0 l 604 503 l 478 0 l 217 0 l 6 775 l 243 775 l 353 221 l 483 775 l 735 775 l 867 224 l 975 775 l 1199 775 m 603 946 l 388 825 l 388 989 l 603 1106 l 818 989 l 818 825 l 603 946 z "},"Ŷ":{"ha":932,"x_min":10,"x_max":922,"o":"m 922 975 l 585 322 l 585 0 l 347 0 l 347 322 l 10 975 l 279 975 l 468 568 l 656 975 l 922 975 m 467 1149 l 251 1028 l 251 1192 l 467 1308 l 682 1192 l 682 1028 l 467 1149 z "},"ŷ":{"ha":878,"x_min":-1,"x_max":878,"o":"m 264 775 l 443 290 l 621 775 l 878 775 l 392 -368 l 136 -368 l 314 26 l -1 775 l 264 775 m 439 946 l 224 825 l 224 989 l 439 1106 l 654 989 l 654 825 l 439 946 z "},"Ÿ":{"ha":932,"x_min":10,"x_max":922,"o":"m 922 975 l 585 322 l 585 0 l 347 0 l 347 322 l 10 975 l 279 975 l 468 568 l 656 975 l 922 975 m 326 1064 q 254 1093 283 1064 q 225 1165 225 1122 q 254 1238 225 1208 q 326 1268 283 1268 q 400 1239 371 1268 q 429 1165 429 1210 q 399 1093 429 1122 q 326 1064 369 1064 m 604 1064 q 532 1093 561 1064 q 503 1165 503 1122 q 532 1238 503 1208 q 604 1268 561 1268 q 678 1239 649 1268 q 707 1165 707 1210 q 677 1093 707 1122 q 604 1064 647 1064 z "},"Ź":{"ha":828,"x_min":69,"x_max":758,"o":"m 339 194 l 758 194 l 758 0 l 69 0 l 69 181 l 486 781 l 69 781 l 69 975 l 758 975 l 758 794 l 339 194 m 575 1171 l 240 1031 l 240 1194 l 575 1356 l 575 1171 z "},"ź":{"ha":689,"x_min":43,"x_max":644,"o":"m 308 196 l 644 196 l 644 0 l 43 0 l 43 189 l 365 579 l 46 579 l 46 775 l 638 775 l 638 586 l 308 196 m 511 968 l 176 828 l 176 992 l 511 1153 l 511 968 z "},"Ż":{"ha":828,"x_min":69,"x_max":758,"o":"m 339 194 l 758 194 l 758 0 l 69 0 l 69 181 l 486 781 l 69 781 l 69 975 l 758 975 l 758 794 l 339 194 m 413 1064 q 340 1093 369 1064 q 311 1165 311 1122 q 340 1238 311 1208 q 413 1268 369 1268 q 486 1239 457 1268 q 515 1165 515 1210 q 485 1093 515 1122 q 413 1064 456 1064 z "},"ż":{"ha":689,"x_min":43,"x_max":644,"o":"m 308 196 l 644 196 l 644 0 l 43 0 l 43 189 l 365 579 l 46 579 l 46 775 l 638 775 l 638 586 l 308 196 m 349 861 q 276 890 306 861 q 247 963 247 919 q 276 1035 247 1006 q 349 1065 306 1065 q 422 1036 393 1065 q 451 963 451 1007 q 422 890 451 919 q 349 861 392 861 z "},"Ž":{"ha":828,"x_min":69,"x_max":758,"o":"m 339 194 l 758 194 l 758 0 l 69 0 l 69 181 l 486 781 l 69 781 l 69 975 l 758 975 l 758 794 l 339 194 m 629 1144 l 414 1028 l 199 1144 l 199 1308 l 414 1188 l 629 1308 l 629 1144 z "},"ž":{"ha":689,"x_min":43,"x_max":644,"o":"m 308 196 l 644 196 l 644 0 l 43 0 l 43 189 l 365 579 l 46 579 l 46 775 l 638 775 l 638 586 l 308 196 m 565 942 l 350 825 l 135 942 l 135 1106 l 350 985 l 565 1106 l 565 942 z "},"ƒ":{"ha":467,"x_min":-87,"x_max":486,"o":"m 465 886 q 385 867 411 886 q 356 804 360 849 l 353 775 l 464 775 l 444 578 l 332 578 l 258 -114 q 163 -312 243 -254 q -50 -369 83 -369 l -87 -369 l -68 -168 l -31 -168 q 21 -114 15 -168 l 94 578 l 21 578 l 40 775 l 115 775 l 118 804 q 223 1019 133 951 q 486 1088 313 1088 l 465 886 z "},"Ǽ":{"ha":1326,"x_min":8,"x_max":1258,"o":"m 907 788 l 907 588 l 1217 588 l 1217 407 l 907 407 l 907 188 l 1258 188 l 1258 0 l 669 0 l 669 164 l 349 164 l 265 0 l 8 0 l 507 975 l 1258 975 l 1258 788 l 907 788 m 669 344 l 669 799 l 440 344 l 669 344 m 878 1169 l 543 1029 l 543 1193 l 878 1354 l 878 1169 z "},"ǽ":{"ha":1486,"x_min":39,"x_max":1446,"o":"m 1446 401 q 1439 333 1446 372 l 864 333 q 920 218 874 257 q 1031 179 967 179 q 1122 200 1086 179 q 1174 257 1158 221 l 1426 257 q 1311 64 1397 139 q 1101 -11 1225 -11 q 953 22 1018 -11 q 853 111 888 54 l 853 0 l 621 0 l 621 111 q 522 22 583 56 q 381 -11 460 -11 q 207 38 285 -11 q 84 178 129 88 q 39 389 39 269 q 84 599 39 508 q 208 738 129 689 q 385 786 288 786 q 523 756 463 786 q 621 667 583 725 l 621 775 l 853 775 l 853 667 q 1101 786 933 786 q 1280 738 1201 786 q 1402 603 1358 690 q 1446 401 1446 515 m 1203 454 q 1154 558 1201 519 q 1036 596 1107 596 q 924 560 971 596 q 864 454 876 524 l 1203 454 m 450 196 q 570 247 521 196 q 619 388 619 299 q 570 528 619 476 q 450 579 521 579 q 330 528 379 579 q 281 389 281 478 q 330 248 281 300 q 450 196 379 196 m 947 968 l 613 828 l 613 992 l 947 1153 l 947 968 z "},"Ș":{"ha":899,"x_min":58,"x_max":794,"o":"m 439 -10 q 247 25 332 -10 q 112 128 163 60 q 58 292 61 196 l 311 292 q 349 207 317 236 q 432 178 381 178 q 515 203 485 178 q 546 272 546 229 q 522 332 546 308 q 462 371 497 356 q 361 406 426 386 q 207 464 267 435 q 104 550 147 493 q 61 699 61 607 q 160 912 61 835 q 417 989 258 989 q 676 912 578 989 q 782 697 775 835 l 525 697 q 491 774 522 747 q 408 801 460 801 q 339 778 365 801 q 313 710 313 754 q 357 636 313 663 q 496 579 401 610 q 649 518 590 547 q 751 433 708 489 q 794 290 794 378 q 752 139 794 207 q 629 31 710 71 q 439 -10 549 -10 m 538 -56 q 565 -219 565 -139 q 516 -374 565 -317 q 371 -431 467 -431 l 371 -340 q 443 -249 443 -340 l 443 -226 l 356 -226 l 356 -56 l 538 -56 z "},"ș":{"ha":775,"x_min":44,"x_max":714,"o":"m 400 -11 q 221 24 300 -11 q 96 119 142 58 q 44 254 50 179 l 279 254 q 316 185 283 211 q 399 160 349 160 q 467 178 443 160 q 492 226 492 196 q 457 276 492 260 q 343 311 422 293 q 205 351 260 331 q 110 419 150 372 q 71 543 71 465 q 108 666 71 611 q 215 753 144 721 q 385 786 286 786 q 615 714 531 786 q 711 522 699 642 l 492 522 q 456 590 486 565 q 378 614 426 614 q 314 597 336 614 q 292 550 292 581 q 327 500 292 517 q 438 467 363 483 q 578 424 522 446 q 674 355 633 403 q 714 226 714 307 q 676 104 714 158 q 567 19 639 50 q 400 -11 496 -11 m 474 -56 q 501 -219 501 -139 q 452 -374 501 -317 q 307 -431 403 -431 l 307 -340 q 379 -249 379 -340 l 379 -226 l 292 -226 l 292 -56 l 474 -56 z "},"Ț":{"ha":821,"x_min":33,"x_max":788,"o":"m 788 975 l 788 788 l 529 788 l 529 0 l 292 0 l 292 788 l 33 788 l 33 975 l 788 975 m 500 -56 q 526 -219 526 -140 q 477 -374 526 -317 q 332 -431 428 -431 l 332 -340 q 406 -249 406 -340 l 406 -226 l 318 -226 l 318 -56 l 500 -56 z "},"ț":{"ha":564,"x_min":29,"x_max":518,"o":"m 518 201 l 518 0 l 397 0 q 196 63 268 0 q 124 269 124 126 l 124 578 l 29 578 l 29 775 l 124 775 l 124 964 l 361 964 l 361 775 l 517 775 l 517 578 l 361 578 l 361 267 q 378 217 361 232 q 433 201 394 201 l 518 201 m 376 -56 q 404 -219 404 -139 q 355 -374 404 -317 q 210 -431 306 -431 l 210 -340 q 282 -249 282 -340 l 282 -226 l 194 -226 l 194 -56 l 376 -56 z "},"ʼ":{"ha":436,"x_min":68,"x_max":383,"o":"m 140 975 l 383 975 l 228 603 l 68 603 l 140 975 z "},"ˆ":{"ha":458,"x_min":14,"x_max":444,"o":"m 229 946 l 14 825 l 14 989 l 229 1106 l 444 989 l 444 825 l 229 946 z "},"ˇ":{"ha":458,"x_min":14,"x_max":444,"o":"m 444 942 l 229 825 l 14 942 l 14 1106 l 229 985 l 444 1106 l 444 942 z "},"ˉ":{"ha":583,"x_min":14,"x_max":569,"o":"m 569 1036 l 569 872 l 14 872 l 14 1036 l 569 1036 z "},"˘":{"ha":500,"x_min":14,"x_max":488,"o":"m 488 1079 q 422 902 488 965 q 250 839 357 839 q 78 902 143 839 q 14 1079 14 965 l 14 1106 l 132 1106 q 158 1036 132 1060 q 250 1013 185 1013 q 342 1036 315 1013 q 368 1106 368 1060 l 488 1106 l 488 1079 z "},"˙":{"ha":232,"x_min":14,"x_max":218,"o":"m 115 861 q 43 890 72 861 q 14 963 14 919 q 43 1035 14 1006 q 115 1065 72 1065 q 189 1036 160 1065 q 218 963 218 1007 q 188 890 218 919 q 115 861 158 861 z "},"˚":{"ha":364,"x_min":14,"x_max":350,"o":"m 14 1000 q 62 1122 14 1076 q 182 1168 110 1168 q 302 1122 254 1168 q 350 1000 350 1076 q 302 878 350 924 q 182 832 254 832 q 62 878 110 832 q 14 1000 14 924 m 250 1000 q 231 1049 250 1031 q 182 1068 211 1068 q 134 1049 153 1068 q 115 1000 115 1031 q 135 951 115 971 q 182 932 154 932 q 231 951 211 932 q 250 1000 250 969 z "},"˛":{"ha":375,"x_min":19,"x_max":361,"o":"m 351 0 l 288 -32 q 215 -78 236 -58 q 194 -122 194 -99 q 210 -156 194 -143 q 256 -168 226 -168 q 361 -147 303 -168 l 361 -281 q 225 -301 296 -301 q 77 -260 135 -301 q 19 -143 19 -219 q 69 -24 19 -78 q 246 83 119 31 l 301 107 l 351 0 z "},"˜":{"ha":569,"x_min":7,"x_max":563,"o":"m 7 847 q 199 1053 40 1053 q 252 1044 229 1053 q 308 1017 275 1035 q 349 997 333 1003 q 381 990 364 990 q 440 1053 432 990 l 563 1053 q 371 847 529 847 q 317 856 340 847 q 261 883 294 865 q 221 903 236 897 q 189 910 206 910 q 128 847 138 910 l 7 847 z "},"˝":{"ha":615,"x_min":14,"x_max":601,"o":"m 160 835 l 14 835 l 118 1125 l 306 1125 l 160 835 m 428 835 l 282 835 l 414 1125 l 601 1125 l 428 835 z "},"π":{"ha":982,"x_min":28,"x_max":954,"o":"m 954 775 l 954 594 l 857 594 l 857 0 l 619 0 l 619 594 l 363 594 l 363 0 l 125 0 l 125 594 l 28 594 l 28 775 l 954 775 z "},"Ẁ":{"ha":1461,"x_min":35,"x_max":1428,"o":"m 1428 975 l 1174 0 l 886 0 l 731 642 l 569 0 l 282 0 l 35 975 l 289 975 l 429 265 l 603 975 l 864 975 l 1031 265 l 1172 975 l 1428 975 m 872 1192 l 872 1028 l 538 1168 l 538 1353 l 872 1192 z "},"ẁ":{"ha":1203,"x_min":6,"x_max":1199,"o":"m 1199 775 l 989 0 l 726 0 l 604 503 l 478 0 l 217 0 l 6 775 l 243 775 l 353 221 l 483 775 l 735 775 l 867 224 l 975 775 l 1199 775 m 738 992 l 738 828 l 403 968 l 403 1153 l 738 992 z "},"Ẃ":{"ha":1461,"x_min":35,"x_max":1428,"o":"m 1428 975 l 1174 0 l 886 0 l 731 642 l 569 0 l 282 0 l 35 975 l 289 975 l 429 265 l 603 975 l 864 975 l 1031 265 l 1172 975 l 1428 975 m 932 1172 l 597 1032 l 597 1196 l 932 1357 l 932 1172 z "},"ẃ":{"ha":1203,"x_min":6,"x_max":1199,"o":"m 1199 775 l 989 0 l 726 0 l 604 503 l 478 0 l 217 0 l 6 775 l 243 775 l 353 221 l 483 775 l 735 775 l 867 224 l 975 775 l 1199 775 m 806 968 l 471 828 l 471 992 l 806 1153 l 806 968 z "},"Ẅ":{"ha":1461,"x_min":35,"x_max":1428,"o":"m 1428 975 l 1174 0 l 886 0 l 731 642 l 569 0 l 282 0 l 35 975 l 289 975 l 429 265 l 603 975 l 864 975 l 1031 265 l 1172 975 l 1428 975 m 589 1063 q 517 1092 546 1063 q 488 1164 488 1121 q 517 1237 488 1207 q 589 1267 546 1267 q 663 1238 633 1267 q 692 1164 692 1208 q 662 1092 692 1121 q 589 1063 632 1063 m 867 1063 q 794 1092 824 1063 q 765 1164 765 1121 q 794 1237 765 1207 q 867 1267 824 1267 q 940 1238 911 1267 q 969 1164 969 1208 q 940 1092 969 1121 q 867 1063 910 1063 z "},"ẅ":{"ha":1203,"x_min":6,"x_max":1199,"o":"m 1199 775 l 989 0 l 726 0 l 604 503 l 478 0 l 217 0 l 6 775 l 243 775 l 353 221 l 483 775 l 735 775 l 867 224 l 975 775 l 1199 775 m 463 861 q 390 890 419 861 q 361 963 361 919 q 390 1035 361 1006 q 463 1065 419 1065 q 536 1036 507 1065 q 565 963 565 1007 q 535 890 565 919 q 463 861 506 861 m 740 861 q 668 890 697 861 q 639 963 639 919 q 668 1035 639 1006 q 740 1065 697 1065 q 814 1036 785 1065 q 843 963 843 1007 q 813 890 843 919 q 740 861 783 861 z "},"Ẽ":{"ha":751,"x_min":86,"x_max":683,"o":"m 324 788 l 324 585 l 642 585 l 642 406 l 324 406 l 324 188 l 683 188 l 683 0 l 86 0 l 86 975 l 683 975 l 683 788 l 324 788 m 100 1050 q 292 1256 133 1256 q 345 1247 322 1256 q 401 1219 368 1238 q 442 1199 426 1206 q 474 1193 457 1193 q 533 1256 525 1193 l 656 1256 q 464 1050 622 1050 q 410 1059 433 1050 q 354 1086 388 1068 q 314 1106 329 1100 q 282 1113 299 1113 q 221 1050 231 1113 l 100 1050 z "},"ẽ":{"ha":856,"x_min":39,"x_max":817,"o":"m 817 401 q 813 333 817 369 l 275 333 q 321 221 281 260 q 422 182 361 182 q 546 257 511 182 l 799 257 q 728 119 779 181 q 601 24 678 58 q 431 -11 525 -11 q 228 38 317 -11 q 89 176 139 86 q 39 388 39 267 q 88 599 39 508 q 226 738 138 689 q 431 786 315 786 q 631 739 543 786 q 767 604 718 692 q 817 401 817 517 m 574 454 q 532 558 574 521 q 428 596 490 596 q 326 559 367 596 q 275 454 285 522 l 574 454 m 161 847 q 353 1053 194 1053 q 406 1044 383 1053 q 463 1017 429 1035 q 503 997 488 1003 q 535 990 518 990 q 594 1053 586 990 l 717 1053 q 525 847 683 847 q 472 856 494 847 q 415 883 449 865 q 375 903 390 897 q 343 910 360 910 q 282 847 292 910 l 161 847 z "},"Ỳ":{"ha":932,"x_min":10,"x_max":922,"o":"m 922 975 l 585 322 l 585 0 l 347 0 l 347 322 l 10 975 l 279 975 l 468 568 l 656 975 l 922 975 m 628 1194 l 628 1031 l 293 1171 l 293 1356 l 628 1194 z "},"ỳ":{"ha":878,"x_min":-1,"x_max":878,"o":"m 264 775 l 443 290 l 621 775 l 878 775 l 392 -368 l 136 -368 l 314 26 l -1 775 l 264 775 m 600 992 l 600 828 l 265 968 l 265 1153 l 600 992 z "},"Ỹ":{"ha":932,"x_min":10,"x_max":922,"o":"m 922 975 l 585 322 l 585 0 l 347 0 l 347 322 l 10 975 l 279 975 l 468 568 l 656 975 l 922 975 m 189 1050 q 381 1256 222 1256 q 434 1247 411 1256 q 490 1219 457 1238 q 531 1199 515 1206 q 563 1193 546 1193 q 622 1256 614 1193 l 744 1256 q 553 1050 711 1050 q 499 1059 522 1050 q 443 1086 476 1068 q 403 1106 418 1100 q 371 1113 388 1113 q 310 1050 319 1113 l 189 1050 z "},"ỹ":{"ha":878,"x_min":-1,"x_max":878,"o":"m 264 775 l 443 290 l 621 775 l 878 775 l 392 -368 l 136 -368 l 314 26 l -1 775 l 264 775 m 161 847 q 353 1053 194 1053 q 406 1044 383 1053 q 463 1017 429 1035 q 503 997 488 1003 q 535 990 518 990 q 594 1053 586 990 l 717 1053 q 525 847 683 847 q 472 856 494 847 q 415 883 449 865 q 375 903 390 897 q 343 910 360 910 q 282 847 292 910 l 161 847 z "},"–":{"ha":965,"x_min":97,"x_max":868,"o":"m 868 586 l 868 389 l 97 389 l 97 586 l 868 586 z "},"—":{"ha":1292,"x_min":97,"x_max":1194,"o":"m 1194 586 l 1194 389 l 97 389 l 97 586 l 1194 586 z "},"‘":{"ha":436,"x_min":53,"x_max":368,"o":"m 296 603 l 53 603 l 208 975 l 368 975 l 296 603 z "},"’":{"ha":436,"x_min":68,"x_max":383,"o":"m 140 975 l 383 975 l 228 603 l 68 603 l 140 975 z "},"‚":{"ha":335,"x_min":26,"x_max":358,"o":"m 358 240 l 182 -210 l 26 -210 l 115 240 l 358 240 z "},"“":{"ha":754,"x_min":53,"x_max":685,"o":"m 296 603 l 53 603 l 208 975 l 368 975 l 296 603 m 613 603 l 369 603 l 525 975 l 685 975 l 613 603 z "},"”":{"ha":760,"x_min":75,"x_max":707,"o":"m 464 975 l 707 975 l 551 603 l 392 603 l 464 975 m 147 975 l 390 975 l 235 603 l 75 603 l 147 975 z "},"„":{"ha":335,"x_min":26,"x_max":358,"o":"m 358 240 l 182 -210 l 26 -210 l 115 240 l 358 240 m 358 240 l 182 -210 l 26 -210 l 115 240 l 358 240 z "},"†":{"ha":908,"x_min":69,"x_max":839,"o":"m 839 594 l 549 613 l 572 -369 l 335 -369 l 358 613 l 69 594 l 69 775 l 358 757 l 335 1096 l 572 1096 l 549 757 l 839 775 l 839 594 z "},"‡":{"ha":908,"x_min":69,"x_max":839,"o":"m 549 613 l 549 114 l 839 132 l 839 -49 l 549 -31 l 572 -369 l 335 -369 l 358 -31 l 69 -49 l 69 132 l 358 114 l 358 613 l 69 594 l 69 775 l 358 757 l 335 1096 l 572 1096 l 549 757 l 839 775 l 839 594 l 549 613 z "},"•":{"ha":696,"x_min":139,"x_max":557,"o":"m 347 254 q 242 282 290 254 q 167 358 194 310 q 139 463 139 406 q 167 569 139 521 q 242 644 194 617 q 347 672 290 672 q 453 644 406 672 q 529 569 501 617 q 557 463 557 521 q 529 358 557 406 q 453 282 501 310 q 347 254 406 254 z "},"…":{"ha":1056,"x_min":56,"x_max":1006,"o":"m 531 -11 q 428 26 468 -11 q 389 117 389 63 q 428 210 389 172 q 531 247 468 247 q 631 210 592 247 q 671 117 671 172 q 631 26 671 63 q 531 -11 592 -11 m 865 -11 q 763 26 803 -11 q 724 117 724 63 q 763 210 724 172 q 865 247 803 247 q 966 210 926 247 q 1006 117 1006 172 q 966 26 1006 63 q 865 -11 926 -11 m 197 -11 q 95 26 135 -11 q 56 117 56 63 q 95 210 56 172 q 197 247 135 247 q 298 210 258 247 q 338 117 338 172 q 298 26 338 63 q 197 -11 258 -11 z "},"‰":{"ha":1638,"x_min":42,"x_max":1596,"o":"m 42 758 q 106 931 42 869 q 274 992 171 992 q 440 931 376 992 q 504 758 504 869 q 440 586 504 647 q 274 525 376 525 q 106 586 171 525 q 42 758 42 647 m 947 978 l 413 0 l 183 0 l 718 978 l 947 978 m 272 851 q 206 758 206 851 q 272 665 206 665 q 322 688 304 665 q 340 758 340 711 q 322 828 340 806 q 272 851 304 851 m 626 219 q 691 392 626 331 q 858 453 756 453 q 1025 392 961 453 q 1089 219 1089 331 q 1025 47 1089 108 q 858 -14 961 -14 q 691 47 756 -14 q 626 219 626 108 m 1133 219 q 1198 392 1133 331 q 1365 453 1263 453 q 1532 392 1468 453 q 1596 219 1596 331 q 1532 47 1596 108 q 1365 -14 1468 -14 q 1198 47 1263 -14 q 1133 219 1133 108 m 857 313 q 790 219 790 313 q 857 126 790 126 q 907 149 889 126 q 925 219 925 172 q 907 290 925 267 q 857 313 889 313 m 1364 313 q 1297 219 1297 313 q 1364 126 1297 126 q 1414 149 1396 126 q 1432 219 1432 172 q 1414 290 1432 267 q 1364 313 1396 313 z "},"‹":{"ha":468,"x_min":63,"x_max":399,"o":"m 179 167 l 63 410 l 179 653 l 399 653 l 278 410 l 399 167 l 179 167 z "},"›":{"ha":468,"x_min":69,"x_max":406,"o":"m 190 410 l 69 653 l 289 653 l 406 410 l 289 167 l 69 167 l 190 410 z "},"⁄":{"ha":792,"x_min":14,"x_max":778,"o":"m 778 978 l 243 0 l 14 0 l 549 978 l 778 978 z "},"€":{"ha":1106,"x_min":28,"x_max":1065,"o":"m 600 210 q 721 242 668 210 q 804 333 774 274 l 1065 333 q 900 84 1024 175 q 603 -7 776 -7 q 306 83 431 -7 q 136 328 182 174 l 28 328 l 28 451 l 115 451 q 114 489 114 464 q 115 529 114 515 l 28 529 l 28 654 l 138 654 q 308 897 183 807 q 603 986 432 986 q 900 894 776 986 q 1065 644 1024 803 l 804 644 q 721 735 774 704 q 600 767 668 767 q 481 738 533 767 q 396 654 428 708 l 628 654 l 628 529 l 357 529 q 356 489 356 517 q 357 451 356 464 l 628 451 l 628 328 l 393 328 q 478 240 425 271 q 600 210 532 210 z "},"₺":{"ha":1158,"x_min":14,"x_max":1071,"o":"m 1071 633 q 1018 265 1071 406 q 849 56 965 124 q 543 -11 733 -11 q 192 29 400 -11 l 192 340 l 17 308 l 17 456 l 192 488 l 192 567 l 14 535 l 14 678 l 192 711 l 192 982 l 433 982 l 433 757 l 619 792 l 619 644 l 433 611 l 433 531 l 619 564 l 619 417 l 433 383 l 433 221 q 542 211 479 211 q 722 265 660 211 q 807 410 785 319 q 829 633 829 500 l 1071 633 z "},"₽":{"ha":936,"x_min":25,"x_max":899,"o":"m 393 378 l 393 294 l 608 294 l 608 114 l 393 114 l 393 0 l 156 0 l 156 114 l 25 114 l 25 294 l 156 294 l 156 378 l 25 378 l 25 560 l 156 560 l 156 975 l 540 975 q 737 936 656 975 q 858 830 818 897 q 899 676 899 763 q 860 526 899 593 q 740 418 821 458 q 540 378 660 378 l 393 378 m 393 560 l 531 560 q 625 591 593 560 q 657 676 657 622 q 625 762 657 729 q 531 794 593 794 l 393 794 l 393 560 z "},"ℓ":{"ha":410,"x_min":86,"x_max":324,"o":"m 324 1028 l 324 0 l 86 0 l 86 1028 l 324 1028 z "},"™":{"ha":1226,"x_min":38,"x_max":1164,"o":"m 38 981 l 438 981 l 438 843 l 322 843 l 324 493 l 151 493 l 153 843 l 38 843 l 38 981 m 1164 981 l 1164 493 l 1007 493 l 1003 772 l 889 493 l 774 493 l 660 786 l 660 493 l 508 493 l 508 981 l 739 981 l 838 701 l 951 981 l 1164 981 z "},"Ω":{"ha":1094,"x_min":49,"x_max":1046,"o":"m 1046 513 q 906 181 1046 294 l 1039 181 l 1039 0 l 664 0 l 664 186 q 804 485 804 303 q 735 695 804 619 q 547 771 665 771 q 360 695 429 771 q 290 485 290 619 q 431 186 290 303 l 431 0 l 56 0 l 56 181 l 190 181 q 49 513 49 296 q 115 764 49 656 q 294 931 181 872 q 547 989 408 989 q 800 931 686 989 q 980 764 914 872 q 1046 513 1046 656 z "},"℮":{"ha":1039,"x_min":49,"x_max":990,"o":"m 950 186 q 532 -10 767 -10 q 283 47 393 -10 q 111 210 174 103 q 49 467 49 318 q 104 734 49 615 q 266 922 160 853 q 519 990 372 990 q 772 926 665 990 q 935 758 879 863 q 990 532 990 653 l 990 444 l 313 444 l 313 199 q 532 128 410 128 q 711 167 629 128 q 868 281 793 206 l 950 186 m 724 797 q 519 857 647 857 q 313 788 394 857 l 313 567 l 724 567 l 724 797 z "},"∂":{"ha":854,"x_min":47,"x_max":807,"o":"m 47 346 q 98 570 47 471 q 235 724 149 669 q 426 779 322 779 q 579 719 521 779 q 374 893 544 893 q 282 883 329 893 l 282 1004 q 443 1028 365 1028 q 713 903 619 1028 q 807 563 807 778 q 753 257 807 386 q 600 59 699 128 q 372 -10 501 -10 q 207 30 281 -10 q 90 149 133 69 q 47 346 47 229 m 553 439 q 524 544 553 508 q 446 581 494 581 q 331 515 374 581 q 288 347 288 450 q 317 231 288 269 q 396 193 347 193 q 510 263 467 193 q 553 439 553 333 z "},"∆":{"ha":1021,"x_min":28,"x_max":993,"o":"m 607 978 l 993 181 l 993 0 l 28 0 l 28 181 l 414 978 l 607 978 m 272 181 l 749 181 l 511 708 l 272 181 z "},"∏":{"ha":1038,"x_min":28,"x_max":1010,"o":"m 1010 978 l 1010 797 l 913 797 l 913 0 l 675 0 l 675 797 l 363 797 l 363 0 l 125 0 l 125 797 l 28 797 l 28 978 l 1010 978 z "},"∑":{"ha":744,"x_min":56,"x_max":689,"o":"m 689 797 l 275 797 l 608 560 l 608 379 l 267 111 l 689 111 l 689 -69 l 56 -69 l 56 207 l 382 464 l 56 701 l 56 978 l 689 978 l 689 797 z "},"−":{"ha":754,"x_min":72,"x_max":683,"o":"m 683 586 l 683 389 l 72 389 l 72 586 l 683 586 z "},"∕":{"ha":629,"x_min":14,"x_max":615,"o":"m 615 1319 l 243 -260 l 14 -260 l 386 1319 l 615 1319 z "},"∙":{"ha":415,"x_min":69,"x_max":351,"o":"m 211 308 q 109 345 149 308 q 69 436 69 382 q 109 529 69 492 q 211 567 149 567 q 312 529 272 567 q 351 436 351 492 q 312 345 351 382 q 211 308 272 308 z "},"√":{"ha":1292,"x_min":28,"x_max":1264,"o":"m 1264 1256 l 531 -57 l 415 -57 l 208 311 l 94 244 l 28 356 l 350 546 l 536 213 l 1119 1256 l 1264 1256 z "},"∞":{"ha":1079,"x_min":42,"x_max":1038,"o":"m 785 722 q 969 659 901 722 q 1038 483 1038 596 q 1004 356 1038 410 q 915 272 971 301 q 790 243 858 243 q 647 275 708 243 q 529 363 585 307 q 428 276 489 308 q 294 243 367 243 q 110 306 178 243 q 42 482 42 369 q 75 610 42 556 q 165 693 108 664 q 289 722 221 722 q 433 688 374 722 q 544 594 493 654 q 648 688 586 653 q 785 722 710 722 m 308 401 q 377 419 343 401 q 438 471 411 438 q 370 540 400 517 q 308 564 340 564 q 251 542 274 564 q 229 482 229 521 q 251 422 229 443 q 308 401 272 401 m 771 401 q 828 423 806 401 q 850 483 850 444 q 828 543 850 522 q 771 564 807 564 q 695 542 732 564 q 633 482 658 521 q 699 422 667 443 q 771 401 731 401 z "},"∫":{"ha":406,"x_min":-69,"x_max":475,"o":"m 144 1053 q 240 1251 160 1193 q 451 1308 319 1308 l 475 1308 l 456 1107 l 432 1107 q 382 1053 389 1107 l 261 -114 q 166 -312 246 -254 q -46 -369 86 -369 l -69 -369 l -50 -168 l -26 -168 q 24 -114 17 -168 l 144 1053 z "},"≈":{"ha":883,"x_min":39,"x_max":846,"o":"m 39 169 q 135 397 64 324 q 315 471 207 471 q 395 458 360 471 q 476 418 431 444 q 533 389 510 399 q 582 379 557 379 q 669 471 657 379 l 846 471 q 749 243 821 317 q 568 169 676 169 q 488 183 524 169 q 407 222 453 197 q 349 251 372 242 q 301 261 326 261 q 213 169 226 261 l 39 169 m 39 517 q 135 744 64 671 q 315 818 207 818 q 395 805 360 818 q 476 765 431 792 q 533 736 510 746 q 582 726 557 726 q 669 818 657 726 l 846 818 q 749 590 821 664 q 568 517 676 517 q 488 531 524 517 q 407 569 453 544 q 349 599 372 589 q 301 608 326 608 q 213 517 226 608 l 39 517 z "},"≠":{"ha":951,"x_min":94,"x_max":872,"o":"m 769 769 l 872 769 l 872 556 l 604 556 l 496 415 l 872 415 l 872 201 l 331 201 l 228 68 l 94 68 l 197 201 l 94 201 l 94 415 l 363 415 l 472 556 l 94 556 l 94 769 l 638 769 l 740 903 l 872 903 l 769 769 z "},"≤":{"ha":721,"x_min":71,"x_max":651,"o":"m 369 536 l 651 279 l 353 279 l 71 536 l 353 793 l 651 793 l 369 536 m 94 182 l 647 182 l 647 0 l 94 0 l 94 182 z "},"≥":{"ha":721,"x_min":71,"x_max":651,"o":"m 71 279 l 351 536 l 71 793 l 368 793 l 651 536 l 368 279 l 71 279 m 74 182 l 626 182 l 626 0 l 74 0 l 74 182 z "},"◊":{"ha":785,"x_min":28,"x_max":757,"o":"m 757 490 l 393 125 l 28 490 l 393 854 l 757 490 m 257 490 l 393 354 l 528 490 l 393 625 l 257 490 z "},"ﬁ":{"ha":913,"x_min":24,"x_max":832,"o":"m 347 775 l 808 775 l 808 0 l 571 0 l 571 578 l 347 578 l 347 0 l 110 0 l 110 578 l 24 578 l 24 775 l 110 775 l 110 797 q 190 1015 110 940 q 422 1089 269 1089 q 460 1088 447 1089 l 460 886 q 372 867 397 890 q 347 782 347 843 l 347 775 m 690 842 q 589 876 628 842 q 550 965 550 911 q 589 1055 550 1019 q 690 1090 628 1090 q 792 1055 753 1090 q 832 965 832 1019 q 793 876 832 911 q 690 842 754 842 z "},"ﬂ":{"ha":910,"x_min":24,"x_max":824,"o":"m 475 578 l 347 578 l 347 0 l 110 0 l 110 578 l 24 578 l 24 775 l 110 775 l 110 797 q 192 1015 110 940 q 432 1089 274 1089 q 471 1088 458 1089 l 471 886 q 375 867 403 890 q 347 782 347 843 l 347 775 l 475 775 l 475 578 m 824 1028 l 824 0 l 586 0 l 586 1028 l 824 1028 z "}}}
